<svg xmlns="http://www.w3.org/2000/svg" viewBox="0 0 1177.24 767.63"><defs><style>.cls-1{fill:none}.cls-3{fill:#709c00}.cls-4{fill:#fff}.cls-7{fill:#bcbec0}.cls-8{fill:#939598}.cls-9{fill:#231f20}.cls-11,.cls-21{fill:#808285}.cls-13{fill:#58595b}.cls-14{fill:#eadab5}.cls-16{fill:#e6e7e8}.cls-17,.cls-40{fill:#f1f2f2}.cls-18{fill:#00a193}.cls-19{fill:#008c80}.cls-20{fill:url(#New_Pattern_Swatch_29)}.cls-21,.cls-40{opacity:.5;isolation:isolate}.cls-22{fill:#414042}.cls-30{fill:#272044}.cls-31{fill:#1a1a1a}.cls-32{fill:#fce8f9}.cls-35{fill:#f7a336}.cls-36{fill:#ccc}.cls-37{fill:#6d6e71}.cls-39{fill:#3d0075}</style><pattern id="New_Pattern_Swatch_31" data-name="New Pattern Swatch 31" width="225.02" height="225.02" patternTransform="scale(1 -1) rotate(45 -1017.56 98.107)" patternUnits="userSpaceOnUse"><path class="cls-1" d="M0 0h225.02v225.02H0z"/><path class="cls-1" d="M0 0h225.02v225.02H0z"/><path class="cls-3" d="M0 0h225.02v225.02H0z"/></pattern><pattern id="New_Pattern_Swatch_31-3" data-name="New Pattern Swatch 31" width="225.02" height="225.02" patternTransform="matrix(1 0 0 -1 -153.96 -126.98)" patternUnits="userSpaceOnUse"><path class="cls-1" d="M0 0h225.02v225.02H0z"/><path class="cls-1" d="M0 0h225.02v225.02H0z"/><path class="cls-3" d="M0 0h225.02v225.02H0z"/></pattern><clipPath id="clip-path"><path class="cls-1" d="M875.86 232.28l150.26 305.01-35.95 17.37L845.4 246.99l30.46-14.71z"/></clipPath><pattern id="New_Pattern_Swatch_29" data-name="New Pattern Swatch 29" width="225.02" height="225.02" patternTransform="matrix(1 0 0 -1 -153.96 -126.98)" patternUnits="userSpaceOnUse"><path class="cls-1" d="M0 0h225.02v225.02H0z"/><path class="cls-1" d="M0 0h225.02v225.02H0z"/><path fill="#3869d9" d="M0 0h225.02v225.02H0z"/></pattern></defs><g id="レイヤー_2" data-name="レイヤー 2"><g id="レイヤー_1-2" data-name="レイヤー 1"><path class="cls-4" d="M264.08 533a91.49 91.49 0 0 0-9.65.54l-77.92 105.52a88.59 88.59 0 0 0 10.57 28.09l97.34-131.83a89.85 89.85 0 0 0-20.34-2.32zm-89.19 89.2c0 2.55.14 5.09.35 7.59L245.18 535a89.2 89.2 0 0 0-70.29 87.17zm116.27-85L190.85 673.06a89.51 89.51 0 0 0 17.49 18.71l105.85-143.39a88.69 88.69 0 0 0-23-11.2zm61.71 76.69l-70.6 95.63a89.23 89.23 0 0 0 71-87.32c0-2.83-.15-5.61-.4-8.34zm-12-37.12l-97.59 132.09a89 89 0 0 0 29.81 2l78.44-106.27a88.32 88.32 0 0 0-10.7-27.85zm-21.45-24.47L213.59 695.68A88.89 88.89 0 0 0 236.54 707L337 570.86a89.46 89.46 0 0 0-17.58-18.59zm240.63-302.69L428.77 380.86c.84 1.67 1.73 3.31 2.65 4.92L565 252.25q-2.44-1.39-4.95-2.64zm-30.46-9.43L419.35 350.43c.29 2.18.64 4.35 1.08 6.48l115.64-115.64c-2.13-.41-4.3-.8-6.48-1.09zm-43.83 3.95l-62.47 62.47a96.91 96.91 0 0 0-2.79 10.4l75.61-75.61a95.17 95.17 0 0 0-10.35 2.78zm97.73 21.93L445.22 404.33q1.84 1.95 3.79 3.78l138.27-138.25q-1.86-2-3.79-3.8zm-36.75 164l62.47-62.47a98.2 98.2 0 0 0 2.79-10.35l-75.58 75.62a99.56 99.56 0 0 0 10.32-2.81zm65.33-112.81L496.42 432.9c2.13.44 4.3.78 6.48 1.08l110.26-110.23c-.3-2.19-.65-4.35-1.09-6.5zm-11-28.88L467.53 421.9c1.61.93 3.25 1.82 4.92 2.65l131.28-131.27c-.84-1.66-1.73-3.31-2.65-4.91zM886 244.25l-91.2 91.2v7l98.2-98.21zm37 0L794.8 372.42v7L930 244.25zm-110.88 0l-17.28 17.28v7l24.29-24.29zm147.84 0L794.8 409.37v7l172.13-172.12zm-110.88 0l-54.24 54.24v7l61.25-61.25zm147.84 0L794.8 446.34v3.52h3.5l202.12-202.11v-3.5zM835.26 449.86l165.16-165.15v-7L828.25 449.86zm37 0l128.16-128.18v-7L865.21 449.86zm110.88 0l17.28-17.3v-7l-24.3 24.3zm-37 0l54.28-54.27v-7l-61.29 61.27zm-37 0l91.28-91.22v-7l-98.25 98.22zM465.51 102l50.74 50.74v-3.62L469.13 102zm-19.1 0l69.84 69.84v-3.62L450 102zm57.29 0l12.55 12.55v-3.65l-8.93-8.93zm-76.38 0l88.93 88.9v-3.62L430.94 102zm57.28 0l31.65 31.65V130l-28-28zm-74.6 0v1.81l104.42 104.38h1.81v-1.83L411.84 102zm89 106.19l-89-88.94v3.61l85.32 85.32zm-19.1 0L410 138.34V142l66.22 66.23zm-57.29 0L410 195.63v3.62l8.93 8.94zm19.1 0L410 176.54v3.62l28 28zm19.09 0L410 157.44v3.62l47.12 47.13z"/><circle class="cls-4" cx="110.36" cy="660.19" r="18.92" transform="rotate(-81.27 110.361 660.19)"/><circle cx="961.17" cy="528.45" r="18.92" transform="rotate(-35.78 961.256 528.465)" fill="url(#New_Pattern_Swatch_31)"/><path class="cls-4" d="M833.65 68.49V95h-26.54V68.49h26.54m3.49-3.49h-33.51v33.52h33.51V65z"/><rect class="cls-4" x="586.38" y="102.7" width="24.67" height="24.67" rx="6.53" transform="rotate(-45 598.718 115.033)"/><path fill="url(#New_Pattern_Swatch_31-3)" d="M1102.79 652.22v-25.55l18.73 12.08-18.73 13.47z"/><path class="cls-4" d="M280.78 263.45v-25.52L262.05 250l18.73 13.45zm-21.97 0v-25.52L240.09 250l18.72 13.45z"/><path class="cls-7" d="M794.42 163.44l34.14 70.68 21.18 15.35 27.31-13.7c-5.13-12.05 4.7-23.18 4.7-23.18s-24.12-70-25.74-73.35-11.32-.07-11.32-.07S830.25 159.61 814 154s-19.58 9.44-19.58 9.44z"/><path class="cls-8" d="M790.82 165.78L825 236.46l23 14.47 27.74-17c-5.13-12 2.45-19.05 2.45-19.05s-24.12-70-25.75-73.36-7.76-2.4-7.76-2.4-18 22.8-34.2 17.14-19.66 9.52-19.66 9.52z"/><path class="cls-4" d="M789.15 166l34.13 70.68 23.87 14 29.48-14.24c-5.12-12-.15-21.35-.15-21.35s-24.12-70-25.75-73.36-6.09-2.59-6.09-2.59-19.66 23-35.87 17.32-19.62 9.54-19.62 9.54z"/><path class="cls-9" d="M850.42 247.43l.89-.43 17.19-8.29s-19.33-35-27.48-27.83c-6.02 5.26 9.4 36.55 9.4 36.55z"/><path class="cls-7" d="M937.63 543.7c40.74 30.18 48.63 38.37 43.87 59.27a102.45 102.45 0 0 0-9.15 24.44 95.34 95.34 0 0 0 6.79 63.52c23.81 49.3 85.36 68.87 137.47 43.7s75-85.53 51.25-134.83c-13-26.86-37.14-44.87-64.88-51.65-9.61-5.06-20.75-10.68-31.48-31.66-18.89-36.94-12.32-73.7-35.79-74.12-6.9-.13-19 5.38-20 8.73-2.11 7.36 11.73 17.65-14.86 29.06a48.65 48.65 0 0 0-8.3 3.14s-39 12.41-65.08-8.85c-10.87-8.84-28.49-4.95-31.94 5.08-4.83 14.11 10.37 40.66 42.1 64.17z"/><path class="cls-8" d="M931.22 546.78C972 577 979.85 585.17 975.1 606.06a102.47 102.47 0 0 0-9.16 24.44 95.35 95.35 0 0 0 6.8 63.52c23.81 49.3 85.35 68.87 137.46 43.7s75.06-85.53 51.25-134.83c-13-26.85-37.14-44.87-64.88-51.65-9.61-5.06-20.74-10.68-31.47-31.66-18.9-36.93-12.33-73.7-35.8-74.12-6.89-.12-8.25 26.38-34.84 37.79a50.15 50.15 0 0 0-8.31 3.14s-39 12.41-65.08-8.85c-10.86-8.84-28.49-5-31.93 5.09-4.84 14.11 10.36 40.64 42.08 64.15z"/><path class="cls-4" d="M929 547.86c40.74 30.17 48.63 38.38 43.87 59.27a102.45 102.45 0 0 0-9.15 24.44 95.34 95.34 0 0 0 6.79 63.52c23.81 49.3 85.36 68.87 137.47 43.7s75-85.53 51.25-134.83c-13-26.85-37.14-44.87-64.88-51.65-9.61-5.06-20.75-10.68-31.48-31.66-18.89-36.93-12.32-73.7-35.79-74.12-22-.4 3.85 21.18-34.85 37.79a48.65 48.65 0 0 0-8.3 3.14s-39 12.41-65.08-8.85-44.23 29.03 10.15 69.25z"/><path d="M1021.33 465.53c-5.74 22.5-37.58 29.36-40.27 30.66a88.93 88.93 0 0 1-19.77 3.24c-1.22 23.42-2.45 85.51 44.94 124.93 50.25 41.78 81.24-1.1 89.8-45.87.29-3.23.48-6.44.54-9.58v-4.09c-1.39-.43-2.78-.83-4.19-1.19-9.68-5.26-20.94-11.23-31.92-32.73-19.34-37.85-13.17-75.24-36.67-75.94-3.73-.1-.94 9.5-2.46 10.57z"/><path fill="#726658" d="M1026.12 537.29L875.86 232.28l-30.46 14.71 144.77 307.67 35.95-17.37z"/><path d="M1083.63 632c25.79 43.56 20 48.93 25.93 65.83s19.35 8.22 19.35 8.22c33.06-24 29.18-63.15 29.18-63.15-8.59-61.75-54.1-75.64-54.1-75.64 10.79 40.52-20.36 64.74-20.36 64.74z"/><path class="cls-11" d="M1087.42 635.43a2.93 2.93 0 1 0 1.36-3.92 2.93 2.93 0 0 0-1.36 3.92zm-1-62.96a2.93 2.93 0 1 0 1.36-3.91 2.91 2.91 0 0 0-1.37 3.89zM1069.88 616a2.93 2.93 0 1 0 1.36-3.91 2.92 2.92 0 0 0-1.36 3.91zm-16.26-81.61a2.93 2.93 0 1 0 1.36-3.92 2.93 2.93 0 0 0-1.36 3.92zm-25.91-67.14a2.93 2.93 0 1 0 1.36-3.91 2.94 2.94 0 0 0-1.36 3.91zm-65.61 45.94a2.93 2.93 0 1 0 1.36-3.92 2.91 2.91 0 0 0-1.37 3.89zm44.79-20.87a2.93 2.93 0 1 0 1.37-3.92 2.93 2.93 0 0 0-1.37 3.92zm-28.39 90.82a2.93 2.93 0 1 0 1.37-3.91 2.92 2.92 0 0 0-1.37 3.91zm42.92 49.76a2.93 2.93 0 1 0 1.36-3.91 2.91 2.91 0 0 0-1.37 3.89z"/><rect class="cls-4" x="1032.66" y="609.38" width="50.96" height="81.59" rx="2.86" transform="rotate(-25.78 1058.15 650.186)"/><rect x="1028.31" y="617.85" width="39.93" height="22.28" rx="2.86" transform="rotate(-25.78 1048.287 628.983)"/><path d="M904.89 507c9.86 25.35 52.57 52.06 52.57 52.06-9.53-21.62-4.58-58.17-4.58-58.17s-19.66 3.31-27.85-6-27.61-7.15-20.14 12.11z"/><path class="cls-4" d="M922.33 520.86c2.49 5.15 7.17 8 10.45 6.44s3.94-7 1.46-12.19-7.17-8-10.45-6.44-3.94 7.09-1.46 12.19z"/><path d="M1038.3 664.62a4.71 4.71 0 0 0 6.27 2.19L1079.5 650a4.71 4.71 0 0 0-4.1-8.48l-34.91 16.86a4.71 4.71 0 0 0-2.19 6.24z" fill="#a7a9ac"/><path class="cls-13" d="M1048.14 685a4.72 4.72 0 0 0 6.29 2.2l34.91-16.86a4.71 4.71 0 1 0-4-8.54l-.12.06-34.91 16.86a4.69 4.69 0 0 0-2.19 6.27z"/><path class="cls-9" transform="rotate(-25.78 862.616 243.784)" d="M845.66 240.19h33.92v7.19h-33.92z"/><path class="cls-14" transform="rotate(-25.62 953.366 465.571)" d="M953.12 226.54h.48v478.08h-.48z"/><path class="cls-14" transform="rotate(-25.68 958.706 462.987)" d="M958.46 223.94h.48v478.08h-.48z"/><path class="cls-14" transform="rotate(-25.74 964.039 460.357)" d="M963.81 221.33h.48v478.08h-.48z"/><path class="cls-14" transform="rotate(-25.8 969.393 457.758)" d="M969.15 218.73h.48v478.08h-.48z"/><path class="cls-14" transform="rotate(-25.86 974.73 455.156)" d="M974.5 216.12h.48V694.2h-.48z"/><path class="cls-14" transform="rotate(-25.91 980.066 452.57)" d="M979.84 213.53h.48v478.08h-.48z"/><rect class="cls-4" x="975.08" y="514.23" width="50.96" height="33.48" rx="2.86" transform="rotate(-25.78 1000.567 530.965)"/><rect x="980.81" y="519.46" width="39.93" height="22.28" rx="2.86" transform="rotate(-25.78 1000.766 530.597)"/><g clip-path="url(#clip-path)"><path class="cls-16" transform="rotate(-25.78 993.589 515.642)" d="M973.98 514.85h39.2v1.58h-39.2z"/><path class="cls-16" transform="rotate(-25.78 990.476 509.25)" d="M970.88 508.46h39.2v1.58h-39.2z"/><path class="cls-16" transform="rotate(-25.78 986.307 500.64)" d="M966.71 499.85h39.2v1.58h-39.2z"/><path class="cls-16" transform="rotate(-25.78 981.842 491.317)" d="M962.25 490.54h39.2v1.58h-39.2z"/><path class="cls-16" transform="rotate(-25.77 975.088 477.519)" d="M955.49 476.73h39.2v1.58h-39.2z"/><path class="cls-16" transform="rotate(-25.78 966.722 460.128)" d="M947.13 459.33h39.2v1.58h-39.2z"/><path class="cls-16" transform="rotate(-25.78 957.537 440.988)" d="M937.93 440.2h39.2v1.58h-39.2z"/><path class="cls-16" transform="rotate(-25.77 944.248 413.651)" d="M924.65 412.86h39.2v1.58h-39.2z"/><path class="cls-16" transform="rotate(-25.77 930.871 385.957)" d="M911.27 385.16h39.2v1.58h-39.2z"/><path class="cls-16" transform="rotate(-25.77 917.504 358.219)" d="M897.9 357.44h39.2v1.58h-39.2z"/><path class="cls-16" transform="rotate(-25.78 904.105 330.35)" d="M884.5 329.57h39.2v1.58h-39.2z"/><path class="cls-16" transform="rotate(-25.78 890.726 302.71)" d="M871.13 301.92h39.2v1.58h-39.2z"/><path class="cls-16" transform="rotate(-25.78 877.356 275.024)" d="M857.75 274.22h39.2v1.58h-39.2z"/></g><path class="cls-11" d="M849.6 242.31a2.14 2.14 0 1 0 1-2.86 2.14 2.14 0 0 0-1 2.86zm10.58-5.13a2.14 2.14 0 1 0 1-2.85 2.14 2.14 0 0 0-1 2.85zm-16.54-20.05a2.14 2.14 0 1 0 1-2.86 2.12 2.12 0 0 0-1 2.83z"/><path class="cls-7" d="M818.92 217.05a6.24 6.24 0 1 0 2.9-8.34 6.25 6.25 0 0 0-2.9 8.34z"/><path class="cls-16" d="M818.92 217.05a4 4 0 1 0 1.87-5.34 4 4 0 0 0-1.87 5.34z"/><path class="cls-7" d="M809.76 198.08a6.25 6.25 0 1 0 2.93-8.33 6.24 6.24 0 0 0-2.93 8.33z"/><path class="cls-16" d="M809.76 198.08a4 4 0 1 0 1.89-5.33 4 4 0 0 0-1.89 5.33z"/><path class="cls-7" d="M800.67 179.25a6.25 6.25 0 1 0 2.93-8.33 6.24 6.24 0 0 0-2.93 8.33z"/><path class="cls-16" d="M800.67 179.25a4 4 0 1 0 1.89-5.33 4 4 0 0 0-1.89 5.33z"/><path class="cls-7" d="M849.71 202.18a6.25 6.25 0 1 0 2.94-8.34 6.25 6.25 0 0 0-2.94 8.34z"/><path class="cls-16" d="M849.71 202.18a4 4 0 1 0 1.87-5.34 4 4 0 0 0-1.87 5.34z"/><path class="cls-7" d="M840.56 183.22a6.25 6.25 0 1 0 2.92-8.35 6.23 6.23 0 0 0-2.92 8.32z"/><path class="cls-16" d="M840.56 183.22a4 4 0 1 0 1.86-5.36 4 4 0 0 0-1.86 5.36z"/><path class="cls-7" d="M831.47 164.39a6.24 6.24 0 1 0 2.9-8.34 6.25 6.25 0 0 0-2.9 8.34z"/><path class="cls-16" d="M831.47 164.39a4 4 0 1 0 1.87-5.34 4 4 0 0 0-1.87 5.34z"/><path class="cls-17" d="M1054.47 682.13a2.52 2.52 0 1 0 1.18-3.37 2.52 2.52 0 0 0-1.18 3.37zm5.53-2.68a2.52 2.52 0 1 0 1.18-3.37 2.53 2.53 0 0 0-1.18 3.37zm5.6-2.69a2.52 2.52 0 1 0 1.17-3.37 2.52 2.52 0 0 0-1.17 3.37zm5.56-2.69a2.52 2.52 0 1 0 1.18-3.37 2.53 2.53 0 0 0-1.18 3.37zm5.57-2.68a2.52 2.52 0 1 0 1.17-3.37 2.52 2.52 0 0 0-1.17 3.37zm5.56-2.69a2.52 2.52 0 1 0 1.17-3.37 2.52 2.52 0 0 0-1.17 3.37z"/><path class="cls-13" d="M1044.55 661.59a2.52 2.52 0 1 0 1.18-3.37 2.53 2.53 0 0 0-1.18 3.37zm5.57-2.69a2.52 2.52 0 1 0 1.17-3.37 2.52 2.52 0 0 0-1.17 3.37zm5.56-2.69a2.52 2.52 0 1 0 1.18-3.36 2.52 2.52 0 0 0-1.18 3.36zm5.57-2.69a2.52 2.52 0 1 0 1.18-3.36 2.5 2.5 0 0 0-1.18 3.34zm5.56-2.66a2.52 2.52 0 1 0 1.17-3.37 2.52 2.52 0 0 0-1.17 3.37zm5.61-2.71a2.52 2.52 0 1 0 1.18-3.36 2.51 2.51 0 0 0-1.18 3.36zm-42.81-17.5a2.52 2.52 0 1 0 1.18-3.37 2.53 2.53 0 0 0-1.18 3.37zm5.57-2.65a2.52 2.52 0 1 0 1.17-3.37 2.52 2.52 0 0 0-1.17 3.37zm5.56-2.73a2.52 2.52 0 1 0 1.18-3.36 2.52 2.52 0 0 0-1.18 3.36zm5.56-2.68a2.52 2.52 0 1 0 1.18-3.37 2.53 2.53 0 0 0-1.18 3.37zm5.57-2.69a2.52 2.52 0 1 0 1.17-3.37 2.52 2.52 0 0 0-1.17 3.37zm5.55-2.69a2.52 2.52 0 1 0 1.18-3.36 2.52 2.52 0 0 0-1.18 3.36zm-21.78 25.93a2.52 2.52 0 1 0 1.17-3.37 2.52 2.52 0 0 0-1.17 3.37zm5.56-2.69a2.52 2.52 0 1 0 1.18-3.37 2.53 2.53 0 0 0-1.18 3.37zm5.57-2.69a2.52 2.52 0 1 0 1.17-3.37 2.52 2.52 0 0 0-1.17 3.37zm5.56-2.69a2.52 2.52 0 1 0 1.18-3.37 2.53 2.53 0 0 0-1.18 3.37zm5.57-2.68a2.52 2.52 0 1 0 1.18-3.37 2.5 2.5 0 0 0-1.18 3.34zm5.52-2.69a2.52 2.52 0 1 0 1.17-3.37 2.52 2.52 0 0 0-1.17 3.37zm-81.32-97.43a2.52 2.52 0 1 0 1.18-3.37 2.53 2.53 0 0 0-1.18 3.37zm5.57-2.69a2.52 2.52 0 1 0 1.18-3.36 2.52 2.52 0 0 0-1.18 3.35zm5.56-2.72a2.52 2.52 0 1 0 1.18-3.37 2.53 2.53 0 0 0-1.18 3.37zm5.57-2.65a2.52 2.52 0 1 0 1.17-3.37 2.52 2.52 0 0 0-1.17 3.37zm5.56-2.69a2.52 2.52 0 1 0 1.17-3.37 2.52 2.52 0 0 0-1.17 3.37zm5.56-2.66a2.52 2.52 0 1 0 1.18-3.37 2.53 2.53 0 0 0-1.18 3.37zm-21.79 25.9a2.52 2.52 0 1 0 1.18-3.37 2.52 2.52 0 0 0-1.18 3.37zm5.57-2.69a2.52 2.52 0 1 0 1.18-3.37 2.49 2.49 0 0 0-1.17 3.34zm5.56-2.68a2.52 2.52 0 1 0 1.17-3.37 2.52 2.52 0 0 0-1.17 3.37zm5.57-2.69a2.52 2.52 0 1 0 1.17-3.37 2.52 2.52 0 0 0-1.17 3.37zm5.59-2.7a2.52 2.52 0 1 0 1.18-3.37 2.5 2.5 0 0 0-1.18 3.34zm5.58-2.68a2.52 2.52 0 1 0 1.18-3.37 2.53 2.53 0 0 0-1.18 3.37z"/><path class="cls-17" d="M847.9 251a2.32 2.32 0 1 0 1.08-3.1 2.32 2.32 0 0 0-1.08 3.1zm5.1-2.5a2.32 2.32 0 1 0 1.08-3.1 2.32 2.32 0 0 0-1.08 3.1zm5.14-2.5a2.32 2.32 0 1 0 1.09-3.1 2.3 2.3 0 0 0-1.08 3.08zm5.12-2.44a2.32 2.32 0 1 0 1.08-3.1 2.32 2.32 0 0 0-1.08 3.1zm5.16-2.47a2.32 2.32 0 1 0 1.08-3.1 2.32 2.32 0 0 0-1.08 3.1zm5.09-2.48a2.31 2.31 0 1 0 1.07-3.09 2.29 2.29 0 0 0-1.08 3.06z"/><path class="cls-18" d="M281.31 473.56c-60.2 0-68.19-35.37-68.26-35.73l-10.3-35.64 1.1-.31 10.3 35.68c.09.39 7.94 34.86 67.16 34.86 46.18 0 89-63.53 102.13-109.4l4.11-8.32c0-.11 6.38-17.17 26-16.79 5.12.1 9 2.33 11.09 6.45 5.55 10.69-.4 32.71-14.47 53.53L391 426.22l-.94-.64 19.21-28.33c13.62-20.17 19.68-42.19 14.4-52.36-2-3.78-5.36-5.75-10.1-5.84h-.64c-18.32 0-24.26 15.94-24.31 16.1l-4.1 8.28c-13.23 46.12-56.47 110.13-103.21 110.13z"/><path class="cls-19" d="M389.42 361a1 1 0 0 1-1.25.55l-6-2.43a1 1 0 0 1-.54-1.25 1 1 0 0 1 1.25-.53l6 2.41a1 1 0 0 1 .54 1.25z"/><path class="cls-20" d="M381.6 358.08a1 1 0 0 0 .58 1l6 2.42a1 1 0 0 0 1.12-.34z"/><path class="cls-19" d="M388.71 362.77a1 1 0 0 1-1.25.53l-6-2.44a1 1 0 0 1-.53-1.25 1 1 0 0 1 1.25-.53l6 2.42a1 1 0 0 1 .53 1.25z"/><path class="cls-20" d="M380.88 359.86a1 1 0 0 0 .58 1l6 2.42a.94.94 0 0 0 1.12-.34z"/><path class="cls-19" d="M388 364.55a1 1 0 0 1-1.25.53l-6-2.41a1 1 0 0 1-.53-1.25 1 1 0 0 1 1.21-.56l6 2.42a1 1 0 0 1 .53 1.25z"/><path class="cls-20" d="M380.17 361.64a1 1 0 0 0 .57 1l6 2.41a.94.94 0 0 0 1.12-.34z"/><path class="cls-19" d="M387.27 366.33a1 1 0 0 1-1.25.53l-6-2.42a1 1 0 0 1-.53-1.25 1 1 0 0 1 1.25-.52l6 2.41a1 1 0 0 1 .53 1.25z"/><path class="cls-20" d="M379.42 363.43a1 1 0 0 0 .57 1l6 2.41a1 1 0 0 0 1.12-.33z"/><path class="cls-19" d="M386.55 368.11a1 1 0 0 1-1.25.54l-6-2.43a1 1 0 0 1-.53-1.25 1 1 0 0 1 1.25-.53l6 2.42a1 1 0 0 1 .53 1.25z"/><path class="cls-20" d="M378.73 365.21a1 1 0 0 0 .57 1l6 2.42a1 1 0 0 0 1.13-.34z"/><path class="cls-19" d="M385.84 369.86a1 1 0 0 1-1.25.53l-6-2.43a1 1 0 0 1-.54-1.25 1 1 0 0 1 1.25-.53l6 2.43a1 1 0 0 1 .54 1.25z"/><path class="cls-20" d="M378 367a1 1 0 0 0 .58 1l6 2.42a.94.94 0 0 0 1.12-.34z"/><path class="cls-19" d="M385.12 371.68a1 1 0 0 1-1.25.53l-6-2.41a1 1 0 0 1-.53-1.25 1 1 0 0 1 1.25-.55l6 2.43a1 1 0 0 1 .53 1.25z"/><path class="cls-20" d="M377.3 368.77a1 1 0 0 0 .57 1l6 2.41a.94.94 0 0 0 1.12-.34z"/><path class="cls-19" d="M384.42 373.46a1 1 0 0 1-1.25.53l-6-2.41a1 1 0 0 1-.53-1.25 1 1 0 0 1 1.25-.53l6 2.41a1 1 0 0 1 .53 1.25z"/><path class="cls-20" d="M376.58 370.55a1 1 0 0 0 .57 1l6 2.41a.94.94 0 0 0 1.12-.34z"/><path class="cls-19" d="M383.68 375.24a1 1 0 0 1-1.25.54l-6-2.42a1 1 0 0 1-.53-1.25 1 1 0 0 1 1.25-.53l6 2.41a1 1 0 0 1 .53 1.25z"/><path class="cls-20" d="M375.86 372.34a1 1 0 0 0 .57 1l6 2.42a1 1 0 0 0 1.13-.34z"/><path class="cls-19" d="M383 377a1 1 0 0 1-1.25.53l-6-2.42a1 1 0 0 1-.53-1.25 1 1 0 0 1 1.24-.53l6 2.42A1 1 0 0 1 383 377z"/><path class="cls-20" d="M375.14 374.12a1 1 0 0 0 .58 1l6 2.42a.94.94 0 0 0 1.12-.34z"/><path class="cls-19" d="M382.25 378.86a1 1 0 0 1-1.25.53l-6-2.39a1 1 0 0 1-.53-1.25 1 1 0 0 1 1.25-.54l6 2.43a1 1 0 0 1 .53 1.22z"/><path class="cls-20" d="M374.42 375.86a1 1 0 0 0 .58 1l6 2.41a.94.94 0 0 0 1.12-.34z"/><path class="cls-19" d="M381.53 380.59a1 1 0 0 1-1.25.53l-6-2.41a1 1 0 0 1-.53-1.25 1 1 0 0 1 1.25-.53l6 2.41a1 1 0 0 1 .53 1.25z"/><path class="cls-20" d="M373.71 377.68a.93.93 0 0 0 .57 1l6 2.41a.92.92 0 0 0 1.12-.34z"/><path class="cls-19" d="M380.81 382.37a1 1 0 0 1-1.25.54l-6-2.42a1 1 0 0 1-.53-1.25 1 1 0 0 1 1.25-.53l6 2.41a1 1 0 0 1 .53 1.25z"/><path class="cls-20" d="M373 379.46a1 1 0 0 0 .57 1l6 2.43a1 1 0 0 0 1.13-.34z"/><path class="cls-19" d="M380.1 384.15a1 1 0 0 1-1.25.53l-6-2.42a1 1 0 0 1-.54-1.25 1 1 0 0 1 1.25-.53l6 2.42a1 1 0 0 1 .54 1.25z"/><path class="cls-20" d="M372.27 381.25a1 1 0 0 0 .58 1l6 2.42a1 1 0 0 0 1.12-.34z"/><path class="cls-19" d="M379.42 385.93a1 1 0 0 1-1.25.53l-6-2.42a1 1 0 0 1-.53-1.24 1 1 0 0 1 1.25-.54l6 2.42a1 1 0 0 1 .53 1.25z"/><path class="cls-20" d="M371.55 383a1 1 0 0 0 .58 1l6 2.42a.94.94 0 0 0 1.12-.34z"/><path class="cls-19" d="M378.66 387.71a1 1 0 0 1-1.25.53l-6-2.38a1 1 0 0 1-.53-1.25 1 1 0 0 1 1.25-.55l6 2.43a1 1 0 0 1 .53 1.25z"/><path class="cls-20" d="M370.84 384.86a1 1 0 0 0 .57 1l6 2.41a1 1 0 0 0 1.13-.34z"/><path class="cls-19" d="M377.94 389.5a1 1 0 0 1-1.25.54l-6-2.42a1 1 0 0 1-.53-1.25 1 1 0 0 1 1.26-.51l6 2.41a1 1 0 0 1 .53 1.25z"/><path class="cls-20" d="M370.12 386.59a1 1 0 0 0 .57 1l6 2.43a1 1 0 0 0 1.13-.34z"/><path class="cls-19" d="M377.23 391.28a1 1 0 0 1-1.25.53l-6-2.42a1 1 0 0 1-.53-1.25 1 1 0 0 1 1.24-.53l6 2.42a1 1 0 0 1 .54 1.25z"/><path class="cls-20" d="M369.42 388.37a.94.94 0 0 0 .58 1l6 2.43a1 1 0 0 0 1.12-.34z"/><path class="cls-19" d="M376.51 393.06a1 1 0 0 1-1.25.53l-6-2.41a1 1 0 0 1-.53-1.25 1 1 0 0 1 1.25-.54l6 2.42a1 1 0 0 1 .53 1.25z"/><path class="cls-20" d="M368.69 390.15a.93.93 0 0 0 .57 1l6 2.41a.92.92 0 0 0 1.12-.34z"/><path class="cls-19" d="M375.79 394.86a1 1 0 0 1-1.25.53l-6-2.42a1 1 0 0 1-.53-1.25 1 1 0 0 1 1.25-.53l6 2.42a1 1 0 0 1 .53 1.25z"/><path class="cls-20" d="M368 391.93a1 1 0 0 0 .57 1l6 2.41a.92.92 0 0 0 1.12-.34z"/><path class="cls-19" d="M375.07 396.62a1 1 0 0 1-1.25.55l-6-2.43a1 1 0 0 1-.53-1.25 1 1 0 0 1 1.25-.53l6 2.41a1 1 0 0 1 .53 1.25z"/><path class="cls-20" d="M367.25 393.72a1 1 0 0 0 .57 1l6 2.43a1 1 0 0 0 1.13-.34z"/><path class="cls-19" d="M374.36 398.42a1 1 0 0 1-1.25.52l-6-2.42a1 1 0 0 1-.54-1.25 1 1 0 0 1 1.25-.53l6 2.43a1 1 0 0 1 .54 1.25z"/><path class="cls-20" d="M366.53 395.5a.94.94 0 0 0 .58 1l6 2.43a1 1 0 0 0 1.12-.34z"/><path class="cls-16" d="M397.3 415.92l-.04-.04-.4-.26-.04-.02-2.71-1.79-9.29 14.14-1.42 6.54-2.36 3.57.73.49.4.26.74.49 2.36-3.59 5.44-3.88 9.29-14.14-2.7-1.77z"/><path class="cls-21" d="M384.89 427.85l-.07.1-1.41 6.44 1.93 1.28 5.37-3.84.07-.09-5.89-3.89z"/><path class="cls-22" d="M394.11 413.86l5.89 3.89a1.42 1.42 0 0 0-.17-1.77l-4-2.64a1.37 1.37 0 0 0-1.72.52z"/><path class="cls-17" d="M381.04 438.06l.11 1.82 1.76-.58-1.87-1.24z"/><path style="isolation:isolate" opacity=".2" fill="#58595b" d="M396.41 415.32l-8.85 14.3-3.15 5.44-2.44 3.62-.82 1.2 1.27-.92 2.4-3.64 4.02-4.87 9.16-14.07-1.59-1.06z"/><path d="M316.42 345.56h565.66a16.83 16.83 0 0 1 16.82 16.82v369.83H299.64V362.4a16.83 16.83 0 0 1 16.78-16.84z"/><rect x="317.16" y="358.27" width="564.23" height="362.69" rx="13.32" fill="#ec5252"/><path d="M246.42 732.21h690.89v9.65a9.63 9.63 0 0 1-9.63 9.63H256a9.64 9.64 0 0 1-9.59-9.63v-9.64z" fill="#f2f2f2"/><path d="M620.94 744.2h-64a2.08 2.08 0 0 1-2.08-2.08 2.09 2.09 0 0 1 2.08-2.09h64a2.08 2.08 0 0 1 2.08 2.08 2.08 2.08 0 0 1-2.08 2.08z" fill="#b3b3b3"/><path d="M539.42 732.21H898.9V362.4a16.82 16.82 0 0 0-16.82-16.83h-206.6z" style="isolation:isolate" opacity=".15" fill="#fff"/><path stroke-miterlimit="10" stroke="#fff" stroke-width="2" fill="none" d="M335.87 394.81h519.75"/><path class="cls-4" d="M820.42 373.4a3.82 3.82 0 1 1-3.81 3.82 3.82 3.82 0 0 1 3.81-3.81m0-1a4.82 4.82 0 1 0 4.82 4.81 4.81 4.81 0 0 0-4.81-4.81zm14 .99a3.82 3.82 0 1 1-3.81 3.82 3.82 3.82 0 0 1 3.81-3.81m0-1a4.82 4.82 0 0 0 0 9.63 4.82 4.82 0 0 0 .44-9.63zm14 9.59a4.81 4.81 0 0 1-4.81-4.81 4.81 4.81 0 0 1 4.81-4.81 4.81 4.81 0 0 1 4.81 4.81 4.81 4.81 0 0 1-4.8 4.82zM517.67 606.53a33.37 33.37 0 1 1-33.36 33.36 33.39 33.39 0 0 1 33.36-33.36m0-9.25a42.61 42.61 0 1 0 42.61 42.61 42.59 42.59 0 0 0-42.59-42.61zm131.52-25.73a33.36 33.36 0 1 1-33.36 33.36 33.39 33.39 0 0 1 33.36-33.35m0-9.25a42.62 42.62 0 1 0 42.61 42.63 42.61 42.61 0 0 0-42.61-42.64z"/><path class="cls-4" d="M560.42 639.89h-9.25V498.26l140.76-71.66v180.42h-9.25V441.69l-122.26 62.25v135.95z"/><rect class="cls-16" x="896.34" y="597.07" width="103.5" height="154.42" rx="10.08"/><rect class="cls-7" x="888.6" y="597.07" width="103.5" height="154.42" rx="10.08"/><rect class="cls-19" x="887.08" y="597.07" width="103.5" height="154.42" rx="10.08"/><path d="M899.42 694.32l-11.84 11.85a.88.88 0 0 0 0 1.25.89.89 0 0 0 1.25 0l11.84-11.85a.88.88 0 0 0 0-1.25.89.89 0 0 0-1.25 0zm-9.29 0l-3 3v2.54l4.29-4.29a.88.88 0 0 0 0-1.25.88.88 0 0 0-1.25 0zm0-17.73l-3 3v2.5l4.34-4.23a.88.88 0 0 0 0-1.25.86.86 0 0 0-1.21-.09zm18.5 17.73l-11.84 11.85a.88.88 0 0 0 0 1.25.89.89 0 0 0 1.25 0l11.84-11.85a.88.88 0 0 0 0-1.25.89.89 0 0 0-1.25 0zm27.79 0l-11.84 11.85a.88.88 0 0 0 0 1.25.89.89 0 0 0 1.25 0l11.84-11.85a.88.88 0 0 0 0-1.25.89.89 0 0 0-1.25 0zm-9.28 0l-11.84 11.85a.89.89 0 0 0 0 1.25.88.88 0 0 0 1.24 0l11.88-11.85a.87.87 0 0 0 0-1.24.88.88 0 0 0-1.25 0zm-9.26 0l-11.83 11.85a.87.87 0 0 0 0 1.24.88.88 0 0 0 1.25 0l11.84-11.85a.87.87 0 0 0 0-1.24.89.89 0 0 0-1.26 0zm-27.75-35.46l-3 3v2.48l4.29-4.28a.87.87 0 0 0-.11-1.24.87.87 0 0 0-1.13 0zm0-17.73l-3 3v2.5l4.29-4.29a.88.88 0 0 0 0-1.25.88.88 0 0 0-1.25 0zm46.29 0L924.58 653a.88.88 0 0 0 0 1.25.89.89 0 0 0 1.25 0l11.84-11.84a.88.88 0 0 0-1.25-1.25zm9.22 0L933.8 653a.88.88 0 0 0 0 1.25.89.89 0 0 0 1.25 0l11.84-11.84a.88.88 0 0 0-1.25-1.25zm9.26 0L943.06 653a.87.87 0 0 0 0 1.24.89.89 0 0 0 1.25 0l11.83-11.84a.88.88 0 0 0 0-1.25.86.86 0 0 0-1.24 0zm-55.48 0L887.58 653a.88.88 0 0 0 0 1.25.89.89 0 0 0 1.25 0l11.84-11.84a.88.88 0 0 0-1.25-1.25zm18.46 0L906.05 653a.87.87 0 0 0 0 1.24.88.88 0 0 0 1.25 0l11.84-11.84a.88.88 0 0 0 0-1.25.88.88 0 0 0-1.26-.02zm-9.25 0L896.79 653a.88.88 0 0 0 0 1.25.89.89 0 0 0 1.25 0l11.84-11.84a.88.88 0 0 0-1.25-1.25zm18.51 0L915.3 653a.89.89 0 0 0 0 1.25.88.88 0 0 0 1.24 0l11.88-11.84a.88.88 0 0 0 0-1.25.88.88 0 0 0-1.25 0zm62.18-4.66a.87.87 0 0 0 1.24 0V634l-1.27 1.26a.89.89 0 0 0 .03 1.21zm0 17.74a.88.88 0 0 0 1.25 0v-2.5L989.3 653a.89.89 0 0 0 .02 1.21zm-9.25-17.74a.87.87 0 0 0 1.24 0l9.27-9.27v-2.49l-10.52 10.51a.88.88 0 0 0 0 1.25zm-34.43 57.85l-11.84 11.85a.88.88 0 0 0 0 1.25.89.89 0 0 0 1.25 0l11.84-11.85a.88.88 0 0 0 0-1.25.89.89 0 0 0-1.25 0zM989.32 672a.88.88 0 0 0 1.24 0v-2.49l-1.27 1.26a.9.9 0 0 0 .03 1.23zm-25.17-48.61l-11.84 11.83a.89.89 0 0 0 0 1.25.87.87 0 0 0 1.24 0l11.86-11.83a.88.88 0 0 0 0-1.25.87.87 0 0 0-1.24 0zm9.27 0l-11.84 11.83a.89.89 0 0 0 0 1.25.87.87 0 0 0 1.24 0l11.84-11.84a.87.87 0 0 0 0-1.24.88.88 0 0 0-1.24 0zm9.23 0l-11.83 11.83a.88.88 0 0 0 0 1.25.86.86 0 0 0 1.22 0l11.84-11.84a.85.85 0 0 0 0-1.21.88.88 0 0 0-1.24 0zm6.67 66.29a.88.88 0 0 0 1.24 0v-2.5l-1.27 1.27a.88.88 0 0 0 .03 1.23zm-34.42 4.64l-11.84 11.85a.87.87 0 0 0 0 1.24.89.89 0 0 0 1.25 0l11.83-11.85a.86.86 0 0 0 0-1.24.87.87 0 0 0-1.24 0zm18.52 0l-11.84 11.85a.88.88 0 0 0 0 1.25.89.89 0 0 0 1.25 0l11.84-11.85a.88.88 0 0 0 0-1.25.89.89 0 0 0-1.25 0zm-9.27 0l-11.84 11.85a.88.88 0 0 0 0 1.25.89.89 0 0 0 1.25 0l11.86-11.85a.88.88 0 0 0 0-1.25.89.89 0 0 0-1.25 0zm18.5 0l-11.83 11.85a.87.87 0 0 0 0 1.24.88.88 0 0 0 1.25 0l11.84-11.85a.87.87 0 0 0 0-1.24.89.89 0 0 0-1.26 0zm6.67 13.1a.89.89 0 0 0 1.25 0v-2.49l-1.27 1.26a.9.9 0 0 0 .02 1.23zm-9.25 0a.89.89 0 0 0 1.25 0l9.27-9.28v-2.5l-10.52 10.53a.87.87 0 0 0 0 1.24zm-43.65-30.83l-11.84 11.85a.88.88 0 0 0 0 1.24.89.89 0 0 0 1.25 0l11.81-11.82a.89.89 0 0 0 0-1.25.88.88 0 0 0-1.22-.02zm-27.79-17.73l-11.84 11.83a.89.89 0 0 0 0 1.25.88.88 0 0 0 1.24 0l11.84-11.85a.88.88 0 1 0-1.25-1.23zm74.02 17.73l-11.83 11.85a.88.88 0 0 0 .11 1.24.89.89 0 0 0 1.13 0l11.84-11.82a.88.88 0 0 0-1.25-1.25zm-2.58 13.09a.88.88 0 0 0 1.24 0l9.27-9.28v-2.48l-10.52 10.52a.85.85 0 0 0 0 1.21zm-80.65-30.82l-11.84 11.83a.89.89 0 0 0 0 1.25.88.88 0 0 0 1.24 0l11.84-11.85a.88.88 0 0 0-1.25-1.23zm74 0l-11.84 11.83a.89.89 0 0 0 0 1.25.88.88 0 0 0 1.24 0l11.84-11.85a.88.88 0 0 0-1.25-1.23zm-27.78 0l-11.84 11.83a.89.89 0 0 0 0 1.25.88.88 0 0 0 1.24 0l11.84-11.85a.88.88 0 0 0-1.25-1.23zm-9.22 0l-11.84 11.83a.89.89 0 0 0 0 1.25.88.88 0 0 0 1.24 0l11.84-11.85a.88.88 0 0 0-1.25-1.23zm18.48 0l-11.84 11.83a.88.88 0 0 0 0 1.25.89.89 0 0 0 1.25 0l11.83-11.85a.88.88 0 0 0-1.24-1.23zM980.07 672a.88.88 0 0 0 1.24 0l9.27-9.27v-2.49l-10.51 10.46a.87.87 0 0 0 0 1.24zm2.58 75.53l-3.94 3.94h2.53l2.66-2.65a.87.87 0 0 0 0-1.22.87.87 0 0 0-1.24-.05zm-92.52 0l-.52.53a10.38 10.38 0 0 0 1.27 1.21l.49-.5a.88.88 0 0 0-.11-1.24.89.89 0 0 0-1.13 0zm9.29 0l-3.81 3.8a8.54 8.54 0 0 0 1.59.14h.8l2.7-2.7a.88.88 0 0 0 0-1.24.89.89 0 0 0-1.25 0zm80.65-93.32a.88.88 0 0 0 1.25 0l9.27-9.27v-2.5L980.07 653a.88.88 0 0 0 0 1.25zm0-36.71a.87.87 0 0 0 0 1.24.89.89 0 0 0 1.25 0l9.27-9.28V607zm-89.94-11.85l-3 3v2.5l4.29-4.28a.88.88 0 0 0 0-1.25.88.88 0 0 0-1.25 0zm83.29 35.48L961.58 653a.88.88 0 0 0 0 1.25.89.89 0 0 0 1.25 0l11.84-11.84a.88.88 0 0 0-1.25-1.25zm-46.28 17.73l-11.84 11.83a.89.89 0 0 0 0 1.25.87.87 0 0 0 1.22 0l11.88-11.83a.87.87 0 0 0-.11-1.24.87.87 0 0 0-1.13 0zm27.76 17.73l-11.84 11.85a.85.85 0 0 0 0 1.21.88.88 0 0 0 1.24 0l11.83-11.82a.88.88 0 0 0 0-1.25.86.86 0 0 0-1.22 0zm-9.26 0l-11.84 11.85a.88.88 0 0 0 0 1.24.89.89 0 0 0 1.25 0l11.84-11.82a.89.89 0 0 0 0-1.25.87.87 0 0 0-1.24 0zm27.78 0l-11.84 11.85a.88.88 0 0 0 0 1.24.89.89 0 0 0 1.25 0l11.82-11.82a.89.89 0 0 0 0-1.25.88.88 0 0 0-1.23-.02zm-9.27-35.46L952.31 653a.88.88 0 0 0 0 1.25.89.89 0 0 0 1.25 0l11.86-11.84a.88.88 0 0 0-1.25-1.25zm18.5 0L970.82 653a.87.87 0 0 0 0 1.24.88.88 0 0 0 1.25 0l11.84-11.84a.88.88 0 0 0 0-1.25.88.88 0 0 0-1.26-.02zm0 17.73l-11.83 11.83a.87.87 0 0 0 0 1.24.87.87 0 0 0 1.22 0l11.84-11.85a.85.85 0 0 0 0-1.21.87.87 0 0 0-1.24 0zm-18.5 17.73l-11.84 11.85a.88.88 0 0 0 0 1.24.89.89 0 0 0 1.25 0l11.86-11.82a.89.89 0 0 0 0-1.25.87.87 0 0 0-1.24 0zm-64.73 0l-11.84 11.85a.88.88 0 0 0 0 1.24.89.89 0 0 0 1.25 0l11.8-11.82a.89.89 0 0 0 0-1.25.88.88 0 0 0-1.21-.02zm9.21 0l-11.84 11.85a.88.88 0 0 0 0 1.24.89.89 0 0 0 1.25 0l11.84-11.82a.89.89 0 0 0 0-1.25.87.87 0 0 0-1.24 0zm9.25-17.73l-11.83 11.83a.87.87 0 0 0 0 1.24.87.87 0 0 0 1.22 0l11.84-11.85a.85.85 0 0 0 0-1.21.87.87 0 0 0-1.24 0zm9.26 17.73l-11.84 11.85a.88.88 0 0 0 0 1.24.87.87 0 0 0 1.22 0l11.88-11.82a.88.88 0 0 0 0-1.25.86.86 0 0 0-1.21-.08zm27.76-53.2l-11.84 11.83a.88.88 0 0 0 1.25 1.25l11.83-11.84a.88.88 0 0 0-.11-1.24.89.89 0 0 0-1.13 0zm-37.02 53.2l-11.83 11.85a.88.88 0 0 0 .11 1.24.89.89 0 0 0 1.13 0l11.84-11.82a.88.88 0 0 0-1.25-1.25zm46.27-17.73l-11.84 11.83a.89.89 0 0 0 0 1.25.88.88 0 0 0 1.24 0l11.86-11.83a.88.88 0 0 0 0-1.25.87.87 0 0 0-1.24 0zm18.5 70.94l-11.83 11.84a.87.87 0 0 0 0 1.24.88.88 0 0 0 1.25 0l11.84-11.84a.88.88 0 0 0 0-1.25.88.88 0 0 0-1.26.01zm-2.58 13.06a.89.89 0 0 0 1.25 0l9.27-9.28v-2.5l-10.52 10.53a.87.87 0 0 0 0 1.24zm-6.65-13.06l-11.84 11.84a.88.88 0 0 0 0 1.25.89.89 0 0 0 1.25 0l11.84-11.84a.88.88 0 0 0-1.25-1.25zm-9.27 0l-11.84 11.84a.88.88 0 0 0 0 1.25.89.89 0 0 0 1.25 0l11.86-11.84a.88.88 0 0 0-1.25-1.25zm25.17 13.06a.89.89 0 0 0 1.13.07 10.26 10.26 0 0 0 .14-1.55v-1l-1.27 1.26a.9.9 0 0 0 0 1.22zm-18.5-143.1a.87.87 0 0 0 .11 1.24.87.87 0 0 0 1.13 0l4-3.94h-2.5zM890.13 729.8l-3 3v2.5l4.29-4.29a.88.88 0 0 0 0-1.25.88.88 0 0 0-1.25 0zm46.29 0l-11.84 11.84a.88.88 0 0 0 0 1.25.89.89 0 0 0 1.25 0l11.84-11.84a.88.88 0 0 0-1.25-1.25zm-27.79 0l-11.84 11.84a.88.88 0 0 0 0 1.25.89.89 0 0 0 1.25 0l11.84-11.84a.88.88 0 0 0-1.25-1.25zm46.27 0l-11.84 11.84a.87.87 0 0 0 0 1.24.89.89 0 0 0 1.25 0l11.83-11.84a.88.88 0 0 0 0-1.25.86.86 0 0 0-1.24 0zm-37.02 0l-11.83 11.84a.87.87 0 0 0 0 1.24.88.88 0 0 0 1.25 0l11.84-11.84a.88.88 0 0 0 0-1.25.88.88 0 0 0-1.26.01zm-18.46 0l-11.84 11.84a.88.88 0 0 0 0 1.25.89.89 0 0 0 1.25 0l11.84-11.84a.88.88 0 0 0-1.25-1.25zm46.22 0l-11.84 11.84a.88.88 0 0 0 0 1.25.89.89 0 0 0 1.25 0l11.84-11.84a.88.88 0 0 0-1.25-1.25zm-18.5 0l-11.84 11.84a.89.89 0 0 0 0 1.25.88.88 0 0 0 1.24 0l11.88-11.84a.88.88 0 0 0 0-1.25.88.88 0 0 0-1.25 0zm34.42-130.04a.88.88 0 0 0 0 1.25.87.87 0 0 0 1.24 0l4-3.94h-2.5zm18.51 0a.87.87 0 0 0 0 1.22.87.87 0 0 0 1.24 0l3.1-3.14a9.12 9.12 0 0 0-1.9-.6zm-34.43 147.77l-3.94 3.94h2.49l2.7-2.7a.87.87 0 0 0 0-1.24.88.88 0 0 0-1.24 0zm-9.22 0l-4 3.94h2.5l2.7-2.7a.88.88 0 0 0 0-1.24.89.89 0 0 0-1.25 0zm-18.54 0l-3.94 3.94h2.48l2.7-2.7a.85.85 0 0 0 0-1.21.88.88 0 0 0-1.24-.03zm9.26 0l-4 3.94h2.5l2.69-2.7a.88.88 0 0 0-.11-1.24.89.89 0 0 0-1.13 0zm46.28 0l-3.94 3.94H972l2.7-2.7a.87.87 0 0 0 0-1.24.88.88 0 0 0-1.24 0zm-9.27 0l-4 3.94h2.5l2.7-2.7a.87.87 0 0 0 0-1.24.88.88 0 0 0-1.24 0zm-11.84-147.77a.88.88 0 0 0 0 1.25.87.87 0 0 0 1.24 0l3.94-3.94H955zm2.59 147.77l-4 3.94h2.52l2.7-2.7a.88.88 0 0 0-.11-1.24.89.89 0 0 0-1.13 0zm-21.1-147.77a.88.88 0 0 0 0 1.25.87.87 0 0 0 1.24 0l4-3.94h-2.5zm-25.17 147.77l-4 3.94h2.5l2.7-2.7a.88.88 0 0 0 0-1.24.89.89 0 0 0-1.25 0zm34.43-147.77a.87.87 0 0 0 0 1.22.87.87 0 0 0 1.24 0l3.94-3.94h-2.49zm-18.51 0a.88.88 0 0 0 0 1.25.87.87 0 0 0 1.24 0l4-3.94h-2.5zm-27.76 0a.89.89 0 0 0 0 1.25.88.88 0 0 0 1.25 0l4-3.94h-2.5zm9.26 0a.87.87 0 0 0 .11 1.24.87.87 0 0 0 1.13 0l4-3.94h-2.49zm9.25 0a.88.88 0 0 0 0 1.24.86.86 0 0 0 1.22 0l4-3.94h-2.49zm11.84 5.89L915.3 617.5a.89.89 0 0 0 0 1.25.88.88 0 0 0 1.24 0l11.88-11.85a.87.87 0 0 0 0-1.24.88.88 0 0 0-1.25 0zm-9.26 106.42l-11.83 11.84a.88.88 0 0 0 .11 1.24.89.89 0 0 0 1.13 0l11.84-11.84a.87.87 0 0 0 0-1.22.87.87 0 0 0-1.24 0zm-9.25 0l-11.84 11.84a.88.88 0 0 0 0 1.24.89.89 0 0 0 1.25 0l11.84-11.84a.89.89 0 0 0 0-1.25.88.88 0 0 0-1.25.01zm18.51 0l-11.84 11.84a.88.88 0 0 0 0 1.24.87.87 0 0 0 1.22 0l11.88-11.84a.87.87 0 0 0-.11-1.24.87.87 0 0 0-1.13 0zm27.76 0l-11.84 11.84a.85.85 0 0 0 0 1.21.88.88 0 0 0 1.24 0l11.83-11.84a.87.87 0 0 0-.11-1.24.87.87 0 0 0-1.12.03zm-55.48-106.42l-11.84 11.85a.88.88 0 0 0 0 1.25.89.89 0 0 0 1.25 0l11.84-11.85a.88.88 0 0 0 0-1.25.89.89 0 0 0-1.25 0zm64.73 106.42l-11.84 11.84a.88.88 0 0 0 0 1.24.89.89 0 0 0 1.25 0l11.86-11.84a.88.88 0 0 0 0-1.25.87.87 0 0 0-1.24 0zm-18.51 0l-11.84 11.84a.88.88 0 0 0 0 1.24.89.89 0 0 0 1.25 0l11.84-11.84a.88.88 0 0 0 0-1.25.87.87 0 0 0-1.25.01zm-46.22 0l-11.84 11.84a.88.88 0 0 0 0 1.24.89.89 0 0 0 1.25 0l11.84-11.84a.88.88 0 0 0 0-1.25.87.87 0 0 0-1.25.01zm27.72-88.68l-11.84 11.83a.89.89 0 0 0 0 1.25.86.86 0 0 0 1.22 0l11.88-11.83a.87.87 0 0 0-.11-1.24.87.87 0 0 0-1.13 0zm-9.26 0l-11.83 11.83a.88.88 0 0 0 0 1.25.86.86 0 0 0 1.22 0l11.84-11.84a.85.85 0 0 0 0-1.21.88.88 0 0 0-1.24 0zm18.54 0l-11.84 11.83a.89.89 0 0 0 0 1.25.87.87 0 0 0 1.24 0l11.84-11.84a.87.87 0 0 0 0-1.24.88.88 0 0 0-1.24 0zm-37 0l-11.84 11.83a.89.89 0 0 0 0 1.25.87.87 0 0 0 1.24 0l11.84-11.84a.87.87 0 0 0 0-1.24.88.88 0 0 0-1.24 0zm-9.29 0l-3 3v2.49l4.29-4.29a.88.88 0 0 0-1.24-1.23zm0 88.68l-3 3v2.49l4.29-4.29a.87.87 0 0 0-.11-1.24.87.87 0 0 0-1.13 0zm18.5-88.68l-11.84 11.83a.89.89 0 0 0 0 1.25.87.87 0 0 0 1.24 0l11.84-11.84a.88.88 0 0 0 0-1.24.89.89 0 0 0-1.25 0zm27.79 88.68l-11.84 11.84a.88.88 0 0 0 0 1.24.89.89 0 0 0 1.25 0l11.84-11.84a.88.88 0 0 0 0-1.25.87.87 0 0 0-1.25.01zm9.22-106.42L933.8 617.5a.88.88 0 0 0 0 1.25.89.89 0 0 0 1.25 0l11.84-11.85a.88.88 0 0 0 0-1.25.89.89 0 0 0-1.25 0zm-9.22 0l-11.84 11.85a.88.88 0 0 0 0 1.25.89.89 0 0 0 1.25 0l11.84-11.85a.88.88 0 0 0 0-1.25.89.89 0 0 0-1.25 0zm18.48 0l-11.84 11.85a.87.87 0 0 0 0 1.24.89.89 0 0 0 1.25 0l11.83-11.85a.86.86 0 0 0 0-1.24.87.87 0 0 0-1.24 0zm-37.02 0l-11.83 11.85a.87.87 0 0 0 0 1.24.88.88 0 0 0 1.25 0l11.84-11.85a.87.87 0 0 0 0-1.24.89.89 0 0 0-1.26 0zm-9.25 0l-11.84 11.85a.88.88 0 0 0 0 1.25.89.89 0 0 0 1.25 0l11.84-11.85a.88.88 0 0 0 0-1.25.89.89 0 0 0-1.25 0zm37.01 17.74l-11.84 11.83a.89.89 0 0 0 0 1.25.87.87 0 0 0 1.24 0l11.84-11.84a.87.87 0 0 0 0-1.24.88.88 0 0 0-1.24 0zm18.51-17.74l-11.84 11.85a.88.88 0 0 0 0 1.25.89.89 0 0 0 1.25 0l11.86-11.85a.88.88 0 0 0 0-1.25.89.89 0 0 0-1.25 0zm18.5 106.42l-11.83 11.84a.88.88 0 0 0 .11 1.24.89.89 0 0 0 1.13 0l11.84-11.84a.87.87 0 0 0 0-1.22.87.87 0 0 0-1.24 0zm6.67 13.07a.87.87 0 0 0 1.24 0v-2.5l-1.27 1.28a.87.87 0 0 0 .03 1.22zm-9.25 0a.87.87 0 0 0 1.24 0l9.27-9.27v-2.49l-10.51 10.52a.87.87 0 0 0 0 1.22zm-6.65-119.49l-11.84 11.85a.88.88 0 0 0 0 1.25.89.89 0 0 0 1.25 0l11.84-11.85a.88.88 0 0 0 0-1.25.89.89 0 0 0-1.25 0zm0 106.42l-11.84 11.84a.88.88 0 0 0 0 1.24.89.89 0 0 0 1.25 0l11.84-11.84a.88.88 0 0 0 0-1.25.87.87 0 0 0-1.25.01zm9.23-106.42l-11.83 11.85a.87.87 0 0 0 0 1.24.88.88 0 0 0 1.25 0l11.83-11.84a.87.87 0 0 0 0-1.24.89.89 0 0 0-1.25-.01zm6.67 13.1a.89.89 0 0 0 1.25 0v-2.49l-1.27 1.26a.9.9 0 0 0 .02 1.23z" fill="#00786e"/><path class="cls-30" d="M960.29 597.07h11.1v154.42h-11.1z"/><rect class="cls-31" x="806.25" y="579.27" width="103.63" height="188.35" rx="8.38"/><path class="cls-32" d="M811.19 593.62h93.73v155.76h-93.73z"/><path fill="#666" d="M811.19 593.62h93.73v6.55h-93.73z"/><path fill="#fc6b4c" d="M822.2 610.95h72.03v72.03H822.2z"/><path class="cls-32" d="M850.32 635.28v24.32l23.6-12.63-23.6-11.69z"/><path class="cls-35" d="M822.2 692.14h18.21v18.21H822.2z"/><path class="cls-36" d="M848.46 692.14h45.78v3.23h-45.78zm0 7.03h45.78v3.23h-45.78zm0 7.02h45.78v3.23h-45.78z"/><path class="cls-35" d="M822.2 717.89h18.21v18.21H822.2z"/><path class="cls-36" d="M848.46 717.89h45.78v3.23h-45.78zm0 7.03h45.78v3.23h-45.78zm0 7.02h45.78v3.23h-45.78z"/><path class="cls-32" d="M828.21 697.77v7.37l7.16-3.82-7.16-3.55zm0 25.55v7.36l7.16-3.82-7.16-3.54z"/><path class="cls-22" d="M874.35 761.76h-32.58a3.26 3.26 0 0 1-3.26-3.24 3.25 3.25 0 0 1 3.26-3.26h32.58a3.25 3.25 0 0 1 3.26 3.26 3.26 3.26 0 0 1-3.25 3.25z"/><circle class="cls-22" cx="858.06" cy="586.12" r="1.63"/><path class="cls-4" d="M277.19 74.69a22.55 22.55 0 0 1 13.52 40.61l-34.62 25.89-34.67-25.89a22.54 22.54 0 1 1 31.18-32l1.6 2 1.85 2.33 1.84-2.33 1.6-2a22.38 22.38 0 0 1 17.66-8.56m0-2.35a24.63 24.63 0 0 0-19.5 9.46l-1.6 2-1.61-2a24.89 24.89 0 1 0-39.05 30.87 25.24 25.24 0 0 0 4.62 4.5l36 26.94 36-26.94a24.9 24.9 0 0 0 6.3-33 24.74 24.74 0 0 0-21.23-11.86zm687.57 64.19l10 20.36.55 1.1 1.22.18 21.75 3.16-15.87 12.48-1.1.86.24 1.38 4.49 25.76-23.84-12-1.24-.64-1.14.79-16.09 11 3.7-21.59.21-1.21-.88-.87-16.28-15.85 22.47-3.27 1.22-.18.55-1.1 10-20.36m0-5.31l-12.09 24.59-27.15 4L945.08 179l-4.66 27.06 20.66-14.17L989 206.08l-5.21-30.36 20.23-15.86-27.17-4-12.16-24.64z"/><path class="cls-4" transform="rotate(-35.79 961.142 167.653)" d="M942.08 166.47h38.13v2.35h-38.13z"/><path class="cls-4" transform="rotate(-35.79 972.864 182.4)" d="M958.3 181.23h29.13v2.35H958.3z"/><path class="cls-4" d="M163.65 415.94v56H74.9v-56h88.75m2.35-2.35H72.55v60.71H166v-60.71z"/><path class="cls-4" d="M110.42 435.68l15.14 8.32-15.14 8.26v-16.58m-2.35-3.95v24.43l22.4-12.16zm-29.33 33.63h81.08v2.35H78.74zm510.8-281.28v49.57h-10.9v-49.57h10.9m2.35-2.35H576.3V236h15.59v-54.26z"/><path class="cls-4" d="M576.42 186.78V231c-10.1-2-17.43-11-17.43-22.08s7.33-20.12 17.43-22.09m2.35-2.67c-12.85.94-22.13 11.66-22.13 24.76s9.28 23.81 22.13 24.75v-49.56z"/><path class="cls-4" d="M572.35 208.07a4 4 0 1 1-4-4 4 4 0 0 1 4 4zm47.5-23.99v49.57H609v-49.57h10.9m2.35-2.35H606.6V236h15.6v-54.26z"/><path class="cls-4" d="M622.14 186.78c10.1 2 17.44 11 17.44 22.09S632.24 229 622.14 231v-44.22m-2.35-2.67v49.51c12.85-.94 22.13-11.66 22.13-24.75s-9.28-23.82-22.13-24.76z"/><path class="cls-4" d="M626.19 208.07a4 4 0 1 0 4-4 4 4 0 0 0-4 4zm-60.69-16.35h-2.35v-11.59a35.57 35.57 0 1 1 71.14 0v10.44h-2.35v-10.44a33.22 33.22 0 0 0-66.44 0z"/><path class="cls-4" d="M625.31 160.22a33.21 33.21 0 0 0-46.5-6.68 32.78 32.78 0 0 0-6.68 6.68l-1.88-1.36a35.56 35.56 0 0 1 56.94 0zm516.03 314.21v53.31l-33.19-12.41-.32-.12h-9.09a6.64 6.64 0 0 1-6.63-6.63v-12.19a6.63 6.63 0 0 1 6.63-6.63h9.17l.37-.18 33.06-15.15m1.89-2.94l-35.74 16.37h-8.75a8.51 8.51 0 0 0-8.52 8.51v12.19a8.54 8.54 0 0 0 8.52 8.52h8.75l35.74 13.35v-59z"/><rect class="cls-9" x="139.48" y="507.72" width="105.11" height="216.23" rx="20.79"/><path class="cls-9" d="M197.23 720.9h-10.39s.42 22.72-22.76 22.72h-4.66v5.47h65.19v-5.47H220c-23.19.01-22.77-22.72-22.77-22.72z"/><path class="cls-13" d="M157 516.11a8.64 8.64 0 1 0 8.63 8.64 8.63 8.63 0 0 0-8.63-8.64z"/><path class="cls-37" d="M157 518.18a6.57 6.57 0 1 0 6.57 6.57 6.57 6.57 0 0 0-6.57-6.57z"/><path class="cls-13" d="M224.63 516.11a8.64 8.64 0 1 0 8.64 8.64 8.64 8.64 0 0 0-8.64-8.64z"/><path class="cls-37" d="M224.63 518.18a6.57 6.57 0 1 0 6.57 6.57 6.57 6.57 0 0 0-6.57-6.57z"/><path class="cls-13" d="M157 696.67a8.64 8.64 0 1 0 8.63 8.64 8.63 8.63 0 0 0-8.63-8.63z"/><path class="cls-37" d="M157 698.72a6.58 6.58 0 1 0 6.57 6.59 6.59 6.59 0 0 0-6.57-6.59z"/><path class="cls-13" d="M224.63 696.67a8.64 8.64 0 1 0 8.64 8.63 8.63 8.63 0 0 0-8.63-8.63z"/><path class="cls-37" d="M224.63 698.72a6.58 6.58 0 1 0 6.57 6.59 6.58 6.58 0 0 0-6.57-6.58z"/><path d="M139.48 608.95h105.11v3.44H139.48z"/><path fill="#332f30" d="M139.48 612.39h105.11v3.44H139.48z"/><path d="M191.42 533.4A34.58 34.58 0 1 0 226 568a34.57 34.57 0 0 0-34.57-34.57z"/><path class="cls-13" d="M191.42 535.32A32.66 32.66 0 1 0 224.07 568a32.65 32.65 0 0 0-32.65-32.65z"/><path class="cls-22" d="M191.42 545.33A22.65 22.65 0 1 0 214.06 568a22.66 22.66 0 0 0-22.64-22.67z"/><path class="cls-9" d="M191.42 554.86A13.16 13.16 0 1 0 204.57 568a13.15 13.15 0 0 0-13.15-13.14z"/><path class="cls-13" d="M191.42 561.38A6.61 6.61 0 1 0 198 568a6.6 6.6 0 0 0-6.58-6.62z"/><path class="cls-17" d="M186.34 567.68a4.79 4.79 0 0 0 1.23 3.19l6.94-6.54a4.77 4.77 0 0 0-8.17 3.35z"/><path d="M191.42 627.52A34.58 34.58 0 1 0 226 662.09a34.57 34.57 0 0 0-34.57-34.57z"/><path class="cls-13" d="M191.42 629.44a32.66 32.66 0 1 0 32.65 32.67 32.65 32.65 0 0 0-32.65-32.67z"/><path class="cls-22" d="M191.42 639.45a22.65 22.65 0 1 0 22.64 22.66 22.64 22.64 0 0 0-22.64-22.66z"/><path class="cls-9" d="M191.42 648.94a13.16 13.16 0 1 0 13.15 13.17 13.15 13.15 0 0 0-13.15-13.17z"/><path class="cls-13" d="M191.42 655.49a6.61 6.61 0 1 0 6.6 6.62 6.6 6.6 0 0 0-6.6-6.62z"/><path class="cls-17" d="M186.34 661.78a4.75 4.75 0 0 0 1.23 3.19l6.94-6.53a4.77 4.77 0 0 0-8.17 3.34z"/><path class="cls-13" d="M159.44 748.47h65.19v3.31h-65.19z"/><path class="cls-18" d="M197.21 375.69h-.05l-.47.13-.05.01-3.13.82 2.73 10.41 3.9 5.44 1.08 4.13.86-.21.46-.12.86-.24-1.09-4.13.75-6.64-2.72-10.42-3.13.82z"/><path class="cls-30" transform="rotate(-14 208.22 399.506)" d="M200.72 394.84h3.14v2.77h-3.14z"/><path class="cls-30" d="M196.21 386.94l.03.12 3.85 5.37 2.23-.6.74-6.54-.03-.12-6.82 1.77z"/><path class="cls-11" d="M348.65 292.69l2.85.55-2.85-.55z"/><path class="cls-30" d="M261.09 186.05h-3.52c-34.84 1.48-60.57 12.51-76.57 32.78-24.78 31.42-17 73.2-16.65 75l5.7-1.11c-.08-.41-7.63-40.92 15.51-70.26 14.9-18.9 39.19-29.19 72.24-30.6h3.14c33 1.42 57.32 11.69 72.21 30.54 23.13 29.28 15.62 69.87 15.54 70.3l2.85.55 2.85.56c.34-1.76 8.13-43.55-16.65-75-16.03-20.25-41.81-31.28-76.65-32.76z"/><path class="cls-37" d="M261.09 186.05h-3.52c-34.84 1.48-60.57 12.51-76.57 32.78-12 15.17-16.38 32.79-17.66 47.17h5.92c1.27-13.43 5.36-29.71 16.26-43.53 14.9-18.87 39.19-29.16 72.24-30.57h3.14c33 1.42 57.32 11.69 72.21 30.54 10.91 13.81 15 30.13 16.27 43.57h5.94c-1.32-14.38-5.64-32.01-17.62-47.17-15.99-20.28-41.77-31.31-76.61-32.79z"/><path class="cls-18" d="M261.25 182.18h-3.83c-31.84 1.36-56.54 10.58-73.39 27.41-11.12 11.1-18.61 25.2-22.32 42a6.78 6.78 0 0 0 5.16 8.09l.44.09a6.8 6.8 0 0 0 7.64-5.3c6-26.73 25.69-56.25 82.91-58.74h3c56.19 2.44 76.1 31 82.48 57a6.82 6.82 0 0 0 7.74 5.14 6.79 6.79 0 0 0 5.54-7.85l-.09-.43c-4-16.4-11.64-30.15-22.83-40.93-16.87-16.25-41.23-25.16-72.45-26.48z"/><path class="cls-18" d="M261.25 182.18h-3.83c-31.84 1.36-56.54 10.58-73.39 27.41-11.12 11.1-18.61 25.2-22.32 42a6.78 6.78 0 0 0 5.16 8.09l.44.09a6.8 6.8 0 0 0 7.64-5.3c6-26.73 25.69-56.25 82.91-58.74h3c56.19 2.44 76.1 31 82.48 57a6.82 6.82 0 0 0 7.74 5.14 6.79 6.79 0 0 0 5.54-7.85l-.09-.43c-4-16.4-11.64-30.15-22.83-40.93-16.87-16.25-41.23-25.16-72.45-26.48z"/><path class="cls-30" d="M261.14 187h-3.57c-30.58 1.32-54.17 10.06-70.14 26-10.45 10.44-17.5 23.75-21 39.63a1.94 1.94 0 0 0 1.5 2.29h.11a1.94 1.94 0 0 0 2.18-1.5c6.31-28.48 27.08-60 87.43-62.57H261c59.26 2.57 80.25 33.07 87 60.71a1.93 1.93 0 0 0 2.21 1.45 1.93 1.93 0 0 0 1.59-2.22v-.13c-3.76-15.51-11-28.47-21.49-38.6-15.89-15.31-39.21-23.75-69.17-25.06zm-90.9 119.89l15.67 30.29 8.39-5.11-15.66-30.27-8.4 5.09z"/><path class="cls-19" d="M170.58 341.32l8.46 32.48 22.15 2.21-12.69-48.7-17.92 14.01z"/><path class="cls-18" transform="rotate(-14.6 184.904 354.945)" d="M174.45 346.55h20.88v16.78h-20.88z"/><path class="cls-22" d="M225.11 321.31c-3.69-14.14-16.94-7.54-16.94-7.54l16.52 67.93c15.84-1.23 12.56-13.78 12.56-13.78s-8.46-32.46-12.14-46.61z"/><path class="cls-9" d="M215 315.4l-6.15 1.6a2.42 2.42 0 0 0 1.22 4.68l6.15-1.6a2.42 2.42 0 0 0-1.22-4.68zm2.15 8.13l-6.15 1.6a2.41 2.41 0 0 0 1.22 4.67l6.14-1.6a2.41 2.41 0 0 0-1.21-4.67zm2.11 8.11l-6.14 1.6a2.42 2.42 0 0 0 1.21 4.68l6.15-1.61a2.42 2.42 0 0 0-1-4.72l-.18.05zm2.16 8.11l-6.15 1.61a2.42 2.42 0 0 0 1 4.72l.18-.05 6.15-1.6a2.42 2.42 0 1 0-1.22-4.68zm2.07 8.11l-6.15 1.6a2.41 2.41 0 0 0 1.22 4.67l6.15-1.6a2.41 2.41 0 1 0-1.22-4.67zm2.12 8.14l-6.15 1.6a2.41 2.41 0 0 0 1.22 4.67l6.15-1.6a2.41 2.41 0 1 0-1.22-4.67zm2.11 8.11l-6.15 1.6a2.42 2.42 0 0 0 1.22 4.68l6.15-1.61a2.41 2.41 0 0 0-1.22-4.67zm2.12 8.11l-6.15 1.61a2.42 2.42 0 1 0 1 4.72l.18-.05 6.14-1.6a2.42 2.42 0 0 0-1.21-4.68z"/><path class="cls-30" transform="rotate(-14 197.492 355.9)" d="M184.77 324.53h15.88v58.87h-15.88z"/><path class="cls-19" transform="rotate(-14.6 208.972 349.776)" d="M200.06 313.92h17.81v71.69h-17.81z"/><path class="cls-18" d="M187.17 322.19l15.92 61.1 6.31 3.39-18.07-69.38-4.16 4.89z"/><path class="cls-17" d="M168.61 288.86A15.08 15.08 0 1 0 187 299.65a15.06 15.06 0 0 0-18.4-10.79z"/><path class="cls-39" d="M169.55 292.46a11.36 11.36 0 1 0 13.87 8.13 11.36 11.36 0 0 0-13.87-8.13z"/><path class="cls-21" d="M178.42 289.62l-6 13.83 15.07.48a15 15 0 0 0-9.07-14.31zm-8.13 28.77a15.56 15.56 0 0 0 4.31 0 15 15 0 0 0 10.91-7.47l-13.09-7.46z"/><path class="cls-40" d="M157.35 304a15 15 0 0 0 6.23 11.67l8.84-12.21-14.61-3.74a14.72 14.72 0 0 0-.46 4.28z"/><path class="cls-9" d="M170.57 296.4a7.54 7.54 0 1 0 9.2 5.39 7.53 7.53 0 0 0-9.2-5.39z"/><path class="cls-30" d="M328.25 332.07l8.39 5.11 15.67-30.29-8.39-5.09-15.67 30.27z"/><path class="cls-19" d="M321.36 376.01l22.16-2.21 8.46-32.48-17.93-14.01-12.69 48.7z"/><path class="cls-18" transform="rotate(-75.55 337.689 353.186)" d="M329.3 342.73h16.81v20.92H329.3z"/><path class="cls-22" d="M297.42 321.31c-3.68 14.15-12.14 46.62-12.14 46.62s-3.27 12.54 12.56 13.78l16.58-67.93s-13.29-6.6-17 7.53z"/><path class="cls-9" d="M313.67 317l-6.15-1.6a2.42 2.42 0 0 0-1.22 4.68l6.15 1.6a2.42 2.42 0 0 0 1.22-4.68zm-2.12 8.12l-6.15-1.6a2.41 2.41 0 0 0-1.21 4.67l6.14 1.61a2.42 2.42 0 0 0 1.22-4.68zm-2.13 8.13l-6.15-1.61a2.4 2.4 0 0 0-2.88 1.84 2.43 2.43 0 0 0 1.66 2.84l6.15 1.6a2.41 2.41 0 1 0 1.22-4.67zm-2.1 8.11l-6.14-1.61a2.42 2.42 0 0 0-1.23 4.68l6.16 1.6a2.41 2.41 0 0 0 1.21-4.67zm-2.11 8.11l-6.15-1.6a2.42 2.42 0 0 0-1.22 4.68l6.15 1.6a2.42 2.42 0 0 0 1.22-4.68zm-2.12 8.12l-6.15-1.6a2.42 2.42 0 0 0-1.21 4.68l6.14 1.6a2.42 2.42 0 0 0 1.22-4.68zm-2.09 8.12l-6.15-1.6a2.42 2.42 0 1 0-1.4 4.63h.18l6.15 1.61a2.42 2.42 0 0 0 1.22-4.68zm-2.14 8.15l-6.15-1.61a2.42 2.42 0 0 0-1.21 4.68l6.15 1.6a2.41 2.41 0 0 0 1.21-4.67z"/><path class="cls-30" transform="rotate(-75.4 329.884 354.001)" d="M300.45 346.06h58.87v15.89h-58.87z"/><path class="cls-19" transform="rotate(-75.55 313.677 348.085)" d="M277.78 339.16h71.81v17.85h-71.81z"/><path class="cls-18" d="M313.15 386.68l6.31-3.39 15.93-61.1-4.16-4.89-18.08 69.38z"/><path class="cls-17" d="M353.94 288.86a15.08 15.08 0 1 0 10.79 18.39 15.07 15.07 0 0 0-10.79-18.39z"/><path class="cls-39" d="M353 292.46a11.36 11.36 0 1 0 8.14 13.86 11.37 11.37 0 0 0-8.14-13.86z"/><path class="cls-21" d="M335.54 299.65a15.08 15.08 0 0 0-.47 4.28l15.07-.48-6-13.83a15.1 15.1 0 0 0-8.6 10.03z"/><path class="cls-21" d="M337 310.9a15 15 0 0 0 15.22 7.47l-2.13-14.93z"/><path class="cls-40" d="M350.13 303.46l8.87 12.21a15 15 0 0 0 6.2-11.67 14.82 14.82 0 0 0-.46-4.29z"/><path class="cls-9" d="M352 296.4a7.54 7.54 0 1 0 5.39 9.2 7.54 7.54 0 0 0-5.39-9.2z"/><path class="cls-18" d="M210.37 417.13l-3.89 1.11-4.32-15.55 3.88-1.12 4.33 15.56z"/><path d="M700 90.37a5.92 5.92 0 0 1-5.91 5.91 5.91 5.91 0 0 1-5.91-5.9V75.52a5.89 5.89 0 0 1 5.89-5.91 5.91 5.91 0 0 1 5.93 5.91z"/><path class="cls-9" d="M688.26 83.72h11.77v190.16h-11.77z"/><path class="cls-22" d="M695.3 83.72h3.33v190.16h-3.33z"/><path fill="#21b4e8" d="M688.21 81.76h11.82v1.95h-11.82z"/><path d="M688.26 273.86l5.45 21.83 6.29-21.83s-4.64-2.68-11.74 0z" fill="#c2b59b"/><path class="cls-9" d="M691.69 287.62l2 8.1 2.26-7.81a5.24 5.24 0 0 0-4.26-.29z"/><path class="cls-17" d="M730.72 174.17h12.79l-.8-2 7.4-23.89s-12.26-8.31-12.3-17.4h-.44l.06 16.78a3.05 3.05 0 1 1-.78 0l-.08-16.8h-.45c0 9.08-12.17 17.47-12.17 17.47l7.56 23.84z"/><path d="M737.36 130.79h-.01l.06 16.78h.01l-.06-16.78zm-.55 43.35h.7l-.09-19.14v-1.42a2.73 2.73 0 0 1-.5.06 3 3 0 1 1-.31-6.08l-.05-13.5c-1.17 4.64-3.8 14.67-9 16.67l6 23.42z" fill="#d1d3d4"/><path class="cls-8" d="M737 155.07h.4v-1.44a4 4 0 0 1-.5.05 3 3 0 0 1-.31-6.08v-1.43a4.48 4.48 0 0 0 .42 8.94zm.42-8.94v1.45z"/><path class="cls-9" d="M730.91 298.34c5.71 7.52 8.55 7.52 14.22 0 1.79-2.4 3.15-6.78 3-8.58-1.9-38.39-2-76.6-.39-115 .09-1.8-20.49-1.73-20.38.07 1.89 38.38 2 76.59.39 115a18.17 18.17 0 0 0 3.16 8.51z"/><path class="cls-22" d="M738 303l-.44-129.63c-2 0-2.53-.69-5 .17 1.11 45.67 1.23 81.5.43 127.17 2.06 1.88 3.06 2.29 5.01 2.29z"/><path class="cls-4" d="M1100.19 259c0-6.22-3.8-11.26-8.5-11.26s-8.5 5-8.5 11.26a12.32 12.32 0 0 0 4.13 9.63l-3.09 162a7.46 7.46 0 0 0 14.92 0l-3.26-161.8a12.57 12.57 0 0 0 4.3-9.83z"/><path d="M256.09 54.61v-27A26.66 26.66 0 0 1 282.75.93h289.84a26.68 26.68 0 0 1 26.68 26.68v55.07m407.82 91.57h74.18a26.7 26.7 0 0 1 26.73 26.69v27.74M956.42 114.5v-6.06a26.69 26.69 0 0 0-26.69-26.69h-72.5M190.42 102h-45.65a26.68 26.68 0 0 0-26.69 26.69v271.17" stroke="#fce8f9" stroke-width="1.85" stroke-dasharray="3.7 5.54" stroke-miterlimit="10" fill="none"/><path class="cls-37" d="M93.8 751.49h-1.15a11 11 0 0 0 1.15 0zM75.2 718h-18s3.74 33.54-16.46 33.54h51.92c-4.05-.3-17.46-3.4-17.46-33.54z"/><path class="cls-31" d="M62.42 597.52a62.42 62.42 0 1 0 62.42 62.42 62.41 62.41 0 0 0-62.4-62.42z"/><path class="cls-22" d="M54.42 618.61A39.43 39.43 0 1 0 93.85 658a39.42 39.42 0 0 0-39.43-39.39z"/><path class="cls-9" d="M49.42 635.74A22.3 22.3 0 1 0 71.72 658a22.29 22.29 0 0 0-22.3-22.26z"/><path class="cls-37" d="M40.73 635.74a13.63 13.63 0 1 0 13.63 13.63 13.63 13.63 0 0 0-13.63-13.63z"/><path class="cls-17" d="M38.42 642.22a5.7 5.7 0 1 0 5.68 5.71 5.68 5.68 0 0 0-5.67-5.7z"/></g></g></svg>