<svg xmlns="http://www.w3.org/2000/svg" viewBox="0 0 24 24"><path d="M12 0C5.4 0 0 5.4 0 12s5.4 12 12 12 12-5.4 12-12S18.6 0 12 0zm7 11.7C19 8.5 15.9 6 12 6s-7 2.5-7 5.7c0 2.8 2.5 5.2 5.9 5.6.2 0 .5.1.6.3.1.2 0 .5 0 .6l-.1.6c0 .2-.1.7.6.4.7-.3 4-2.4 5.5-4.1 1-1 1.5-2.2 1.5-3.4zm-9.6 1.8H7.3v-3.2c0-.1.1-.1.1-.1h.5c.1 0 .1.1.1.1v2.4h1.3c.1 0 .1.1.1.1v.5c.1.1.1.2 0 .2zm7.3 0h-2.1v-3.3h2.1c.1 0 .1.1.1.1v.5c0 .1-.1.1-.1.1h-1.3v.5h1.3c.1 0 .1.1.1.1v.5c0 .1-.1.1-.1.1h-1.3v.5h1.3c.1 0 .1.1.1.1v.5c0 .2-.1.3-.1.3zm-6.1 0h-.5c-.1 0-.1-.1-.1-.1v-3.1c0-.1.1-.1.1-.1h.5c.1 0 .1.1.1.1v3.1s0 .1-.1.1zm1.2 0h-.5c-.1 0-.1-.1-.1-.1v-3.1c0-.1.1-.1.1-.1h.5l1.4 1.9v-1.8c0-.1.1-.1.1-.1h.7c.1 0 .1.1.1.1v3.1c0 .1-.1.1-.1.1h-.5l-1.5-2v1.8c0 .1-.1.2-.2.2z" fill-rule="evenodd" clip-rule="evenodd" fill="#fff"/></svg>