<svg xmlns="http://www.w3.org/2000/svg" viewBox="0 0 732.47 193.78"><defs><style>.cls-1{fill:#fff}</style></defs><g id="レイヤー_2" data-name="レイヤー 2"><g id="レイヤー_1-2" data-name="レイヤー 1"><path class="cls-1" d="M64.61 96.87a32.3 32.3 0 1 0 64.6 0V24.31a79.65 79.65 0 0 1 41.86 44.09l13.31-13.3a97 97 0 0 0-72.65-54v67.07a32.3 32.3 0 0 0-47.12 28.7zm47.12 0a14.82 14.82 0 1 1-14.82-14.81 14.82 14.82 0 0 1 14.82 14.81z"/><path class="cls-1" d="M190.92 73.27l-15 15a77.92 77.92 0 0 1 .46 8.55A79.42 79.42 0 1 1 94.25 17.5V0a96.83 96.83 0 1 0 96.67 73.27zm131.99-17.88v19.8h-38.4v14.52h34.92v19.8h-34.92v29.88h-22.2v-84zm21.48 84v-84h35.4c17 0 34.44 6.12 34.44 28.32 0 13.92-6.84 21.48-16.08 25.2l23.16 30.48h-25.08l-20-27.36h-9.6v27.36zM366.59 94h14.16c6.36 0 10.68-3.24 10.68-9.72s-4.32-9.72-10.68-9.72h-14.16zm67.32 45.39l33-84h24l33 84h-22.8l-4.8-13.2h-34.8l-4.8 13.2zm34.2-31.2h21.6L481.07 84a42.06 42.06 0 0 1-2.16-8.52 42.06 42.06 0 0 1-2.16 8.52zm166.56-52.8v84h-22.2V94.75l-18 27.6h-12.72l-18-27.72v44.76h-22.2v-84h21l25.56 39.36 25.56-39.36zm97.8 0v52c0 25.32-19.2 33.84-37.8 33.84s-37.8-8.52-37.8-33.84v-52h22.2v50.76c0 11.28 6.12 15.24 15.6 15.24s15.6-4 15.6-15.24V55.39z"/></g></g></svg>