<svg xmlns="http://www.w3.org/2000/svg" xmlns:xlink="http://www.w3.org/1999/xlink" viewBox="0 0 628.3 389.28"><defs><linearGradient id="e" x1="337.4" y1="295.78" x2="527.9" y2="295.78" gradientUnits="userSpaceOnUse"><stop offset="0" stop-color="#fff"/><stop offset=".99" stop-color="#666"/></linearGradient><linearGradient id="g" x1="114.37" y1="286.21" x2="388.76" y2="286.21" gradientUnits="userSpaceOnUse"><stop offset="0" stop-color="#666"/><stop offset="1" stop-color="#fff"/></linearGradient><linearGradient id="h" x1="195.8" y1="108.4" x2="427.34" y2="108.4" gradientUnits="userSpaceOnUse"><stop offset="0" stop-color="#ff6a7a"/><stop offset="1" stop-color="#ff3f45"/></linearGradient><linearGradient id="l" x1="199.16" y1="107.64" x2="427.34" y2="107.64" gradientUnits="userSpaceOnUse"><stop offset="0" stop-color="#ff3f45"/><stop offset="1" stop-color="#ff6a7a"/></linearGradient><linearGradient id="a" x1="214.12" y1="119.03" x2="403.31" y2="119.03" gradientUnits="userSpaceOnUse"><stop offset="0" stop-color="#ffbfc8"/><stop offset="1" stop-color="#ffd4d5"/></linearGradient><linearGradient id="o" x1="214.12" y1="59.62" x2="247.03" y2="59.62" xlink:href="#a"/><linearGradient id="p" x1="253.22" y1="54.13" x2="302.29" y2="54.13" xlink:href="#a"/><linearGradient id="q" x1="253.22" y1="66.88" x2="302.29" y2="66.88" xlink:href="#a"/><linearGradient id="b" x1="352.84" y1="168.08" x2="403.31" y2="168.08" gradientUnits="userSpaceOnUse"><stop offset="0" stop-color="#062455"/><stop offset="1" stop-color="#06246e"/></linearGradient><linearGradient id="r" x1="398.26" y1="37.78" x2="439.04" y2="37.78" xlink:href="#b"/><linearGradient id="s" x1="410.61" y1="38.29" x2="426.36" y2="38.29" gradientUnits="userSpaceOnUse"><stop offset="0" stop-color="#fff"/><stop offset="1" stop-color="#e9ecff"/></linearGradient><linearGradient id="c" x1="171.56" y1="71.93" x2="172.24" y2="71.93" gradientUnits="userSpaceOnUse"><stop offset="0" stop-color="#ffa415"/><stop offset="1" stop-color="#ffca7f"/></linearGradient><linearGradient id="t" x1="171.56" y1="37.16" x2="172.24" y2="37.16" xlink:href="#c"/><linearGradient id="u" x1="171.56" y1="2.4" x2="176.36" y2="2.4" xlink:href="#c"/><linearGradient id="v" x1="184.12" y1=".34" x2="480.38" y2=".34" xlink:href="#c"/><linearGradient id="w" x1="488.14" y1="2.4" x2="492.94" y2="2.4" xlink:href="#c"/><linearGradient id="x" x1="492.25" y1="28.98" x2="492.94" y2="28.98" xlink:href="#c"/><linearGradient id="y" x1="492.25" y1="55.56" x2="492.94" y2="55.56" xlink:href="#c"/><linearGradient id="z" x1="126.68" y1="66.03" x2="131.12" y2="66.03" xlink:href="#b"/><linearGradient id="A" x1="137.86" y1="87.56" x2="404.49" y2="87.56" xlink:href="#b"/><linearGradient id="B" x1="408.59" y1="145.25" x2="411.53" y2="145.25" xlink:href="#b"/><linearGradient id="C" x1="337.4" y1="276.5" x2="628.3" y2="276.5" xlink:href="#a"/><filter id="d" x="337.4" y="213.65" width="190.5" height="164.25" filterUnits="userSpaceOnUse" color-interpolation-filters="sRGB"><feFlood flood-color="#fff" result="bg"/><feBlend in="SourceGraphic" in2="bg"/></filter><mask id="D" x="337.4" y="213.65" width="190.5" height="164.25" maskUnits="userSpaceOnUse"><g mask="url(#mask)" filter="url(#d)"><path d="M521.85 236.21c-25.4 23-118.75 48.41-87.17 73.8 27.21 21.89 71.08 49.05 68.31 67.78-77.48 2.26-157.81-30.25-157.81-30.25l-7.78-91.9s17.06-14.45 46.18-30.75c4.27-.92 8.6-1.77 13-2.51 93.69-16.01 150.66-9.17 125.27 13.83z" style="mix-blend-mode:multiply" fill="url(#e)"/></g></mask><linearGradient id="E" x1="337.4" y1="295.78" x2="527.9" y2="295.78" gradientUnits="userSpaceOnUse"><stop offset="0" stop-color="#ffd4d5"/><stop offset=".99" stop-color="#ff9497"/></linearGradient><linearGradient id="i" y1="288.35" x2="388.76" y2="288.35" gradientUnits="userSpaceOnUse"><stop offset="0" stop-color="#ffe9ec"/><stop offset="1" stop-color="#ffe9ea"/></linearGradient><filter id="f" x="114.37" y="191.93" width="274.4" height="188.56" filterUnits="userSpaceOnUse" color-interpolation-filters="sRGB"><feFlood flood-color="#fff" result="bg"/><feBlend in="SourceGraphic" in2="bg"/></filter><mask id="F" x="114.37" y="191.93" width="274.4" height="188.56" maskUnits="userSpaceOnUse"><g mask="url(#mask-2)" filter="url(#f)"><path d="M388.76 300.39s-24.69 57.64-112 80.09c-30.77-2.93-65.47-9.35-104.56-20.36-69.47-19.57 10-55.91 34.76-83.33 22.49-24.86-100-19.51-92.19-44.56 6-19.22 18.61-32.17 35.73-40.3 31.84 5 65 13.53 95.41 23.1 97.41 30.64 142.85 85.36 142.85 85.36z" style="mix-blend-mode:multiply" fill="url(#g)"/></g></mask><linearGradient id="G" x1="114.37" y1="286.21" x2="388.76" y2="286.21" gradientUnits="userSpaceOnUse"><stop offset="0" stop-color="#ffbfc1"/><stop offset="1" stop-color="#ffe9ea"/></linearGradient><linearGradient id="H" x1="562.73" y1="151.98" x2="594.81" y2="151.98" xlink:href="#h"/><linearGradient id="I" x1="567.4" y1="154.35" x2="585.74" y2="154.35" xlink:href="#i"/><linearGradient id="J" x1="538.45" y1="153.8" x2="565.62" y2="153.8" xlink:href="#b"/><linearGradient id="K" x1="546.08" y1="155.81" x2="561.71" y2="155.81" xlink:href="#i"/><linearGradient id="L" x1="352.92" y1="277.05" x2="390.25" y2="277.05" xlink:href="#b"/><linearGradient id="M" x1="358.42" y1="279.81" x2="379.65" y2="279.81" xlink:href="#i"/><linearGradient id="j" x1="324.67" y1="279.17" x2="356.29" y2="279.17" gradientUnits="userSpaceOnUse"><stop offset="0" stop-color="#ffa415"/><stop offset="1" stop-color="#ffaf55"/></linearGradient><linearGradient id="N" x1="333.59" y1="281.51" x2="351.68" y2="281.51" xlink:href="#i"/><linearGradient id="O" x1="62.18" y1="188.8" x2="94.26" y2="188.8" xlink:href="#j"/><linearGradient id="P" x1="66.85" y1="191.18" x2="85.2" y2="191.18" xlink:href="#i"/><linearGradient id="Q" x1="37.91" y1="190.62" x2="65.07" y2="190.62" xlink:href="#h"/><linearGradient id="R" x1="45.53" y1="192.63" x2="61.17" y2="192.63" xlink:href="#i"/><linearGradient id="S" x1="282.6" y1="286.34" x2="311.43" y2="286.34" xlink:href="#b"/><linearGradient id="T" x1="94.94" y1="338.05" x2="164.6" y2="338.05" xlink:href="#b"/><linearGradient id="U" x1="94.94" y1="323.63" x2="164.6" y2="323.63" xlink:href="#j"/><linearGradient id="V" x1="94.94" y1="323.63" x2="137.32" y2="323.63" xlink:href="#h"/><linearGradient id="W" x1="260.53" y1="281.93" x2="311.43" y2="281.93" xlink:href="#h"/><linearGradient id="X" x1="285.47" y1="281.93" x2="311.43" y2="281.93" xlink:href="#j"/><linearGradient id="m" x1="500.36" y1="73.98" x2="514.43" y2="73.98" gradientUnits="userSpaceOnUse"><stop offset="0" stop-color="#00103f"/><stop offset="1" stop-color="#00002a"/></linearGradient><linearGradient id="k" x1="477.4" y1="336.69" x2="507.79" y2="336.69" gradientUnits="userSpaceOnUse"><stop offset="0" stop-color="#062455"/><stop offset="1" stop-color="#06246e"/></linearGradient><linearGradient id="Y" x1="440.5" y1="283.16" x2="499.58" y2="283.16" xlink:href="#i"/><linearGradient id="Z" x1="429.8" y1="354.2" x2="464.12" y2="354.2" xlink:href="#k"/><linearGradient id="aa" x1="464.03" y1="190.39" x2="489.48" y2="190.39" xlink:href="#a"/><linearGradient id="ab" x1="444.71" y1="295.59" x2="492.41" y2="295.59" xlink:href="#i"/><linearGradient id="ac" x1="437.84" y1="232.3" x2="522.18" y2="232.3" xlink:href="#b"/><linearGradient id="ad" x1="436.84" y1="142.06" x2="479.57" y2="142.06" xlink:href="#h"/><linearGradient id="ae" x1="457.52" y1="166.69" x2="527.3" y2="166.69" xlink:href="#l"/><linearGradient id="af" x1="485.38" y1="126.2" x2="505.31" y2="126.2" xlink:href="#a"/><linearGradient id="ag" x1="479.14" y1="120.57" x2="489.48" y2="120.57" xlink:href="#a"/><linearGradient id="ah" x1="483.34" y1="114.1" x2="505.31" y2="114.1" xlink:href="#i"/><linearGradient id="ai" x1="469.92" y1="95.29" x2="498.82" y2="95.29" xlink:href="#i"/><linearGradient id="aj" x1="495.61" y1="196.84" x2="514.57" y2="196.84" xlink:href="#a"/><linearGradient id="ak" x1="472.5" y1="87.74" x2="511.25" y2="87.74" xlink:href="#m"/><linearGradient id="al" x1="414.52" y1="174.02" x2="464.72" y2="190.86" xlink:href="#j"/><linearGradient id="am" x1="424.69" y1="143.68" x2="469.86" y2="158.83" gradientUnits="userSpaceOnUse"><stop offset="0" stop-color="#ffd17f"/><stop offset="1" stop-color="#ffb53f"/></linearGradient><linearGradient id="n" x1="417.52" y1="165.06" x2="462.69" y2="180.22" gradientUnits="userSpaceOnUse"><stop offset="0" stop-color="#062455"/><stop offset="1" stop-color="#06246e"/></linearGradient><linearGradient id="an" x1="417.18" y1="182.05" x2="462.57" y2="197.28" gradientUnits="userSpaceOnUse"><stop offset="0" stop-color="#ffcd7f"/><stop offset=".16" stop-color="#ffca78"/><stop offset=".39" stop-color="#ffc366"/><stop offset=".65" stop-color="#ffb747"/><stop offset=".95" stop-color="#ffa71d"/><stop offset="1" stop-color="#ffa415"/></linearGradient><linearGradient id="ao" x1="452.47" y1="186.58" x2="483" y2="186.58" xlink:href="#i"/><linearGradient id="ap" x1="472.28" y1="157.7" x2="528.91" y2="157.7" xlink:href="#h"/><linearGradient id="aq" x1="226.04" y1="359.68" x2="267.65" y2="359.68" xlink:href="#k"/><linearGradient id="ar" x1="226.5" y1="345.55" x2="243.29" y2="345.55" xlink:href="#i"/><linearGradient id="as" x1="112.65" y1="234.61" x2="134.52" y2="234.61" xlink:href="#k"/><linearGradient id="at" x1="119.07" y1="226.17" x2="134.97" y2="226.17" xlink:href="#i"/><linearGradient id="au" x1="117.76" y1="252.17" x2="169.13" y2="252.17" xlink:href="#h"/><linearGradient id="av" x1="150.19" y1="277.81" x2="247.02" y2="277.81" xlink:href="#h"/><linearGradient id="aw" x1="59.16" y1="95.42" x2="117.07" y2="95.42" xlink:href="#h"/><linearGradient id="ax" x1="90.73" y1="95.42" x2="117.07" y2="95.42" xlink:href="#a"/><linearGradient id="ay" x1="90.73" y1="95.98" x2="113.52" y2="95.98" xlink:href="#k"/><linearGradient id="az" x1="97.78" y1="106.7" x2="104.56" y2="106.7" xlink:href="#i"/><linearGradient id="aA" x1="261.44" y1="114.31" x2="273.2" y2="114.31" xlink:href="#k"/><linearGradient id="aB" x1="275.91" y1="118.53" x2="287.36" y2="118.53" xlink:href="#i"/><linearGradient id="aC" x1="288.51" y1="118.15" x2="293.77" y2="118.15" xlink:href="#i"/><linearGradient id="aD" x1="261.44" y1="112.14" x2="294.07" y2="112.14" xlink:href="#i"/><linearGradient id="aE" x1="97.08" y1="162.61" x2="272.54" y2="162.61" xlink:href="#n"/><linearGradient id="aF" x1="173.07" y1="143.62" x2="188.09" y2="143.62" xlink:href="#a"/><linearGradient id="aG" x1="188.09" y1="144.93" x2="196.47" y2="144.93" xlink:href="#a"/><linearGradient id="aH" x1="186.26" y1="175.26" x2="200.58" y2="175.26" xlink:href="#h"/><linearGradient id="aI" x1="172.81" y1="133.76" x2="193.96" y2="133.76" xlink:href="#i"/><linearGradient id="aJ" x1="184.68" y1="149.28" x2="189.81" y2="149.28" xlink:href="#a"/><linearGradient id="aK" x1="163.57" y1="108.4" x2="199.95" y2="108.4" xlink:href="#i"/><linearGradient id="aL" x1="155.71" y1="102.21" x2="188.09" y2="102.21" xlink:href="#m"/></defs><g data-name="レイヤー 2"><path d="M427.34 42.25v132.3a12 12 0 0 1-12 12H207.83a12 12 0 0 1-12-12V42.25a12 12 0 0 1 12-12h207.48a12 12 0 0 1 12.03 12z" fill="url(#h)"/><path d="M427.34 42.25v132.3a12 12 0 0 1-6.18 10.51l-222-151.15a12 12 0 0 1 8.67-3.7h207.48a12 12 0 0 1 12.03 12.04z" fill="url(#l)"/><rect x="214.12" y="85.11" width="189.2" height="67.84" rx="20.42" fill="url(#a)"/><circle cx="230.57" cy="59.62" r="16.45" fill="url(#o)"/><rect x="253.22" y="50.65" width="49.08" height="6.97" rx="3.46" fill="url(#p)"/><rect x="253.22" y="65.17" width="49.08" height="3.43" rx="1.7" fill="url(#q)"/><rect x="352.84" y="162.54" width="50.47" height="11.08" rx="5.5" fill="url(#b)"/><circle cx="418.65" cy="37.78" r="20.39" fill="url(#r)"/><path d="M417.74 46.73a1.25 1.25 0 0 1-1-.47l-5.86-7.17a1.26 1.26 0 1 1 2-1.6l4.64 5.68L424 30.54a1.26 1.26 0 1 1 2.25 1.15L418.86 46a1.25 1.25 0 0 1-1 .68z" fill="url(#s)"/><path d="M171.9 74.33a.35.35 0 0 1-.34-.35v-4.11a.34.34 0 1 1 .68 0V74a.35.35 0 0 1-.34.33z" fill="url(#c)"/><path d="M171.9 62.94a.34.34 0 0 1-.34-.34v-7.27a.34.34 0 1 1 .68 0v7.27a.34.34 0 0 1-.34.34zm0-14.53a.35.35 0 0 1-.34-.35V40.8a.34.34 0 1 1 .68 0v7.26a.35.35 0 0 1-.34.35zm0-14.54a.34.34 0 0 1-.34-.34v-7.27a.34.34 0 1 1 .68 0v7.27a.34.34 0 0 1-.34.34zm0-14.53a.34.34 0 0 1-.34-.34v-7.27a.34.34 0 1 1 .68 0V19a.34.34 0 0 1-.34.34z" fill="url(#t)"/><path d="M171.9 4.8a.34.34 0 0 1-.34-.34V.34a.34.34 0 0 1 .34-.34h4.1a.34.34 0 0 1 .34.34.35.35 0 0 1-.34.35h-3.78v3.77a.34.34 0 0 1-.32.34z" fill="url(#u)"/><path d="M480 .69h-8.44a.35.35 0 0 1-.34-.35.34.34 0 0 1 .34-.34H480a.35.35 0 0 1 .35.34.35.35 0 0 1-.35.35zm-16.88 0h-8.42a.35.35 0 0 1-.34-.35.34.34 0 0 1 .34-.34h8.45a.34.34 0 0 1 .34.34.35.35 0 0 1-.34.35zm-16.9 0h-8.44a.35.35 0 0 1-.34-.35.34.34 0 0 1 .34-.34h8.44a.35.35 0 0 1 .35.34.35.35 0 0 1-.32.35zm-16.88 0h-8.45a.35.35 0 0 1-.34-.35.34.34 0 0 1 .34-.34h8.45a.34.34 0 0 1 .34.34.35.35 0 0 1-.31.35zm-16.89 0H404a.35.35 0 0 1-.34-.35A.34.34 0 0 1 404 0h8.45a.34.34 0 0 1 .34.34.35.35 0 0 1-.31.35zm-16.89 0h-8.45a.35.35 0 0 1-.34-.35.34.34 0 0 1 .34-.34h8.45a.34.34 0 0 1 .34.34.35.35 0 0 1-.31.35zm-16.86 0h-8.45a.35.35 0 0 1-.34-.35.34.34 0 0 1 .34-.34h8.45a.34.34 0 0 1 .34.34.35.35 0 0 1-.34.35zm-16.89 0h-8.45a.35.35 0 0 1-.36-.35.34.34 0 0 1 .34-.34h8.45a.34.34 0 0 1 .34.34.35.35 0 0 1-.32.35zm-16.89 0h-8.45a.35.35 0 0 1-.34-.35.34.34 0 0 1 .34-.34h8.45a.34.34 0 0 1 .34.34.35.35 0 0 1-.34.35zM328 .69h-8.45a.35.35 0 0 1-.34-.35.34.34 0 0 1 .34-.34H328a.34.34 0 0 1 .34.34.35.35 0 0 1-.34.35zm-16.89 0h-8.45a.35.35 0 0 1-.34-.35.34.34 0 0 1 .34-.34h8.45a.34.34 0 0 1 .34.34.35.35 0 0 1-.31.35zm-16.89 0h-8.42a.35.35 0 0 1-.34-.35.34.34 0 0 1 .34-.34h8.45a.34.34 0 0 1 .34.34.35.35 0 0 1-.34.35zm-16.89 0h-8.45a.35.35 0 0 1-.34-.35.34.34 0 0 1 .34-.34h8.45a.34.34 0 0 1 .34.34.35.35 0 0 1-.31.35zm-16.89 0H252a.35.35 0 0 1-.34-.35A.34.34 0 0 1 252 0h8.45a.34.34 0 0 1 .34.34.35.35 0 0 1-.32.35zm-16.89 0h-8.45a.35.35 0 0 1-.34-.35.34.34 0 0 1 .34-.34h8.45a.34.34 0 0 1 .34.34.35.35 0 0 1-.31.35zm-16.89 0h-8.45a.35.35 0 0 1-.34-.35.34.34 0 0 1 .34-.34h8.45a.34.34 0 0 1 .34.34.35.35 0 0 1-.31.35zm-16.86 0h-8.45a.35.35 0 0 1-.35-.35.34.34 0 0 1 .34-.34h8.45a.34.34 0 0 1 .34.34.35.35 0 0 1-.33.35zm-16.89 0h-8.45a.35.35 0 0 1-.34-.35.34.34 0 0 1 .34-.34h8.45a.34.34 0 0 1 .34.34.35.35 0 0 1-.34.35z" fill="url(#v)"/><path d="M492.6 4.8a.35.35 0 0 1-.35-.34V.69h-3.77a.35.35 0 0 1-.34-.35.34.34 0 0 1 .34-.34h4.12a.34.34 0 0 1 .34.34v4.12a.34.34 0 0 1-.34.34z" fill="url(#w)"/><path d="M492.6 46.84a.35.35 0 0 1-.35-.35v-7a.35.35 0 0 1 .35-.35.35.35 0 0 1 .34.35v7a.35.35 0 0 1-.34.35zm0-14a.35.35 0 0 1-.35-.35v-7a.35.35 0 0 1 .35-.35.35.35 0 0 1 .34.35v7a.35.35 0 0 1-.34.34zm0-14a.35.35 0 0 1-.35-.35v-7a.35.35 0 0 1 .35-.35.35.35 0 0 1 .34.35v7a.35.35 0 0 1-.34.33z" fill="url(#x)"/><path d="M492.6 58a.35.35 0 0 1-.35-.34V53.5a.35.35 0 0 1 .35-.35.35.35 0 0 1 .34.35v4.12a.34.34 0 0 1-.34.38z" fill="url(#y)"/><path d="M127 67.23a.35.35 0 0 1-.14-.66s1.34-.63 3.76-1.7a.34.34 0 0 1 .45.18.34.34 0 0 1-.18.45c-2.4 1.07-3.74 1.69-3.74 1.69a.42.42 0 0 1-.15.04z" fill="url(#z)"/><path d="M404.14 137.33a.34.34 0 0 1-.27-.13c-1.6-2.08-3.31-4.19-5.08-6.28a.34.34 0 0 1 .53-.44c1.77 2.1 3.49 4.22 5.1 6.3a.35.35 0 0 1-.07.48.31.31 0 0 1-.21.07zM393.7 125a.36.36 0 0 1-.25-.11c-1.81-2-3.69-3.94-5.58-5.84a.35.35 0 1 1 .49-.49c1.9 1.91 3.78 3.88 5.6 5.86a.34.34 0 0 1-.26.58zm-11.4-11.47a.33.33 0 0 1-.24-.1c-2-1.82-4-3.63-6-5.38a.34.34 0 1 1 .45-.52c2 1.75 4.07 3.57 6 5.4a.35.35 0 0 1 0 .49.36.36 0 0 1-.21.09zM370 103a.36.36 0 0 1-.22-.07c-2.1-1.67-4.27-3.32-6.42-4.9a.34.34 0 1 1 .4-.55c2.17 1.58 4.34 3.23 6.45 4.91a.35.35 0 0 1 .06.48.34.34 0 0 1-.27.13zm-110.42-9a.34.34 0 0 1 0-.68 37.4 37.4 0 0 0 7.83-1.67.34.34 0 0 1 .21.65 37.47 37.47 0 0 1-8 1.7zm97.42-.58a.31.31 0 0 1-.19-.06c-2.23-1.5-4.52-3-6.8-4.36a.35.35 0 0 1-.11-.48.34.34 0 0 1 .47-.11c2.29 1.41 4.58 2.88 6.82 4.38a.35.35 0 0 1 .09.48.33.33 0 0 1-.28.15zm-105.39 0h-.13c-2.16-.84-2.62-2.09-2.62-3 0-1.15.73-2.45 2.17-3.85a.36.36 0 0 1 .49 0 .35.35 0 0 1 0 .49c-1.28 1.24-2 2.4-2 3.35 0 1.24 1.19 2 2.18 2.35a.34.34 0 0 1 .2.44.33.33 0 0 1-.32.18zM274.82 89a.34.34 0 0 1-.18-.64 25.68 25.68 0 0 0 6.1-5.1.34.34 0 0 1 .52.45 26.85 26.85 0 0 1-6.26 5.23.41.41 0 0 1-.18.06zm68.33-4a.29.29 0 0 1-.16 0c-2.39-1.26-4.82-2.45-7.25-3.53a.34.34 0 0 1 .28-.62c2.44 1.08 4.89 2.27 7.29 3.55a.34.34 0 0 1 .14.46.33.33 0 0 1-.3.14zm-85.32-2.57a.34.34 0 0 1-.3-.17.35.35 0 0 1 .13-.47 63.53 63.53 0 0 1 7.3-3.58.35.35 0 0 1 .26.64A61.34 61.34 0 0 0 258 82.4a.35.35 0 0 1-.17.04zm70.54-4a.2.2 0 0 1-.11 0c-2.54-.9-5.13-1.7-7.7-2.39a.34.34 0 0 1-.24-.42.34.34 0 0 1 .42-.24c2.58.69 5.19 1.5 7.75 2.41a.34.34 0 0 1 .2.44.33.33 0 0 1-.32.24zM285 76.87h-.1a.34.34 0 0 1-.22-.43 15 15 0 0 0 .73-4.56 14.38 14.38 0 0 0-.37-3.24.36.36 0 0 1 .26-.41.35.35 0 0 1 .41.26 15.14 15.14 0 0 1 .39 3.39 15.45 15.45 0 0 1-.77 4.77.34.34 0 0 1-.33.22zm-12.32-.67a.34.34 0 0 1-.32-.25.33.33 0 0 1 .23-.42 81.19 81.19 0 0 1 7.9-1.89.35.35 0 0 1 .4.27.36.36 0 0 1-.28.41 77.63 77.63 0 0 0-7.83 1.87zm40.05-1.89h-.06c-2.65-.47-5.34-.84-8-1.08a.34.34 0 0 1-.31-.37.35.35 0 0 1 .38-.31c2.67.24 5.37.61 8 1.09a.34.34 0 0 1 .28.4.35.35 0 0 1-.26.27zm-24.17-1.1a.34.34 0 0 1 0-.68c2.63-.24 5.32-.36 8-.37h.12a.35.35 0 0 1 .34.35.34.34 0 0 1-.34.34h-.12c-2.65 0-5.32.12-7.93.36zM138.2 62.33a.34.34 0 0 1-.31-.21.34.34 0 0 1 .18-.45c2.46-1 5-2.06 7.5-3.07a.34.34 0 1 1 .25.64c-2.51 1-5 2-7.48 3.06a.35.35 0 0 1-.14.03zm143.73-.67a.32.32 0 0 1-.28-.14 33.7 33.7 0 0 0-5.55-5.73.34.34 0 0 1-.05-.48.35.35 0 0 1 .49-.05 33.63 33.63 0 0 1 5.66 5.86.33.33 0 0 1-.07.48.36.36 0 0 1-.2.06zm-128.69-5.34a.34.34 0 0 1-.12-.66c2.54-1 5.1-1.92 7.6-2.81a.34.34 0 0 1 .44.2.35.35 0 0 1-.21.44c-2.5.9-5 1.84-7.59 2.81zm116.47-5.1a.29.29 0 0 1-.18 0c-2.16-1.3-4.55-2.58-7.1-3.79a.35.35 0 0 1-.16-.46.34.34 0 0 1 .46-.16 79.15 79.15 0 0 1 7.15 3.83.33.33 0 0 1 .12.47.35.35 0 0 1-.29.11zm-101.23-.37a.34.34 0 0 1-.11-.67c2.6-.88 5.19-1.72 7.7-2.51a.33.33 0 0 1 .43.23.34.34 0 0 1-.22.43c-2.51.78-5.1 1.62-7.69 2.5zM183.92 46a.34.34 0 0 1-.33-.25.34.34 0 0 1 .24-.42c2.65-.76 5.28-1.47 7.82-2.12a.34.34 0 1 1 .17.66c-2.53.65-5.16 1.36-7.8 2.12zm71.23-1.79h-.13c-2.4-.94-5-1.84-7.6-2.7a.34.34 0 0 1 .21-.65c2.66.86 5.23 1.77 7.64 2.71a.34.34 0 0 1-.12.66zM199.61 42a.33.33 0 0 1-.33-.27.34.34 0 0 1 .26-.41c2.72-.6 5.4-1.13 8-1.58a.34.34 0 1 1 .12.67c-2.55.45-5.21 1-7.92 1.58zm40.12-2.65h-.06a56 56 0 0 0-8-.9.34.34 0 0 1-.32-.36.35.35 0 0 1 .35-.33 57.41 57.41 0 0 1 8.09.91.35.35 0 0 1 .27.4.34.34 0 0 1-.33.3zm-24.18-.14a.34.34 0 0 1-.34-.3.35.35 0 0 1 .3-.38c2.81-.34 5.53-.58 8.08-.72a.35.35 0 0 1 0 .69c-2.54.13-5.25.37-8 .71z" fill="url(#A)"/><path d="M411.19 147.32a.35.35 0 0 1-.3-.17s-.76-1.27-2.24-3.42a.35.35 0 0 1 .08-.48.34.34 0 0 1 .48.09c1.5 2.17 2.26 3.44 2.27 3.46a.35.35 0 0 1-.29.52z" fill="url(#B)"/><path d="M622.25 197.67c-25.39 23-118.74 48.4-87.17 73.8s85.57 57.88 63.15 76.07c-26.13 21.19-60.39 29.24-95.24 30.25-77.48 2.26-157.81-30.25-157.81-30.25l-7.78-91.9s17.06-14.45 46.18-30.75c28.09-15.74 67.4-33.2 113.41-41.06 93.69-16.01 150.66-9.17 125.26 13.84z" fill="url(#C)"/><g mask="url(#D)"><path d="M521.85 236.21c-25.4 23-118.75 48.41-87.17 73.8 27.21 21.89 71.08 49.05 68.31 67.78-77.48 2.26-157.81-30.25-157.81-30.25l-7.78-91.9s17.06-14.45 46.18-30.75c4.27-.92 8.6-1.77 13-2.51 93.69-16.01 150.66-9.17 125.27 13.83z" fill="url(#E)"/></g><path d="M388.76 300.39s-24.69 57.64-112 80.09c-50 12.86-120.63 14.17-218.92-13.51-69.49-19.58 10-55.91 34.76-83.33C115 258.78-7.44 264.13.36 239.07c16.05-51.56 80-58.07 150.09-47.14 31.84 5 65 13.53 95.41 23.1 97.46 30.64 142.9 85.36 142.9 85.36z" fill="url(#i)"/><g mask="url(#F)"><path d="M388.76 300.39s-24.69 57.64-112 80.09c-30.77-2.93-65.47-9.35-104.56-20.36-69.47-19.57 10-55.91 34.76-83.33 22.49-24.86-100-19.51-92.19-44.56 6-19.22 18.61-32.17 35.73-40.3 31.84 5 65 13.53 95.41 23.1 97.41 30.64 142.85 85.36 142.85 85.36z" fill="url(#G)"/></g><path d="M566.65 188s-5.94-13.28-3.2-35 16.45-40 29.37-38.2c7.21 1-7.63 11.67-6.43 20.25s4.12 14.75-.69 21.45-7.38 6-5.49 14.07-2.4 17.39-2.4 17.39-1.32 1.23-5.44 1.31-5.72-1.27-5.72-1.27z" fill="url(#H)"/><path d="M570.31 189.53h-.06a.34.34 0 0 1-.28-.4c0-.06 1.07-6 .68-9.13a24 24 0 0 0-1.52-5.29c-.93-2.53-1.9-5.15-1.7-8 .42-6.34 2.21-7.66 4.68-9.49a21.42 21.42 0 0 0 3.67-3.26c3.7-4.24 2.59-10.84 1.51-17.23-.15-.92-.31-1.84-.45-2.75-1.16-7.51 8-14.41 8.36-14.7a.34.34 0 1 1 .41.55c-.1.07-9.19 6.94-8.09 14 .14.91.29 1.83.45 2.75 1.1 6.54 2.24 13.31-1.68 17.79a21.4 21.4 0 0 1-3.77 3.36c-2.41 1.78-4 3-4.41 9-.18 2.73.76 5.28 1.67 7.74a25.21 25.21 0 0 1 1.55 5.45c.41 3.19-.64 9.09-.68 9.33a.35.35 0 0 1-.34.28z" fill="url(#I)"/><path d="M562.3 184.27s5-11.24 2.71-29.65-13.93-33.81-24.88-32.31c-6.1.84 6.47 9.88 5.45 17.15s-3.48 12.5.58 18.16 6.25 5.09 4.65 11.92 2 14.73 2 14.73 1.11 1 4.6 1.11 4.89-1.11 4.89-1.11z" fill="url(#J)"/><path d="M559.2 185.65a.34.34 0 0 1-.34-.28c0-.21-.92-5.22-.58-7.93a21.7 21.7 0 0 1 1.32-4.62 15.92 15.92 0 0 0 1.41-6.54c-.34-5.08-1.68-6.07-3.71-7.57a18.71 18.71 0 0 1-3.21-2.85c-3.33-3.82-2.36-9.56-1.43-15.11.13-.78.26-1.55.38-2.33.93-6-6.75-11.78-6.83-11.84a.34.34 0 0 1 .41-.55c.33.25 8.09 6.11 7.1 12.5-.12.77-.25 1.55-.38 2.34-.91 5.39-1.85 11 1.27 14.54a17.63 17.63 0 0 0 3.1 2.75c2.1 1.56 3.62 2.68 4 8.08a16.36 16.36 0 0 1-1.44 6.82 20.28 20.28 0 0 0-1.29 4.47c-.33 2.61.57 7.67.58 7.72a.35.35 0 0 1-.28.4z" fill="url(#K)"/><path d="M357.49 318.92s-6.92-15.45-3.73-40.74 19.15-46.46 34.18-44.4c8.39 1.15-8.88 13.58-7.48 23.56s4.79 17.18-.8 25-8.59 7-6.39 16.37-2.8 20.24-2.8 20.24-1.53 1.44-6.32 1.54-6.66-1.57-6.66-1.57z" fill="url(#L)"/><path d="M361.75 320.69h-.07a.34.34 0 0 1-.27-.4c0-.07 1.24-7 .79-10.64a28.58 28.58 0 0 0-1.77-6.17c-1.09-2.94-2.21-6-2-9.33.5-7.35 2.57-8.89 5.43-11a24.41 24.41 0 0 0 4.28-3.79c4.33-5 3-12.65 1.77-20.1-.18-1.07-.36-2.14-.52-3.2-1.35-8.71 9.25-16.72 9.7-17.06a.34.34 0 0 1 .41.55c-.11.08-10.72 8.1-9.43 16.4.16 1.06.34 2.13.52 3.2 1.28 7.6 2.61 15.46-1.93 20.66a25.13 25.13 0 0 1-4.39 3.89c-2.82 2.09-4.68 3.47-5.15 10.51-.21 3.19.88 6.17 1.94 9a29 29 0 0 1 1.81 6.32c.47 3.7-.75 10.56-.8 10.85a.33.33 0 0 1-.32.31z" fill="url(#M)"/><path d="M352.42 314.63s5.86-13.09 3.15-34.51-16.21-39.34-28.95-37.6c-7.1 1 7.53 11.5 6.35 20s-4.06 14.54.67 21.14 7.28 5.92 5.41 13.87 2.37 17.14 2.37 17.14 1.3 1.21 5.36 1.3 5.64-1.34 5.64-1.34z" fill="url(#j)"/><path d="M348.81 316.18a.35.35 0 0 1-.34-.28c0-.25-1.07-6.06-.67-9.21a25 25 0 0 1 1.53-5.36c.9-2.43 1.82-4.94 1.64-7.64-.39-5.93-2-7.09-4.34-8.85a21.59 21.59 0 0 1-3.72-3.31c-3.86-4.42-2.74-11.09-1.65-17.54.15-.9.3-1.81.44-2.71 1.09-7-7.88-13.77-8-13.83a.35.35 0 0 1-.07-.48.33.33 0 0 1 .48-.07c.39.28 9.39 7.08 8.24 14.49-.14.9-.29 1.81-.44 2.71-1.06 6.3-2.16 12.8 1.49 17a20.87 20.87 0 0 0 3.61 3.21c2.44 1.8 4.2 3.1 4.62 9.36.19 2.84-.76 5.42-1.68 7.92a23.7 23.7 0 0 0-1.5 5.21c-.38 3 .66 8.94.67 9a.35.35 0 0 1-.28.4z" fill="url(#N)"/><path d="M66.11 224.78s-6-13.27-3.21-35 16.45-39.92 29.38-38.15c7.2 1-7.64 11.67-6.44 20.25s4.12 14.76-.69 21.45-7.37 6-5.49 14.07-2.4 17.39-2.4 17.39S76 226 71.83 226.1s-5.72-1.32-5.72-1.32z" fill="url(#O)"/><path d="M69.76 226.35h-.06a.34.34 0 0 1-.27-.4c0-.06 1.07-6 .68-9.13a25.17 25.17 0 0 0-1.52-5.29c-.94-2.53-1.9-5.15-1.71-8 .42-6.35 2.21-7.67 4.68-9.5a20.59 20.59 0 0 0 3.67-3.25c3.7-4.24 2.59-10.85 1.51-17.23-.15-.92-.31-1.84-.45-2.75-1.16-7.52 8-14.41 8.36-14.7a.34.34 0 0 1 .48.07.35.35 0 0 1-.07.48c-.09.07-9.19 6.94-8.09 14 .14.91.3 1.83.45 2.75 1.1 6.54 2.24 13.3-1.67 17.79a22.08 22.08 0 0 1-3.75 3.36c-2.41 1.79-4 3-4.41 9-.18 2.74.76 5.29 1.67 7.75a25.73 25.73 0 0 1 1.56 5.44c.4 3.19-.64 9.09-.69 9.34a.33.33 0 0 1-.37.27z" fill="url(#P)"/><path d="M61.75 221.09s5-11.24 2.71-29.64-13.93-33.81-24.87-32.31c-6.11.86 6.46 9.86 5.41 17.15s-3.49 12.49.58 18.16 6.25 5.09 4.65 11.92 2 14.72 2 14.72 1.12 1 4.6 1.12 4.92-1.12 4.92-1.12z" fill="url(#Q)"/><path d="M58.65 222.48a.35.35 0 0 1-.34-.29c0-.21-.92-5.21-.58-7.92a21.7 21.7 0 0 1 1.32-4.62 15.76 15.76 0 0 0 1.41-6.54c-.34-5.08-1.68-6.07-3.71-7.58a18.21 18.21 0 0 1-3.2-2.84c-3.34-3.82-2.37-9.56-1.44-15.11.14-.78.27-1.56.39-2.33.92-6-6.76-11.78-6.83-11.84a.33.33 0 0 1-.07-.48.34.34 0 0 1 .48-.07c.33.24 8.08 6.1 7.09 12.49-.12.78-.25 1.56-.38 2.34-.91 5.39-1.85 11 1.27 14.55a17.88 17.88 0 0 0 3.1 2.74c2.1 1.56 3.63 2.69 4 8.08a16.54 16.54 0 0 1-1.45 6.83 20.28 20.28 0 0 0-1.29 4.47c-.33 2.6.57 7.66.58 7.71a.34.34 0 0 1-.28.4z" fill="url(#R)"/><path fill="url(#S)" d="M311.43 306.01l-28.82-39.35v7.79l28.82 31.56z"/><path fill="url(#T)" d="M94.94 311.45l25.91 53.19 16.47-28.83 27.28-8.23-69.66-16.13z"/><path fill="url(#U)" d="M137.32 335.81l-42.38-24.36 69.66 16.13-27.28 8.23z"/><path fill="url(#V)" d="M137.32 335.81v-12.18l-42.38-12.18 42.38 24.36z"/><path fill="url(#W)" d="M260.53 277.81l50.9 28.2-14.41-48.16-11.56 16.08-24.93 3.88z"/><path fill="url(#X)" d="M285.46 273.93l25.97 32.08-14.41-48.16-11.56 16.08z"/><path d="M514.43 74a7 7 0 1 1-7-7.37 7.21 7.21 0 0 1 7 7.37z" fill="url(#m)"/><path d="M487.17 324.37a5.14 5.14 0 0 0-1.85 3.42 25.15 25.15 0 0 1-2.06 10.26c-2.15 5.06-6.87 10.81-5.66 13.12s4.46 4.64 7.63 3.26S498 343.36 498 343.36l5-14.92 1 1.08a1 1 0 0 0 1.59-.11l2-2.87a1 1 0 0 0-.12-1.32c-.56-.55-1.62-1.52-3.58-3.13-4.33-3.56-6.32-3.56-6.32-3.56l-4.94.43z" fill="url(#k)"/><path d="M441.29 250.05s-2.56 5.63 1.56 12.66 45.67 63.5 45.67 63.5 3.3 1.94 7.67-.75c4.17-2.57 3.31-6.29 3.31-6.29s-15.44-35.58-21.16-42.44-3.43-24.94-3.43-24.94-4.92-8.47-6.35-9.38-13.79-3-13.79-3z" fill="url(#Y)"/><path d="M449.15 336.48s-3.5.23-7.42 6.6a142.65 142.65 0 0 0-9.7 19c-2 4.91-4.5 8.87 1.77 10.33 4.73 1.1 10.13-2.73 14-6.88s11-12.13 11-12.13v2.3a.74.74 0 0 0 1.2.57l3.25-2.63s1.46-2.69.69-7.53a24.43 24.43 0 0 0-2.5-7.82l-7.94-2.47z" fill="url(#Z)"/><path d="M477.2 165.08l12.28 31.76s-1.76 14.91-1.76 15.83-12.65 3-12.65 3l-9.31-6.93s-2.29-14.3-1.61-15.05 2.76-14.15 2.76-14.15z" fill="url(#aa)"/><path d="M467.57 253.48a22.37 22.37 0 0 0-3.76 8.15c-.76 3.73-19.1 77.79-19.1 77.79s0 6 4.92 6.95c6.77 1.28 9.69-2.15 9.69-2.15s12.78-42 17.42-50.1 5.54-21.4 9.52-25.23a24.74 24.74 0 0 0 6.15-9.85l-5.89-10.4-8.07-4.11z" fill="url(#ab)"/><path d="M458.38 207.71s-.47 9.59-5.78 14.45c-14.76 13.5-14.76 28.84-14.76 28.84s12.91-4.77 26.2 1c30.43 13.27 44.61 3.66 44.61 3.66s.07-11.21 4-16.47c8.46-11.33 9.52-29.71 9.52-29.71s-12.61-1.49-13.41-1.79-31.61 0-31.61 0a14.74 14.74 0 0 1-7.29-1.57c-4.22-1.92-11.48 1.59-11.48 1.59z" fill="url(#ac)"/><path d="M479.57 113.55a9.59 9.59 0 0 0-6.55 3.71c-9.29 11.25-9.67 30.06-14.19 31.69-5.72 2.06-22 8.75-22 8.75l4.63 12.87s30.92-8.58 35.61-16-.23-32-.23-32z" fill="url(#ad)"/><path d="M484.45 112.45a14.06 14.06 0 0 1-4.88 1.1c-2.66.09-7.12 12.75-8.32 19.27s-6.12 11.26-4.52 15.55 4.46 5.32 4.69 8-1.55 17.45-1.55 17.45l-12.35 32.26a22 22 0 0 0 4.57 6.29 22.23 22.23 0 0 0 5.72 4.06s4.47-7.32 5.5-14.07.57-17.73.57-17.73l3.2 5a31.41 31.41 0 0 1 .69 15.45c-1.83 8.12-3.66 13.84-3.66 13.84s17 4 30.2.57c13.95-3.66 23-15.33 23-15.33s-7.84-15.44-9.26-22.08-1-9.64-1-9.64l3.38-45.86s-1-2.8-5.4-6.9a25.78 25.78 0 0 0-9.75-5.69z" fill="url(#ae)"/><path d="M485.38 128.67a6.16 6.16 0 0 1 4.4 3.46 28 28 0 0 1 2.4 6.23s7.95-7.2 10.18-11.72 2.95-12.64 2.95-12.64-6.32 2-6.49 2.08-13.44 12.59-13.44 12.59z" fill="url(#af)"/><path d="M485.38 128.67s-.32-1.17-2.47-.92a11 11 0 0 0-3.77 1.2 29.3 29.3 0 0 1 1.8-9.26 47.88 47.88 0 0 1 3.51-7.24l5-.27z" fill="url(#ag)"/><path d="M483.72 110.64a22 22 0 0 1 2 8.1c.09 4.21-.32 9.93-.32 9.93s5.6 1.06 12.38-4.09 7.53-10.58 7.53-10.58-3.86-6-4.72-9.36a15.58 15.58 0 0 1-.77-3.94l-5.31-1.29-11.17 4.63z" fill="url(#ah)"/><path d="M472.47 83.73A34.38 34.38 0 0 0 470 98.1a71.41 71.41 0 0 0 1.3 9 5.54 5.54 0 0 0 6.25 4.39c4.59-.69 11.29-2.32 15.67-6.15 7.21-6.31 5.41-19.16 5.41-19.16l-6-6.31-7.32-.79z" fill="url(#ai)"/><path d="M497 200.94a1.37 1.37 0 0 1-.16-2.74 55.89 55.89 0 0 0 8.72-1.84 24.48 24.48 0 0 0 6.83-3.34 1.38 1.38 0 0 1 1.92.27 1.36 1.36 0 0 1-.26 1.92 26.73 26.73 0 0 1-7.67 3.77 58.21 58.21 0 0 1-9.21 2z" fill="url(#aj)"/><path d="M472.5 83.8s.46 3.46 7.93 3.8c11.72.54 11.84 12.31 11.35 17.38a1.91 1.91 0 0 0 2.16 2.09c4.13-.57 12.29-2.7 15.69-10.63 4.28-10-.25-24.29-9.9-26.89-22.99-6.17-27.23 14.25-27.23 14.25z" fill="url(#ak)"/><path fill="url(#al)" d="M457.94 211.08l7.99-40.51-44.63-16.77-5.14 31.26 41.78 26.02z"/><path fill="url(#am)" d="M421.3 153.8l23.41-16.46 21.22 33.23-44.63-16.77z"/><path fill="url(#n)" d="M421.3 153.8l14.48 29.92 30.15-13.15-44.63-16.77z"/><path fill="url(#an)" d="M416.16 185.06l21.68-11.43 20.1 37.45-41.78-26.02z"/><path d="M474.86 175.91s-2.16 1.78-3.87 1.69c-1.24-.06-2.11.62-4.08 2-3.25 2.24-8.31.64-10.36-.17a1.3 1.3 0 0 0-1.57.48 13.76 13.76 0 0 0-2.49 8.24 29.89 29.89 0 0 0 1.72 8.37 1.3 1.3 0 0 0 1 .86 18.28 18.28 0 0 0 8.68-.48c5.7-2.12 8.42-4 9.56-5.29 1.58-1.85 6.13-3.18 6.13-3.18s3.52-2.27 3.39-2.91-3.95-10-3.95-10z" fill="url(#ao)"/><path d="M527.19 164.56c-5.67 7.72-24 13.9-32.87 21.28s-15.18 7.89-15.18 7.89 1.45-7.46-.77-12.35a26 26 0 0 0-6.09-8.15L507.16 158s-2.85-11.87-2.8-20.54c0-.77.05-1.5.11-2.19a22.14 22.14 0 0 1 1.32-6 14.76 14.76 0 0 1 2.5-4.13 12.36 12.36 0 0 1 3.59-3.09 3.87 3.87 0 0 1 2.74-.21 9.12 9.12 0 0 1 3.53 1.87 13.57 13.57 0 0 1 2.31 2.93.49.49 0 0 1 .06.13c.15.29.29.6.43.92v.07c1.66 4 2.24 5.41 2.44 5.89 0 .1.06.15.07.19a.14.14 0 0 1 0 .07c3.99 10.46 7.74 25.17 3.73 30.65z" fill="url(#ap)"/><path d="M227.85 350.3s-2.24.88-1.73 5 1 5 4.46 7.88 24.45 14.93 30.2 12.1 9.78-9.35 4.21-12.18c-9.26-4.7-13.44-11.61-17.33-15s-6-4.57-8-4.46-11.81 6.66-11.81 6.66z" fill="url(#aq)"/><path d="M226.5 345.93l1.89 6.14s7 5.62 11.89 2 2.36-8.16 2.36-8.16l-4.21-10.12-7.08.18z" fill="url(#ar)"/><path d="M132.81 222.7s.65-1.25-.72-3.7-5.07-4.85-5.07-4.85-6.42-2.13-10.21 1.72c-5.14 5.23-5.52 35.31-1.11 38.2 5.49 3.6 10.21.31 10.72-2.6.48-2.68 1.2-8.23 1.2-8.23l6.9-18.5z" fill="url(#as)"/><path d="M124 232.9l-5-4.62s0-4.62 3.38-6.92c4.57-3.15 8-1.49 8-1.49l4.06 4.87.45 5.2z" fill="url(#at)"/><path d="M154.3 239.68a18.36 18.36 0 0 1-5.88-7 67.83 67.83 0 0 0-7.33-10.52 36.23 36.23 0 0 0-23.33 20.56 24.65 24.65 0 0 1 14.67 10.47c5.49 8.67 14.16 19.73 21.19 23.6a58.83 58.83 0 0 0 15.51 5.39l-11-41.49z" fill="url(#au)"/><path d="M247 332.33s-.74.4-7 2.8-4 5-8.81 8.41a27.18 27.18 0 0 1-11.27 4 112 112 0 0 0-3.67-11.54c-2.86-8-1.88-23.17-2.4-43.76s-12.87-35-22.13-49.59c-1-1.55-1.9-3.06-2.74-4.5.12 10.11-1 24.85-4.17 35.21-3.32 11-10.69 11.16-21.06 7-11.11-4.41-4.64-31.4-11-45.13-6-13 .4-22 .4-22l13.5-4.41 12.53-.74s1.92 3.28 4 7.57l11.87-7.57 17.9 3.28s0 4.67 11 24.06 13.67 26.2 12.3 57.31c-.91 21.27 10.75 39.6 10.75 39.6z" fill="url(#av)"/><path fill="url(#aw)" d="M113.53 67.72l-54.37 45.36 31.57 3.26 26.34 6.78-3.54-55.4z"/><path fill="url(#ax)" d="M113.53 67.72l-22.8 48.62 26.34 6.78-3.54-55.4z"/><path fill="url(#ay)" d="M113.53 67.72l-18.42 56.52-4.38-7.9 22.8-48.62z"/><path d="M104.29 110.34s.63-.76-.45-2.17c-1.88-2.44.31-4.15.66-6.54s-.83-2.32-2.4-3.61a13.76 13.76 0 0 1-1.63-1.57 1.33 1.33 0 0 0-2.24.51 2.22 2.22 0 0 0 .14 1.71A5.5 5.5 0 0 0 100 101a5.44 5.44 0 0 0-1.37 3.54 5.68 5.68 0 0 0 1.88 4.2s-3.29 3.3-2.69 6 3.53 2.66 3.53 2.66l1.27-3.09z" fill="url(#az)"/><path d="M267.5 106.22s3.54 1.21 5 6.23a19.27 19.27 0 0 1 0 10l-6.14-.88-3.94-3-1-7.51z" fill="url(#aA)"/><path d="M280.67 116.74s.81 1.62 1.69 1.85 2.79 0 3.73.7a3.93 3.93 0 0 1 1.27 1.86s-3.52.47-5.51-.2a46 46 0 0 1-5.41-2.5l-.53-2.28 2-.43z" fill="url(#aB)"/><path d="M288.51 116.76a2.68 2.68 0 0 1 .82 2.09 5.3 5.3 0 0 0 .35 1.6 1.13 1.13 0 0 0 2.05.18 23.08 23.08 0 0 0 1.26-2.49 6.63 6.63 0 0 0 .77-3h-3.15z" fill="url(#aC)"/><path d="M266.9 109.94a6.46 6.46 0 0 0 4.35-.38c2.66-1 4.12-4.29 9.87-4.54a28.41 28.41 0 0 1 9.79 1.6 4.16 4.16 0 0 1 2.61 2.64 9.63 9.63 0 0 1 .51 3.87c-.11 1-.25 1.87-.37 2.5a1.94 1.94 0 0 1-2 1.55 18.68 18.68 0 0 1-2.91-.37c-2.18-.47-5.36-1.2-7.85-.17s-2.16 1.85-5.13 1.82a11.31 11.31 0 0 1-2.88-.32 2.27 2.27 0 0 0-1.76.23l-1.57.92s-5-2.6-6-3-2.09-3-2.09-3z" fill="url(#aD)"/><path d="M172.81 129.61s-4.6-1.14-10.44 1.89-4.17 4.75-13.27 3.78-12.71 1.7-17-1.52-12.44-13.07-17.41-17.88a40 40 0 0 0-8.47-6.57 12.15 12.15 0 0 0-6.09 3.86 15.34 15.34 0 0 0-3.09 5.75s20 29.68 34.66 33 22.4 1.71 22.4 1.71 3.43 10.3 1.45 19.91-6.76 15.59-7.86 25.6c-1.06 9.66 1.17 16.44 5.89 18.16s19.51 3 30.6-.77c7.65-2.61 18.37-2.87 24.29-2.77a5.24 5.24 0 0 0 5.26-4.55 37.51 37.51 0 0 0-1.75-18 54.27 54.27 0 0 1-2.4-29.74c1.6-7.32 1.14-13.79 5.72-14.56s14.64-1.46 22.54-6.38 34.66-18.18 34.66-18.18-4.41-3.44-5.32-8a17.44 17.44 0 0 1 .28-8.18 86.32 86.32 0 0 1-9.81 6.09c-7.25 4.06-21.36 14.27-26.28 15s-13.25 2.23-20 1.21a123.85 123.85 0 0 0-19.17-1z" fill="url(#aE)"/><path d="M188.09 147a5.29 5.29 0 0 0-3.28.28 7.29 7.29 0 0 0-2 1.22 31.14 31.14 0 0 0-4.46 4.64 38 38 0 0 1-4.49-10.54c-1.2-5.41-.64-8.43-.64-8.43l6.9.39 6.72 5 .92 5.4z" fill="url(#aF)"/><path d="M196.47 152.8a27.48 27.48 0 0 0-4-3.48 19.34 19.34 0 0 0-2.79-1.7 11 11 0 0 0-1.61-.65l.43-2 1.53-7.32 3.9-.56a30 30 0 0 1 2.23 7.11c.31 2.8.31 8.6.31 8.6z" fill="url(#aG)"/><path d="M186.36 151.25s-.65 10.45 1.35 16.91 1.55 21.91 1.55 21.91 1.15 3.32 1.94 6.62a32.37 32.37 0 0 1 .82 4.64 26.54 26.54 0 0 0 5.44-6.78 33.2 33.2 0 0 0 2.75-5.94 20.55 20.55 0 0 0-2-13.41c-4.28-8.06-9-24.52-9-24.52l-1.2-1.48z" fill="url(#aH)"/><path d="M173.22 126.69s-1.54 7 1.38 10.24 13.49 10 13.49 10 6.24-7.33 5.86-9.91-1.76-2.44-1.63-5.83 0-6.3 0-6.3l-4.43-2.24-13.25-2.14z" fill="url(#aI)"/><path d="M189.7 149.62a3.46 3.46 0 0 1-.72 1.49 1.69 1.69 0 0 1-2 .46 4.81 4.81 0 0 1-1.6-1.21 3.82 3.82 0 0 1-.52-3.11 5.29 5.29 0 0 1 3.28-.28 11 11 0 0 1 1.61.65 3.75 3.75 0 0 1-.05 2z" fill="url(#aJ)"/><path d="M186.85 91.58a40.27 40.27 0 0 1 10.32 12.79c2.83 5.76 2.78 17.69 2.78 17.69a21.45 21.45 0 0 1-13.1 3 46.69 46.69 0 0 1-14-4.37l-7.55-1.89-1.72-10.43 1.46-8 9.18-7.63z" fill="url(#aK)"/><path d="M185 77.5s5.4 10.25 2 14.88c-3 4.11-14.95 3.65-16.36 9.82-1.49 6.52.89 5.68 2.59 8.72 1.24 2.2.69 4.33.3 4.16s-3.63-4.64-5-2.17.72 5.58 2.9 5.88 3.62-.67 5.28 1.27c1.48 1.73-.81 7.48-5.79 6.79s-12.31-3.53-14.31-10.91 0-10.29 0-10.29-2.3-11.65 6.11-17.22c8.58-5.66 12.31-2.16 16.35-4.29A14.19 14.19 0 0 0 185 77.5z" fill="url(#aL)"/><path d="M268.71 121.89a1.39 1.39 0 1 1-1.39-1.39 1.39 1.39 0 0 1 1.39 1.39zm-160.77-8.2a1.4 1.4 0 1 1-1.39-1.39 1.39 1.39 0 0 1 1.39 1.39z" fill="#ebf0e1"/></g></svg>