<svg xmlns="http://www.w3.org/2000/svg" viewBox="0 0 678.63 375.97"><defs><style>.cls-1{fill:none}.cls-2{fill:#80d8ff}.cls-3{fill:#4053ad}.cls-4{fill:#e3f2fd}.cls-5{fill:#fff}.cls-8{fill:#1a237e}.cls-9{fill:#f3f0f7}.cls-10{fill:#afbffe}.cls-11{fill:#ff9e80}.cls-12{fill:#223056}.cls-14{fill:#f4c9c9}.cls-15{fill:#fcd73b}.cls-16{fill:#3359c4}.cls-18{fill:#fe8a65}.cls-20{fill:#ffd740}.cls-24{fill:#fdfeff}.cls-31{fill:#f5fbfe}.cls-32{fill:#f4fafe}.cls-33{fill:#f3f9fe}.cls-34{fill:#f2f9fe}.cls-35{fill:#f0f8fe}.cls-36{fill:#eff8fe}.cls-37{fill:#edf7fe}.cls-38{fill:#ecf6fe}.cls-39{fill:#eaf5fe}.cls-40{fill:#e8f5fd}.cls-41{fill:#e7f4fd}.cls-42{fill:#e5f3fd}.cls-47{fill:#f9efef}.cls-48{fill:#5c6bbe}</style><clipPath id="clip-path"><path class="cls-1" d="M184.83 214.45l-18.26-2.92-22.18 26.49 17.5 3.15 22.94-26.72z"/></clipPath><clipPath id="clip-path-2"><path class="cls-1" d="M88.61 229.9l22.48-1.24 8.53 25.73-21.99 1.62-9.02-26.11z"/></clipPath></defs><g id="レイヤー_2" data-name="レイヤー 2"><g id="レイヤー_1-2" data-name="レイヤー 1"><g id="Layer_1" data-name="Layer 1"><path class="cls-2" d="M64.31 201.15a20.41 20.41 0 1 0-38.55.1 20.65 20.65 0 0 1-3.8 20 30 30 0 1 0 46.08 0 20.67 20.67 0 0 1-3.73-20.1z"/><path class="cls-3" d="M45 302.67a1 1 0 0 1-1-1V175a1 1 0 0 1 2 0v126.67a1 1 0 0 1-1 1z"/><path class="cls-3" d="M45 204.81a1 1 0 0 1-.71-.29l-18-18a1 1 0 0 1 1.41-1.41l18 18a1 1 0 0 1 0 1.42 1 1 0 0 1-.7.28zm0 13.42a1 1 0 0 1-1-1 1 1 0 0 1 .3-.72l20.46-20.45a1 1 0 0 1 1.41 1.41l-20.44 20.46a1 1 0 0 1-.73.3zm0 19.23a1 1 0 0 1-.71-.29l-20.11-20.09a1 1 0 0 1 1.42-1.41l20.09 20.08a1 1 0 0 1 0 1.42 1 1 0 0 1-.69.29zm0 18.08a1 1 0 0 1-1-1 1 1 0 0 1 .32-.76L71.12 227a1 1 0 0 1 1.41 0 1 1 0 0 1 0 1.41l-26.8 26.81a1 1 0 0 1-.73.32z"/><path class="cls-4" d="M639.92 200.35a21 21 0 1 0-39.59.1 21.19 21.19 0 0 1-3.89 20.55 30.81 30.81 0 1 0 47.3-.05 21.2 21.2 0 0 1-3.82-20.6z"/><path class="cls-3" d="M620.11 304.81a1 1 0 0 1-1-1v-130a1 1 0 0 1 2 0v130a1 1 0 0 1-1 1z"/><path class="cls-3" d="M620.15 204.33a1 1 0 0 1-.7-.3l-18.51-18.5a1 1 0 0 1 0-1.41 1 1 0 0 1 1.41 0l18.51 18.51a1 1 0 0 1-.71 1.71zm0 13.81a1 1 0 0 1-.7-.29 1 1 0 0 1 0-1.41l21-21a1 1 0 0 1 1.41 0 1 1 0 0 1 0 1.41l-21 21a1 1 0 0 1-.71.29zm-.04 19.75a1 1 0 0 1-.71-.29L598.78 217a1 1 0 0 1 1.3-1.52l.11.11 20.63 20.62a1 1 0 0 1 0 1.42 1 1 0 0 1-.71.26zm.04 18.56a1 1 0 0 1-1-1 1 1 0 0 1 .3-.71L647 227.22a1 1 0 0 1 1.41 0 1 1 0 0 1 0 1.41l-27.53 27.53a1 1 0 0 1-.73.29z"/><path class="cls-2" d="M460.29 272.83l18.7 11.11-12 17.25-16.12-9.58 9.42-18.78zm39.35 11.54l18.97-10.64 8.94 19.01-16.35 9.18-11.56-17.55zm29.67-28.31l.27-21.75 20.94 1.76-.24 18.75-20.97 1.24zm-9.68-39.85l-18.7-11.11 11.99-17.25 16.12 9.58-9.41 18.78zm-39.35-11.54l-18.98 10.64-8.94-19.01 16.36-9.18 11.56 17.55zm-29.67 28.31l-.27 21.75-20.94-1.76.23-18.75 20.98-1.24z"/><path class="cls-2" d="M490.53 198.28a46.24 46.24 0 1 0 45.67 46.82 46.24 46.24 0 0 0-45.67-46.82zm6.14 54.53a10.69 10.69 0 1 1 1.61-15 10.68 10.68 0 0 1-1.61 15z"/><path class="cls-3" d="M490.53 278a33.51 33.51 0 1 1 32.93-34 33.56 33.56 0 0 1-32.93 34zm-1.12-65.65A32.14 32.14 0 1 0 522.1 244a32.14 32.14 0 0 0-32.69-31.62z"/><path class="cls-5" d="M528.52 238.71a.66.66 0 0 1-.68-.57 39.36 39.36 0 0 0-31.53-32.42.68.68 0 0 1-.54-.79.67.67 0 0 1 .78-.54 40.69 40.69 0 0 1 32.67 33.54.68.68 0 0 1-.54.78h-.17zM490.31 267a22.48 22.48 0 1 1 22.1-22.86 22.48 22.48 0 0 1-22.1 22.86zm-.74-43.6a21.12 21.12 0 1 0 21.48 20.76 21.12 21.12 0 0 0-21.48-20.76z"/><path fill="#dadada" d="M510.02 264.56h42.65v39.6h-42.65z"/><path fill="#ffe697" d="M560.47 304.16H517l-6.98-39.6h43.46l6.99 39.6z"/><path class="cls-8" d="M535.92 295.48a1 1 0 0 1-.65-.23l-11.07-9a1 1 0 1 1 1.29-1.58l10 8.15 7.61-18.92a1 1 0 0 1 1.89.77l-8.12 20.14a1 1 0 0 1-.7.61 1 1 0 0 1-.25.06z"/><path class="cls-9" d="M13.41 304.06h665.21s-49.58 9.24-56 20.68c-8.67 15.43-29.51 23.05-59.6 25-60.55 4-65.82 15.69-88.07 21.58-21.95 5.83-66.61 6.7-116.38-5.62s-60.5.62-83.51 2.13-55.28-1.08-82.17-13-57.47-1.38-85.58-8c-25.95-6.13-44.75-12.74-50.24-21.52-8.86-14.24-43.66-21.25-43.66-21.25z"/><path class="cls-3" d="M499.59 137.19h16.81v46.5h-16.81z"/><path class="cls-10" d="M498.65 103.59a10.55 10.55 0 0 0-10.53 10.52v12.56a10.55 10.55 0 0 0 10.53 10.52h17.79v-33.6z"/><path class="cls-4" d="M515.65 103.59h22.49v33.61h-22.49z"/><path class="cls-4" d="M534.59 103.59v33.6l41.68 23.13V80.46l-41.68 23.13z"/><path class="cls-10" d="M576.49 164.94a4.49 4.49 0 0 1-4.48-4.48v-80.6a4.5 4.5 0 0 1 4.48-4.48 4.5 4.5 0 0 1 4.51 4.48v80.6a4.49 4.49 0 0 1-4.51 4.48z"/><path class="cls-9" d="M158.24 109.03h69.05v69.05h-69.05z"/><path class="cls-2" d="M143.42 99.13h3.76v88.84h-3.76zm12.94 0h3.76v88.84h-3.76z"/><path class="cls-2" d="M143.42 103.92h16.22v3.76h-16.22zm0 12.58h16.22v3.76h-16.22zm0 12.59h16.22v3.76h-16.22zm0 12.58h16.22v3.76h-16.22zm0 12.59h16.22v3.76h-16.22zm0 12.58h16.22v3.76h-16.22zm0 12.59h16.22v3.76h-16.22zM225 99.13h3.76v88.84H225zm12.93 0h3.76v88.84h-3.76z"/><path class="cls-2" d="M225 103.92h16.22v3.76H225zm-.01 12.59h16.22v3.76h-16.22zm.01 12.58h16.22v3.76H225zm-.01 12.59h16.22v3.76h-16.22zm.01 12.58h16.22v3.76H225zm-.01 12.59h16.22v3.76h-16.22zm.01 12.58h16.22v3.76H225z"/><path class="cls-11" d="M211.31 143.55l-32.51 18.77v-37.53l32.51 18.76z"/><path class="cls-8" d="M677 303.54H15.17a1.51 1.51 0 0 1-.35-3 2 2 0 0 1 .35 0H677a1.51 1.51 0 0 1 .35 3z"/><path class="cls-10" d="M457.6 105.39a15.62 15.62 0 0 0-14.67-15.58H442a15.62 15.62 0 0 0-15.62 15.62v23.17h31.22z"/><path class="cls-4" d="M441.92 89.81h-154a15.62 15.62 0 0 0-15.61 15.58v192.14h154.05l-.05-192.14a15.62 15.62 0 0 1 15.61-15.58z"/><path class="cls-11" d="M442.15 178.14s-1.38 1.52 2.29 9.07a.93.93 0 0 0 1.21.44 17.37 17.37 0 0 0 3.66-2.34l1.23-4.7s-1.23-9.15-8.39-2.47z"/><path class="cls-12" d="M459.62 221.6l-2 .41c-1.51-.81-4.46-2.28-10-4.75-9 5.51-31.15 4.13-32.62 10.47s5.06 36.47 5.06 36.47a27 27 0 0 0 5.81-.74c.79-9.38 1.21-25.59 1.27-28.39 3.71-.33 26 .26 27.86-1.73a17.11 17.11 0 0 0 4.62-11.74z"/><path d="M417.17 207.81h1.9a1 1 0 0 1 .82.42l8.79 12.13-2.09.39z" fill="#303f9f"/><path class="cls-11" d="M447.3 186.2l1.39 4.85 5.33-4.94-2.55-4.07-2.2-.29-1.97 4.45z"/><path class="cls-14" d="M447.3 186.16l1.51-1.97-.98 3.83-.53-1.86z"/><path class="cls-3" d="M454 180.53a1.84 1.84 0 0 0-1.54-2c-1.73-.73-2.05-2.35-2.92-4.05-1-1.87-3.81-1.17-4.42-.29-1.53 2.2-5.58.24-4.71 4.44 1 3.08 4.12-.67 4.12-.67.6.56.51 1.12 1.07 2 .79 1.27 1.38.67 2.35.12s2 1.07 1.23 2.39a3.17 3.17 0 0 0 2.31.39 3.27 3.27 0 0 0 .74-.21c.77-.32 1.77-.96 1.77-2.12z"/><path class="cls-3" d="M449.23 182.47a2.15 2.15 0 0 1-1.12.16 7.73 7.73 0 0 1-1.67 2.14 4.09 4.09 0 0 0-3.28-.27c.33.83.74 1.77 1.26 2.83a1 1 0 0 0 1.24.45c4.45-1.49 3.57-5.31 3.57-5.31z"/><path class="cls-15" d="M453.9 185.4a18.87 18.87 0 0 1 7.73 11.82c1.32 7.74 1.88 17-2.4 28-11.24-3.62-13.72-6.35-13.72-6.35s-2.75-15-2-18.91 4.28-10.66 4.28-10.66z"/><path class="cls-12" d="M454.07 185.38l-4.88 6.59-1.48-2.55 5.54-4.73.82.69z"/><rect class="cls-5" x="421.35" y="206.33" width=".96" height="16.96" rx=".28" transform="rotate(-35.54 421.838 214.813)"/><rect class="cls-5" x="425.68" y="219.17" width="17.89" height="1.5" rx=".44" transform="rotate(-10.59 434.621 219.897)"/><path class="cls-11" d="M460.56 198s1.14 10.45-1.7 16a2 2 0 0 1-1.52 2.39h-.31c-.43 0-5.39 4.11-18.68 3.86-.59-2.76-.69-3-.69-3s10.2-6.21 14.3-6.88c-.21-6.32-.08-10.88-.08-10.88z"/><path class="cls-11" d="M439.76 216.74a10.63 10.63 0 0 1-5.1-.41c-2.35-.92-4.28 2.1-4.28 2.1s-1 1.69.55 1.78 1.82-.82 2.47-.83.65 2.17 5.38 1.06c3.96-.92.98-3.7.98-3.7z"/><path class="cls-15" d="M451.19 209.21s-2.34-16.4 2.89-19.31c6.49-3.62 7.55 9.11 6.77 18.06a61.53 61.53 0 0 1-9.66 1.25z"/><path class="cls-3" d="M426 262.39l1.31 4.1a.53.53 0 0 1-.3.69h-.05l-12.11 3.49a3.9 3.9 0 0 1 .34-2.64c.7-1.35 4-2.16 4.81-4.17.39-1.12 1.88-.06 2.59 0s3.41-1.47 3.41-1.47z"/><path class="cls-5" d="M451.21 208.39c-2.43-10.63-1.09-15.23.47-17.21a3.72 3.72 0 0 1 2.66-1.59v.34a3.47 3.47 0 0 0-2.4 1.47c-1.51 1.93-2.8 6.43-.39 16.91z"/><path class="cls-16" d="M123.7 211.68s5.11-1.4 3.12-11.51c-.54-3.23 2.38-9.24.1-13.4a11.42 11.42 0 0 0-7-5.7c-3.71-1.08-8.66-1.78-11 8s-4.46 7.43-7.58 11.79-1.94 7.1 1 7.74 3.76 4.26 7.64 2 8.23 2.27 13.72 1.08z"/><path d="M103.56 229l3.36-11.46z" fill="#febf18"/><path class="cls-15" d="M87.74 245.16c1.49-5.59.6-8.27 4.18-20.62 4.67-16.08 11.91-15.91 11.91-15.91 4.06-.42 3.06 12.26 3.06 12.26l-1.53 2.82c-2.13 4.64-7.11 16-5.84 18.57 1.61 3.19 2.39 8.47-3.43 10s-9.85-1.53-8.35-7.12z"/><path class="cls-15" d="M124.07 206.06l7.71 2.6s1.91 5.9 2.83 8.42 4.41 8.56-.58 14.16-5 18.15-5 18.15-13.74 5.31-22.55-1.49a69.68 69.68 0 0 0-5.37-19.41s6.26-7.78 0-18.87a47.28 47.28 0 0 1 9.56-3.59z"/><path class="cls-12" d="M100.79 248.4S96 258.46 97.63 280s10.84 85.16 10.84 85.16l8.41 1.11s-.73-55.94 3.84-96.14c-8.84-16.27-19.93-21.73-19.93-21.73z"/><path class="cls-12" d="M128.59 249.09s15.36 25 17.65 60.5a14.14 14.14 0 0 1-.3 3.84c-8.69 39.89-14.08 53.29-14.08 53.29h-7.35s.74-28.5 7.54-54.92c-11.36-25.06-15.44-32.8-15.44-32.8l-10.89-30z"/><path class="cls-16" d="M124.92 364.45L123.5 371a.82.82 0 0 0 .61 1l18.5 3.33a6.08 6.08 0 0 0-1-4.06c-1.31-2-6.65-2.69-8.21-5.69-.78-1.68-3 .21-4.06.46s-4.42-1.59-4.42-1.59z"/><path class="cls-15" d="M133.08 208.49s-15.61-7.87-32.68.63c11.48 8.01 28.46 6.4 32.68-.63z"/><path class="cls-18" d="M121.43 198.28s.15 4.7.36 5.26 4 3.2 4 3.2-3.13 3.41-5.19 3.87a10.92 10.92 0 0 1-10.6-4.23c3.66-2.32 3.85-2 4-2.94s1.63-10.57 1.63-10.57z"/><path d="M116.49 197.16l5 3.3a20.23 20.23 0 0 0 .25 2.8 6.86 6.86 0 0 1-5.25-6.1z" fill="#ced7dd"/><path class="cls-18" d="M124.89 188.71s1.51 7.45-2.28 11.16a2 2 0 0 1-1.57.58c-3.46-.26-5.25-3.6-6.07-5.38-1.48-.94-2.42-4.59 1.24-4 2-.09 1.28-3.94 3.22-5.52 0-.05 2.88-2.87 5.46 3.16z"/><path class="cls-16" d="M127.31 192.48a6.6 6.6 0 0 1-4.68-4.1c-1.68-3.71-3.62-4.11-3.62-4.11l5.55-.53s3.24 1.59 2.75 8.74zm-10.72 173.68s1.74 6.49-.24 9.17c-4.72 1-7.84.75-9.59-.25-.13-2.8 1-4.06 2.19-5.8.64-3.52.74-4.67.74-4.67s4.89-2.37 6.9 1.55z"/><path class="cls-20" d="M130.31 208s4.41.22 7.7 6.42 3.52 10.34 5.38 16.17a38.83 38.83 0 0 0 3.91 8.41s5-1.1 17-10.63c2.88 5.77 3.25 5.28 3.25 5.28s-12.5 14.17-21.79 15.22a4.09 4.09 0 0 1-3.4-1.17c-9.76-10.25-12-24.34-12-24.34z"/><g clip-path="url(#clip-path)"><path class="cls-5" d="M184.36 241.17l.47-6.01v6.01h-.47zm-1.38 0l1.85-23.62v17.61l-.47 6.01h-1.38zm-1.38 0l2.32-29.64h.91v6.02l-1.85 23.62h-1.38zm-1.38 0l2.33-29.64h1.37l-2.32 29.64h-1.38z"/><path fill="#feffff" d="M178.85 241.17l2.32-29.64h1.38l-2.33 29.64h-1.37z"/><path fill="#fefeff" d="M177.47 241.17l2.32-29.64h1.38l-2.32 29.64h-1.38z"/><path class="cls-24" d="M176.09 241.17l2.32-29.64h1.38l-2.32 29.64h-1.38z"/><path class="cls-24" d="M174.71 241.17l2.32-29.64h1.38l-2.32 29.64h-1.38z"/><path fill="#fcfeff" d="M173.33 241.17l2.32-29.64h1.38l-2.32 29.64h-1.38z"/><path fill="#fbfdff" d="M171.95 241.17l2.33-29.64h1.37l-2.32 29.64h-1.38z"/><path d="M170.58 241.17l2.32-29.64h1.38l-2.33 29.64h-1.37zm-1.38 0l2.32-29.64h1.38l-2.32 29.64h-1.38z" fill="#fafdff"/><path fill="#f9fcff" d="M167.82 241.17l2.32-29.64h1.38l-2.32 29.64h-1.38z"/><path fill="#f8fcfe" d="M166.44 241.17l2.32-29.64h1.38l-2.32 29.64h-1.38z"/><path fill="#f7fbfe" d="M165.06 241.17l2.32-29.64h1.38l-2.32 29.64h-1.38z"/><path class="cls-31" d="M163.68 241.17l2.32-29.64h1.38l-2.32 29.64h-1.38z"/><path class="cls-32" d="M162.31 241.17l2.32-29.64H166l-2.32 29.64h-1.37z"/><path class="cls-33" d="M160.93 241.17l2.32-29.64h1.38l-2.32 29.64h-1.38z"/><path class="cls-34" d="M159.55 241.17l2.32-29.64h1.38l-2.32 29.64h-1.38z"/><path class="cls-35" d="M158.17 241.17l2.32-29.64h1.38l-2.32 29.64h-1.38z"/><path class="cls-36" d="M156.79 241.17l2.32-29.64h1.38l-2.32 29.64h-1.38z"/><path class="cls-37" d="M155.41 241.17l2.32-29.64h1.38l-2.32 29.64h-1.38z"/><path class="cls-38" d="M154.03 241.17l2.32-29.64h1.38l-2.32 29.64h-1.38z"/><path class="cls-39" d="M152.66 241.17l2.32-29.64h1.37l-2.32 29.64h-1.37z"/><path class="cls-40" d="M151.28 241.17l2.32-29.64h1.38l-2.32 29.64h-1.38z"/><path class="cls-41" d="M149.9 241.17l2.32-29.64h1.38l-2.32 29.64h-1.38z"/><path class="cls-42" d="M148.52 241.17l2.32-29.64h1.38l-2.32 29.64h-1.38z"/><path class="cls-4" d="M147.14 241.17l2.32-29.64h1.38l-2.32 29.64h-1.38z"/><path class="cls-4" d="M149.46 211.53l-2.32 29.64h-2.75v-29.64h5.07z"/></g><path class="cls-18" d="M174.42 227.92a4.46 4.46 0 0 0-3.1-5.49l-.18-.05c-.93-.21-2.58 2.32-2.21 5.38S165.7 235 165.7 235s6.61.81 8.72-7.08z"/><path class="cls-12" d="M99.12 235.51l-1-.23a54.87 54.87 0 0 1 5.88-14.06l.85.52a54.25 54.25 0 0 0-5.73 13.77z"/><g clip-path="url(#clip-path-2)"><path class="cls-31" d="M118.89 256.01l.73-10.51v10.51h-.73z"/><path class="cls-32" d="M117.72 256.01l1.89-27.35h.01v16.84l-.73 10.51h-1.17z"/><path class="cls-33" d="M116.56 256.01l1.88-27.35h1.17l-1.89 27.35h-1.16z"/><path class="cls-34" d="M115.39 256.01l1.89-27.35h1.16l-1.88 27.35h-1.17z"/><path class="cls-35" d="M114.22 256.01l1.89-27.35h1.17l-1.89 27.35h-1.17z"/><path class="cls-36" d="M113.05 256.01l1.89-27.35h1.17l-1.89 27.35h-1.17z"/><path class="cls-37" d="M111.89 256.01l1.88-27.35h1.17l-1.89 27.35h-1.16z"/><path class="cls-38" d="M110.72 256.01l1.88-27.35h1.17l-1.88 27.35h-1.17z"/><path class="cls-39" d="M109.55 256.01l1.89-27.35h1.16l-1.88 27.35h-1.17z"/><path class="cls-40" d="M108.38 256.01l1.89-27.35h1.17l-1.89 27.35h-1.17z"/><path class="cls-41" d="M107.22 256.01l1.88-27.35h1.17l-1.89 27.35h-1.16z"/><path class="cls-42" d="M106.05 256.01l1.89-27.35h1.16l-1.88 27.35h-1.17z"/><path class="cls-4" d="M104.88 256.01l1.89-27.35h1.17l-1.89 27.35h-1.17z"/><path class="cls-4" d="M106.77 228.66l-1.89 27.35H88.61v-27.35h18.16z"/></g><path class="cls-18" d="M92.92 249.18a1.35 1.35 0 0 1 .6-1.81c1-.44 2.21-1 2.73-1.15a72.7 72.7 0 0 1 7.23-.16s2 2 .19 3.65a33.85 33.85 0 0 1-4.15 3.09s-3.7 2.2-6.6-3.62z"/><path class="cls-2" d="M353.13 159.38h62.07v47.29h-62.07z"/><path class="cls-4" transform="rotate(-90 381.51 185.39)" d="M366.07 161.59h33.36v46.75h-33.36z"/><path d="M387.12 176.05a3.12 3.12 0 1 1-3.11-3.13 3.12 3.12 0 0 1 3.11 3.13z" fill="#fcbdac"/><path class="cls-3" d="M359.37 186.72l10.59-10.5 15.89 16.03 9-8.92 11.23 11.32-.03 7.08-46.75-.2.07-14.81zm88.17 112.63h-102.9a13.62 13.62 0 0 1-13.57-13.54 13.62 13.62 0 0 1 13.57-13.58h102.9a13.62 13.62 0 0 1 13.58 13.58 13.61 13.61 0 0 1-13.58 13.54z"/><rect class="cls-5" x="389.16" y="277.71" width="4.38" height="16.13" rx=".9"/><rect class="cls-5" x="398.64" y="277.71" width="4.38" height="16.13" rx=".9"/><rect class="cls-5" x="346.87" y="277.7" width="4.38" height="16.13" rx=".9"/><path class="cls-5" d="M348.12 286.07l14.51 8.38a.37.37 0 0 0 .48-.13.53.53 0 0 0 0-.17v-16.76a.34.34 0 0 0-.36-.34.32.32 0 0 0-.16 0l-14.51 8.38a.35.35 0 0 0 0 .6z"/><rect class="cls-5" x="440.94" y="277.71" width="4.38" height="16.13" rx=".9"/><path class="cls-5" d="M444.07 286.07l-14.52 8.38a.37.37 0 0 1-.48-.13.53.53 0 0 1 0-.17v-16.76a.34.34 0 0 1 .36-.34.32.32 0 0 1 .16 0l14.52 8.38a.35.35 0 0 1 0 .6zm-32.51-177.73h-55.49a2.33 2.33 0 0 1-2.32-2.32 2.34 2.34 0 0 1 2.32-2.33h55.49a2.35 2.35 0 0 1 2.33 2.33 2.34 2.34 0 0 1-2.33 2.32zm0 13.29h-45.15a2.34 2.34 0 0 1-2.32-2.33 2.33 2.33 0 0 1 2.32-2.32h45.15a2.34 2.34 0 0 1 2.33 2.32 2.34 2.34 0 0 1-2.33 2.33zm-17.75 104.72h-81.95a2.56 2.56 0 0 1-2.55-2.54 2.56 2.56 0 0 1 2.56-2.56h81.94a2.56 2.56 0 0 1 2.55 2.56 2.56 2.56 0 0 1-2.55 2.54zm-11.07 13.28h-73.43a2.32 2.32 0 0 1-2.32-2.32 2.32 2.32 0 0 1 2.32-2.32h73.45a2.32 2.32 0 0 1 2.32 2.32 2.32 2.32 0 0 1-2.32 2.32zm28.82-104.72h-51.11a2.32 2.32 0 0 1-2.32-2.32 2.32 2.32 0 0 1 2.32-2.32h51.11a2.34 2.34 0 0 1 2.33 2.32 2.34 2.34 0 0 1-2.33 2.32zm-73.32 29.83h-48.69a2.34 2.34 0 0 1-2.33-2.33 2.34 2.34 0 0 1 2.33-2.32h48.69a2.33 2.33 0 0 1 2.32 2.32 2.34 2.34 0 0 1-2.32 2.33zM329.06 178h-39.51a2.34 2.34 0 0 1-2.33-2.32 2.34 2.34 0 0 1 2.33-2.32h39.51a2.34 2.34 0 0 1 2.33 2.32 2.34 2.34 0 0 1-2.33 2.32zm5.25 13.31h-44.8a2.34 2.34 0 0 1-2.33-2.32 2.35 2.35 0 0 1 2.33-2.33h44.8a2.35 2.35 0 0 1 2.33 2.33 2.34 2.34 0 0 1-2.33 2.32zm77.25-43.11h-45.15a2.34 2.34 0 0 1-2.32-2.33 2.33 2.33 0 0 1 2.32-2.32h45.15a2.34 2.34 0 0 1 2.33 2.32 2.34 2.34 0 0 1-2.33 2.33zm-124.1-47.85h53.1v47.85h-53.1z"/><path class="cls-3" d="M298.84 140.63l13-32.71h4.6l12.77 32.71h-5l-3.55-9h-13.91l-3.61 9zm9.24-12.51h11.23L313.72 114z"/><path class="cls-11" d="M279.22 113.36l1.66 12.51s2.18 1.49 3.4 0c.48-3.06 1.43-16.06 1.43-16.06zm9.78.93l.92 14.5s2 1.39 3.22-.43 1.76-17.28 1.76-17.28z"/><path class="cls-8" d="M285.1 124l1.45 3.76a.5.5 0 0 1-.28.66l-10.6 3.67a3.66 3.66 0 0 1 .19-2.48c.59-1.29 3.67-2.2 4.31-4.12.31-1.06 1.77-.15 2.44-.1s2.49-1.39 2.49-1.39zm8.5 3.29s1 3.88-.14 5.47c-2.82.58-4.68.45-5.72-.15a4.91 4.91 0 0 1 1.3-3.46c.38-2.1.44-2.79.44-2.79s2.92-1.36 4.12.93z"/><path class="cls-3" d="M304.49 42.57c2.86 2.39 2.7 7.07 5.39 9.65 1.37 1.32 3.26 1.88 5 2.59s3.58 1.73 4.31 3.48a8.14 8.14 0 0 1 .86 3c0 1.06-.95 2.08-.93 3.15a17.75 17.75 0 0 1 .23 3c-.49 2.29-2.43 3.09-4.66 3.8a14.73 14.73 0 0 1-9.3-.26 20.66 20.66 0 0 1-7.82-5.17 13.72 13.72 0 0 1-2.83-4 7 7 0 0 1-.4-4.79c.36-1.16 1.1-2.23 1.19-3.45.17-2.2-1.83-4.06-2-6.27-.14-2.51 2.26-3.65 4-4.83a5.79 5.79 0 0 1 6.96.1z"/><path class="cls-20" d="M289.39 64.29c-.58 1.82-.78 3.75-1.41 5.55a24.64 24.64 0 0 1-2.2 4.31l-4.25 7.09a2.57 2.57 0 0 0-.4 1 1.63 1.63 0 0 0 1.69 1.57 4 4 0 0 0 2.34-1.1c4.5-3.71 6.59-9.5 9.57-14.51a12 12 0 0 0 2.08-4.76c.16-1.57.6-5.84-3.21-5.19-1.9.31-3.71 4.47-4.21 6.04z"/><path class="cls-20" d="M292.31 59a7.45 7.45 0 0 1 .12 3.32c-.4 1.4-2 4.82.89 7.65s2.58 9.56 2.58 9.56S303.82 82 308.32 78a45.38 45.38 0 0 0 1.53-11s-2.9-3 0-9.26C298.44 52.27 292.31 59 292.31 59z"/><path class="cls-11" d="M298.57 52.51s.08 2.56 0 2.87a9.67 9.67 0 0 1-1.57 1.51.5.5 0 0 0-.07.7.46.46 0 0 0 .07.07 6.54 6.54 0 0 0 2.51 1.52 6 6 0 0 0 5.2-2.18.5.5 0 0 0-.1-.71.18.18 0 0 0-.07 0c-1.57-.83-1.65-.73-1.75-1.18l-1.25-5.69z"/><path class="cls-14" d="M301.55 51.81l-3 1.94a11.23 11.23 0 0 1-.15 1.64 4 4 0 0 0 3.15-3.58z"/><path class="cls-12" d="M313.31 89.72a11 11 0 0 1-3.57 4.45c-2.39 1.67-11.15 4.49-12.26 6.17-1.23 1.85-1.28 4.2-1.43 6.41-.22 3.17.05 6.38-1 9.36-.46 1.3-3.67 1.47-5.38 1a.93.93 0 0 1-.67-.82c-.57-6-.79-11.25-.8-17.28a11.54 11.54 0 0 1 .49-4c.66-1.77 2.11-1.11 3.58-2.29a68.79 68.79 0 0 1 11.51-7.25c2-1 4.08-2 6.15-3 .73-.35 1.1-1.28 1.89-.93s1.28 1.57 1.57 2.23a7.15 7.15 0 0 1-.08 5.95z"/><path class="cls-12" d="M307.93 75.68s3.66 2.43 5.94 9.66c-6.71 5.53-21 1.92-21.51.18s3.54-8.76 3.54-8.76z"/><path class="cls-12" d="M296.79 79.9l2.19 7c-.17 1.84-.05 3.84-1.45 5.06-1.76 1.53-4.48 1.27-6.47 2.5-1.16.72-3.36 1.29-4 2.5a8.7 8.7 0 0 0-.61 3.42c-.29 4.9-.24 14-1.39 15s-4.9 1.08-5.55-.23c-1.07-3.79-2.44-16.56-2-19.36.23-1.45.7-.87 1.38-2.18a19.64 19.64 0 0 1 3.79-4.82 33 33 0 0 1 7.47-5.43 6.51 6.51 0 0 1 2.14-.8z"/><path fill="#eceff1" d="M295.6 92.33h-19.18l7.58-7.17h19.18l-7.58 7.17z"/><path fill="#d5dee2" d="M295.6 92.33h-19.07l-4.01-12.82h19.06l4.02 12.82z"/><path class="cls-20" d="M310.92 58a6.92 6.92 0 0 1 2.3 2.94 49.28 49.28 0 0 1 3.83 11.39 6.89 6.89 0 0 1 .23 2.07 4.87 4.87 0 0 1-1.61 3 14.61 14.61 0 0 1-2.87 2l-5.1 2.94a31.13 31.13 0 0 1-3.95 2 1.88 1.88 0 0 1-.84.19 2 2 0 0 1-1-.46c-.58-.41-1.22-1-1.2-1.66a2 2 0 0 1 .53-1.18 20.17 20.17 0 0 1 9.8-7 .85.85 0 0 0 .57-.37.94.94 0 0 0 0-.41c-.3-2.59-2.45-4.51-3.61-6.84a15.59 15.59 0 0 1-1.3-4.83c-.27-2.56 1.21-5.65 4.22-3.78z"/><path class="cls-11" d="M301.76 80.94a7.4 7.4 0 0 0-2.83 2.06c-.86 1.27-2.42 3.29-1.5 3.75a3.08 3.08 0 0 0 3.35-1.12A12.85 12.85 0 0 1 303.5 83c.81-.62-.41-1.71-1.74-2.06zm-5.97-32.72s.06 3.92 2.39 5.38a1 1 0 0 0 .85.11c1.72-.52 2.25-2.4 2.46-3.38.64-.64.71-2.59-1.07-1.91-1 .18-1.09-1.84-2.24-2.42 0 0-1.77-1.1-2.39 2.22z"/><path class="cls-9" d="M145.24 20.92h78s-3-9.69-15.24-10.46S195 1.08 186.8.12s-12.71 4-17.88 7.66S151 .81 145.24 20.92zM90 92.57H0S1.59 79.16 15.38 81.9C35 85.81 32.26 76 41.94 75.17c14.81-1.34 14.84 5 20.94 7.67S81.52 76.58 90 92.57zm476.17-62.86h-90S477.76 16.3 491.55 19c19.66 3.91 16.88-5.86 26.56-6.73C532.92 11 533 17.31 539.05 20s18.69-6.28 27.12 9.71z"/><path class="cls-16" d="M297.73 209.81H195.64a8.08 8.08 0 0 0-8.08 8.08v82.42H305.8v-82.5a8.07 8.07 0 0 0-8.07-8z"/><path class="cls-5" d="M183.73 219.84h118.24v80.41H183.73z"/><path class="cls-11" d="M194.31 209.81h97.16A10.54 10.54 0 0 1 302 220.35v11.72H183.73V220.3a10.54 10.54 0 0 1 10.58-10.49z"/><path class="cls-3" d="M225.45 241.01h13.93v12.5h-13.93z"/><path class="cls-2" d="M242.96 241.01h13.93v12.5h-13.93zm17.52 0h13.93v12.5h-13.93zm17.52 0h13.93v12.5H278zm-52.55 17.35h13.93v12.5h-13.93z"/><path class="cls-3" d="M242.96 258.36h13.93v12.5h-13.93zm17.52 0h13.93v12.5h-13.93z"/><path class="cls-2" d="M278 258.36h13.93v12.5H278zm-52.55 17.35h13.93v12.5h-13.93zm17.51 0h13.93v12.5h-13.93zm17.52 0h13.93v12.5h-13.93z"/><path class="cls-3" d="M278 275.71h13.93v12.5H278z"/><path class="cls-20" d="M190.52 241.01h29.09v29.09h-29.09z"/><path class="cls-3" d="M190.52 275.71h29.09v6.25h-29.09z"/><path class="cls-47" d="M209.59 216.42a3.17 3.17 0 1 1-3.17-3.17 3.17 3.17 0 0 1 3.17 3.17z"/><path class="cls-48" d="M206.71 202.09a7.83 7.83 0 1 0-.11 15.66h.11a1.33 1.33 0 0 0 0-2.66 5.17 5.17 0 1 1 5.17-5.17h2.66a7.85 7.85 0 0 0-7.83-7.83z"/><path class="cls-47" d="M233.31 216.42a3.17 3.17 0 1 1-3.17-3.17 3.17 3.17 0 0 1 3.17 3.17z"/><path class="cls-48" d="M230.46 202.09a7.83 7.83 0 1 0-.1 15.66h.1a1.33 1.33 0 0 0 0-2.66 5.17 5.17 0 1 1 5.17-5.17h2.68a7.85 7.85 0 0 0-7.85-7.83z"/><path class="cls-47" d="M257.09 216.42a3.17 3.17 0 1 1-3.17-3.17 3.17 3.17 0 0 1 3.17 3.17z"/><path class="cls-48" d="M254.21 202.09a7.83 7.83 0 1 0-.1 15.66h.1a1.33 1.33 0 0 0 0-2.66 5.17 5.17 0 1 1 5.17-5.17h2.67a7.84 7.84 0 0 0-7.84-7.83z"/><path class="cls-47" d="M280.84 216.42a3.17 3.17 0 1 1-3.17-3.17 3.17 3.17 0 0 1 3.17 3.17z"/><path class="cls-48" d="M278 202.09a7.83 7.83 0 1 0-.1 15.66h.1a1.33 1.33 0 0 0 0-2.66 5.17 5.17 0 1 1 5.17-5.17h2.67a7.84 7.84 0 0 0-7.84-7.83z"/><path class="cls-8" d="M285.22 268.25a1.31 1.31 0 0 1-.9-.36l-5-4.75a1.31 1.31 0 1 1 1.63-2.05 1.29 1.29 0 0 1 .17.16l3.79 3.62 5.32-9.21a1.3 1.3 0 1 1 2.26 1.3l-6.18 10.64a1.29 1.29 0 0 1-.94.64z"/><path class="cls-20" d="M232.76 252.64a1.25 1.25 0 0 1-.9-.36l-5-4.75a1.3 1.3 0 0 1 1.8-1.88l3.79 3.61 5.32-9.21a1.31 1.31 0 0 1 2.26 1.31L233.87 252a1.25 1.25 0 0 1-.94.64z"/></g></g></g></svg>