<svg xmlns="http://www.w3.org/2000/svg" viewBox="0 0 937.39 588.57"><defs><style>.cls-2{fill:#c4b8ff}.cls-3{fill:#ddd6ff}.cls-4{fill:#fff}.cls-5{fill:#ff95a9}.cls-6{fill:#7760db}.cls-7{fill:#40327a}.cls-9{fill:#ffc359}.cls-10{fill:#ff809f}.cls-11{fill:#eeebff}.cls-12{fill:#a796f2}.cls-13{fill:#e5659b}</style></defs><g id="レイヤー_2" data-name="レイヤー 2"><g id="レイヤー_1-2" data-name="レイヤー 1"><g id="_饑1" data-name="饑1"><path d="M882.66 556.32s92.43-60.17 37.06-116.45-71.94-49.3-56-112 80.51-86.06 54.83-133.66c-30.81-57.13-101.06-5-144.73 15-81.18 37.19-80.69-18.41-49.52-70.43S757.72 0 685.72 0C607.41 0 435.3 169.22 340.49 286.17c-56.74 70-98.1 21.3-92.36-23.67 3.66-28.58 11.25-74.78-6.53-96-30.86-36.9-121.52 78.7-153.53 128.08-125.29 193.3 27 261.78 27 261.78zM183.2 84.89c3.52-8 4.64-14.23 2.15-19.32-7.41-15.08-45.14-17.5-69.31-2.82-33.7 20.47-42.61 75.14-27.19 87.25 17.96 14.16 76.2-23.53 94.35-65.11z" fill="#f8f7ff"/><path class="cls-2" d="M423.84 571.33h285.08v2H423.84zm216.24 15.24h124.04v2H640.08zm-265.04 0h226.88v2H375.04zm-170.71 0h33.7v2h-33.7zm43.67 0h10.18v2H248zm495.57-15.01h57.97v2h-57.97zm-430.41-.23h87.88v2h-87.88zm-172.55 0h153.67v2H140.61zm-45.16 0h26.85v2H95.45z"/><path class="cls-3" d="M301.82 82.98h367.49v473.34H301.82z"/><path class="cls-2" d="M669.31 378.33v178H301.82V435.58l367.49-57.25z"/><path class="cls-4" d="M321.83 102.99h327.48v433.34H321.83z"/><path class="cls-5" d="M584.53 222.02l-23.26-19.19 6.37-7.72 15.4 12.72 32.31-40.66 7.83 6.22-38.65 48.63z"/><circle class="cls-6" cx="323.04" cy="223.26" r="13.64" transform="rotate(-48.15 323.046 223.26)"/><path class="cls-7" d="M509.11 195.81h30.33v2h-30.33zm-102.16 0h90.83v2h-90.83zm60.18 14.66h72.31v2h-72.31zm-8.68 0h4.18v2h-4.18zm-92.67 0h82.33v2h-82.33zm0 14.67h117.67v2H365.78z"/><path class="cls-5" d="M584.53 298.64l-23.26-19.2 6.37-7.71 15.4 12.71 32.31-40.65 7.83 6.22-38.65 48.63z"/><path class="cls-7" d="M406.95 272.43h132.5v2h-132.5zm-41.17 0h30.83v2h-30.83zm0 14.66h160.5v2h-160.5zm58.35 14.66h3.32v2h-3.32zm-58.35 0h52.18v2h-52.18z"/><path class="cls-5" d="M584.53 375.26l-23.26-19.2 6.37-7.71 15.4 12.71 32.31-40.65 7.83 6.22-38.65 48.63z"/><path class="cls-7" d="M365.78 349.05h173.67v2H365.78zm119.78 14.66h53.88v2h-53.88zm-119.78 0h107.33v2H365.78zm0 14.66h149v2h-149z"/><path class="cls-4" d="M577.28 226.13h-6.44v-10.72l6.44 10.72z"/><path class="cls-6" d="M577.28 227.13h-7.44v-11.72h2v9.72h5.44v2zm34.56 0h-29.78v-2h27.78v-30.48h2v32.48zm-16.75-41.99h2.94v2h-2.94z"/><path class="cls-4" d="M570.84 190.65v-4.52h20.69l-20.69 4.52z"/><path class="cls-6" d="M571.84 190.65h-2v-5.52h21.69v2h-19.69v3.52zm16.81 113.1h-18.81v-5.41h2v3.41h16.81v2zm23.19 0h-19.48v-2h17.48v-22.7h2v24.7zm-2-32.95h2v3.62h-2zm-38 23.74h-2v-32.79h28.81v2h-26.81v30.79zm40 85.83h-42V361h2v17.37h38v-6.95h2v8.95z"/><path class="cls-6" d="M609.84 368.09h2v3.33h-2zm0-17.05h2v12.62h-2z"/><path class="cls-6" d="M609.84 348.55h2v2.5h-2zm-16.48-10.18h2.92v2h-2.92zm-21.52 8.01h-2v-8.01h20.11v2h-18.11v6.01zm-2 96.29h2v2.74h-2zm42 14.32h-42v-7.74h2v5.74h38v-4.95h2v6.95zm-2-33.83h2v22.25h-2z"/><path class="cls-5" d="M584.53 451.88l-23.26-19.2 6.37-7.71 15.4 12.71 32.31-40.65 7.83 6.22-38.65 48.63z"/><path class="cls-7" d="M365.78 425.66h160.5v2h-160.5zm47.06 14.67h126.6v2h-126.6zm-12.06 0h3.43v2h-3.43zm-35 0h23.33v2h-23.33zm0 14.66h61.67v2h-61.67z"/><path class="cls-6" d="M335.01 216.71l-34.8-64.07-11.02 4.58 20.76 69.89 25.06-10.4z"/><path transform="rotate(-9.67 236.398 209.134)" fill="#ff9d45" d="M99.7 201.67h273.33v14.97H99.7z"/><path class="cls-9" transform="rotate(-9.67 233.835 194.39)" d="M97.19 186.92h273.33v14.97H97.19z"/><path class="cls-9" transform="rotate(-9.74 232.75 179.959)" d="M95.4 172.4h274.56v15.04H95.4z"/><path class="cls-10" transform="rotate(-9.67 65.913 222.991)" d="M54.69 200.55h22.46v44.92H54.69z"/><path class="cls-11" transform="rotate(-9.67 88.077 219.27)" d="M76.84 196.78H99.3v44.92H76.84z"/><path class="cls-11" d="M437.51 159.69l-72.7-10.39 7.54 44.28 65.16-33.89z"/><path class="cls-7" d="M321.82 535.32H649.3v2H321.82z"/><path class="cls-2" d="M395.57 82.98v50h180v-50h-55.26L506.1 52.34h-41.05l-14.21 30.64h-55.27z"/><path class="cls-12" d="M395.57 82.98v36.46l180-28.05v-8.41h-55.26L506.1 52.34h-41.05l-14.21 30.64h-55.27z"/><path class="cls-2" d="M30.71 556.32h883.68v2H30.71zm686.88-327.27c-2.94 13.62-7.87 26.75-11.8 40.12-4 13.76-8.14 27.77-8.09 42.12a75.15 75.15 0 0 0 20.3 50.77c5 5.32 10.88 10 14.75 16.18s5.29 14.73 1 20.63c-6.23 8.51-19.56 6.67-28.67 12-11.48 6.7-13.07 23.76-6.53 35.33s36.33 44.64 78.83 36.45c19-3.67 44.8-21.77 44.07-41.13-.77-20.16-20-36.48-19.36-56.65.43-13.2 9.31-24.37 17-35.12s14.85-23.84 11.31-36.57c-5.21-18.75-29.34-24.54-41-40.09-7.53-10-9.19-23.18-9.66-35.7s-.14-25.35-4.32-37.16c-10.21-28.65-46.17-25.23-57.83 28.82z"/><path class="cls-7" d="M761.26 301.08h2v217.25h-2z"/><path class="cls-7" d="M763.24 363.85l-2-.32c3.23-19.65 25.59-31.88 26.54-32.39l.94 1.76c-.19.1-22.4 12.28-25.48 30.95zm-1.97 85.56c-2.19-13.3-18-22-18.18-22l.95-1.77c.69.37 16.86 9.22 19.2 23.47z"/><path class="cls-9" d="M726.09 510.83h72v20.75a24.75 24.75 0 0 1-24.75 24.75h-22.51a24.75 24.75 0 0 1-24.75-24.75v-20.75z"/><path class="cls-7" d="M738.87 554.38a25.71 25.71 0 0 1-13.78-22.8V524h2v7.63a23.71 23.71 0 0 0 12.71 21z"/><path class="cls-4" d="M726.09 517.33h72v2h-72z"/><path class="cls-7" d="M752.22 509.83h45.86v2h-45.86zm10.76 46.49h51.62v2h-51.62z"/><path class="cls-3" d="M414.46 171.68l-42.11 21.9-2.51-14.76 43.73-12.36.89 5.22z"/><path class="cls-13" d="M437.51 159.69l-23.05 11.99-.89-5.22 23.94-6.77z"/><path class="cls-10" d="M437.51 159.69l-23.94 6.77-1.78-10.45 25.72 3.68z"/><path class="cls-3" transform="rotate(-9.67 90.58 234.008)" d="M79.35 226.51h22.46v14.97H79.35z"/><path class="cls-13" transform="rotate(-9.67 68.412 237.788)" d="M57.21 230.29h22.46v14.97H57.21z"/><path class="cls-7" transform="rotate(-9.67 254 213.6)" d="M146.93 212.57h214.13v2H146.93z"/><path class="cls-6" transform="rotate(-9.68 115.078 237.405)" d="M93.31 236.41h43.54v2H93.31z"/><path class="cls-6" d="M57.81 248.19l-5.24-30.76 1.97-.33 4.9 28.78 30.23-5.15.34 1.97-32.2 5.49zm-6.31-37.04l-1.57-9.21L73.05 198l.34 1.97-21.16 3.6 1.24 7.24-1.97.34z"/><path class="cls-7" d="M103.71 556.32h92.6v2h-92.6zm413.17 0h9.39v2h-9.39zm-293.42 0h281.76v2H223.46zm335.25 0h137.33v2H558.71zm-476.75 0h7.25v2h-7.25zm743.25 0h19.5v2h-19.5z"/><path class="cls-4" transform="rotate(-9.67 98.615 214.327)" d="M97.62 194.93h2v38.75h-2z"/><path class="cls-4" transform="rotate(-9.68 367.33 164.025)" d="M366.33 149.05h2V179h-2z"/><path class="cls-4" transform="rotate(-9.67 77.89 226.385)" d="M76.89 224.28h2v4.26h-2z"/><path class="cls-4" transform="rotate(-9.67 75.948 214.85)" d="M74.93 209.07h2v11.55h-2z"/><path class="cls-6" d="M668.31 494.83h2v46.83h-2zm0-215.78h2V473.5h-2zM300.82 412.5h2v59.83h-2zm0-13.58h2v4.09h-2zm0-53.08h2V394h-2zm275.75-211.85h-95.55v-2h93.55V82.98h2v51.01zm-164.78-2.01h58.36v2h-58.36z"/><path class="cls-12" d="M670.31 160.31h-2V83.98h-28.95v-2h30.95v78.33zm-53.95-78.33h14.34v2h-14.34z"/><path class="cls-6" transform="rotate(-9.67 291.42 161.815)" d="M268.64 160.82h45.59v2h-45.59z"/><path class="cls-6" d="M190.19 331.08l-50.84 213.28 16.32 4.31 60.91-210.62-26.39-6.97z"/><circle class="cls-6" cx="147.56" cy="546.33" r="8.44"/><path class="cls-7" d="M130.62 556.32H156v-10h-16.89l-9.69 5.29a2.5 2.5 0 0 0-1.31 2.2 2.51 2.51 0 0 0 2.51 2.51z"/><circle class="cls-6" cx="248.89" cy="225.25" r="20"/><path class="cls-6" d="M150.82 280.65a13.64 13.64 0 1 1 4.55-18.75 13.63 13.63 0 0 1-4.55 18.75z"/><path class="cls-6" d="M205.86 244.07l-54.59 36.29-17.16-21.05 46.6-46.1 25.15 30.86z"/><circle class="cls-6" cx="194.79" cy="227.41" r="20"/><circle class="cls-6" cx="194.79" cy="227.4" r="20"/><circle class="cls-6" cx="248.88" cy="225.22" r="20"/><circle class="cls-6" cx="203.47" cy="334.25" r="13.65"/><circle class="cls-6" cx="247.76" cy="334.25" r="13.65" transform="rotate(-80.78 247.774 334.253)"/><path class="cls-6" d="M262.94 219.36l-.89 99.78-72.86 2.92-8.88-99.38a14 14 0 0 1 12.69-15.2h.69l54.69-2.19a14 14 0 0 1 14.55 13.43c.01.19.01.41.01.64z"/><path class="cls-6" d="M262.08 320.6l-.67 13.65v.67a13.65 13.65 0 0 1-13.63 13H203.5a13.65 13.65 0 0 1-13.64-13v-.67l-.67-13.65z"/><circle class="cls-6" cx="242.54" cy="546.32" r="8.44"/><path class="cls-4" d="M210.04 206.79l20.88 71.29 10.68-51.48-.84-21.05-30.72 1.24z"/><path class="cls-4" d="M240.76 205.56l.84 21.04-4.45 21.44-6.23 30.04-8.62-29.44-12.26-41.85 30.72-1.23z"/><path class="cls-6" d="M257.25 419l4.16-84.74h-27.3v212.06H251l6.19-126a11.17 11.17 0 0 0 .08-1.29z"/><circle class="cls-6" cx="225.62" cy="320.58" r="36.46"/><path class="cls-7" d="M237.15 248.04l-6.23 30.04-8.62-29.44 4.92-37.76 2-.08 7.93 37.24zm22.34 308.28h-25.38v-10H251l9.69 5.29a2.52 2.52 0 0 1 1.31 2.2 2.51 2.51 0 0 1-2.51 2.51z"/><path class="cls-5" transform="rotate(-2.3 221.885 192.833)" d="M209.5 179.2h25v27.09h-25z"/><path class="cls-7" d="M247.71 156.87l-3.61.44-2.95-24.31 3.61-.44a12.28 12.28 0 0 1 13.66 10.71 12.27 12.27 0 0 1-10.71 13.6zm-47.22 9.88l18-2.18 2.28 18.86-9 1.1a9.1 9.1 0 0 1-10.12-7.94l-1.2-9.92z"/><path class="cls-7" d="M231.61 126.38l8.75-1.06a10.91 10.91 0 0 1 12.14 9.52l1.29 10.73a9.86 9.86 0 0 1-8.6 11l-9.8 1.18-3.79-31.36z"/><path class="cls-5" d="M245.85 189.75l-32 3.88-4.37-36.07a20 20 0 0 1 17.43-22.28 20 20 0 0 1 22.14 16.51l4.67 27.41a9.09 9.09 0 0 1-7.44 10.48z"/><path d="M252 168.83l-3-17.05z" fill="none"/><path class="cls-7" d="M214.76 133.31l2.7-.32 4.11 34-20.75 2.51-1.92-15.88a18.18 18.18 0 0 1 15.83-20.26z"/><path class="cls-5" d="M211.15 171.64l5.42-.65-.66-5.41a5.46 5.46 0 0 0-6.07-4.76 5.46 5.46 0 0 0-4.76 6.07 5.45 5.45 0 0 0 6.07 4.75z"/><path class="cls-7" d="M251.22 146l-20.56 2.49a15.32 15.32 0 0 1-17-13.35 7.27 7.27 0 1 1 14.44-1.75.76.76 0 0 0 .84.67l20.55-2.49z"/><path class="cls-7" d="M242.67 139.68l-10.22 1.24a7.27 7.27 0 0 1-1.75-14.43l10.23-1.24a7.27 7.27 0 0 1 2.14 14.38zM255 186.46a7.28 7.28 0 0 1-5.95 8.4h-.35l-14.34 1.73A14.55 14.55 0 0 1 218.13 184l-2-16.9 5.41-.66a6 6 0 0 0 6.72 5.29l23.74-2.91z"/><path class="cls-4" d="M249.73 174.06a5.5 5.5 0 0 1-10.9 1.51v-.11z"/><path class="cls-5" d="M212.66 337.42a8 8 0 1 0-9.08 6.75 8 8 0 0 0 9.08-6.75z"/><path class="cls-5" d="M197.13 333.12a6 6 0 1 1-5.06-6.81 6 6 0 0 1 5.06 6.81z"/><path class="cls-5" d="M201.41 343.53l-12.72-5.83 3.38-11.39 13.84 2.03-4.5 15.19z"/><path class="cls-6" d="M186.76 336.3l9.55-7.18-40.95-67.22-21.71 16.32 46.33 50.66 4.04 4.42 2.74 3z"/><path class="cls-4" d="M186.76 336.3l9.55-7.18-5.93-9.74-10.4 9.5 4.04 4.42 2.74 3z"/><path class="cls-5" d="M186.77 336.3l9.55-7.18-2.76-4.52-9.53 8.71 2.74 2.99z"/><path class="cls-6" d="M250.07 205.28l73.76 4.34.72 27.18-73.39 8.32-1.09-39.84z"/><path class="cls-5" d="M289.11 156.9a6 6 0 1 0 4.44-7.23 6 6 0 0 0-4.44 7.23z"/><path class="cls-5" d="M274 162.55a8 8 0 1 1 9.64 5.93 8 8 0 0 1-9.64-5.93z"/><path class="cls-5" d="M285.76 167.65l12.16-6.93-4.37-11.05-13.61 3.24 5.82 14.74z"/><circle class="cls-4" cx="485.57" cy="70.5" r="8.54"/><path class="cls-6" d="M494.67 73.39l-1.91-.61a7.54 7.54 0 0 0-14-5.57l-1.8-.92a9.54 9.54 0 0 1 18.1 4.21 9.78 9.78 0 0 1-.39 2.89zm-9.1 6.61a9.56 9.56 0 0 1-9.57-9.5v-.27h2v.22a7.55 7.55 0 0 0 7.56 7.55 7.41 7.41 0 0 0 2.29-.36l.61 1.91a9.44 9.44 0 0 1-2.89.45z"/><path class="cls-7" d="M233.1 512.38h2V531h-2zm0-79.05h2v72.17h-2z"/><path class="cls-4" d="M185.67 350.05l-14.47 60.7z"/><path class="cls-7" transform="rotate(-76.61 178.44 380.43)" d="M147.24 379.43h62.4v2h-62.4z"/><path class="cls-4" d="M170.3 414.52l-1.63 6.85z"/><path class="cls-7" transform="rotate(-76.61 169.49 417.982)" d="M165.97 416.98h7.04v2h-7.04z"/><path class="cls-4" d="M143.83 525.59l-1.77 7.41z"/><path class="cls-7" transform="rotate(-76.61 142.937 529.356)" d="M139.13 528.35h7.63v2h-7.63z"/><path class="cls-4" d="M148.61 505.5l-3.86 16.2z"/><path class="cls-7" transform="rotate(-76.62 146.684 513.56)" d="M138.36 512.56h16.65v2h-16.65z"/><path class="cls-4" d="M174.38 265l17.34-11.53z"/><path class="cls-7" transform="rotate(-33.61 183.043 259.242)" d="M172.63 258.24h20.82v2h-20.82z"/><path class="cls-4" d="M165 271.25l5-3.33z"/><path class="cls-7" transform="rotate(-33.61 167.471 269.588)" d="M164.47 268.59h6.01v2h-6.01z"/><path class="cls-4" d="M277.74 242.1l40-4.53z"/><path class="cls-7" transform="rotate(-6.48 297.701 239.88)" d="M277.63 238.84h40.21v2h-40.21z"/><path class="cls-4" d="M265.42 243.5l7.17-.81z"/><path class="cls-7" transform="rotate(-6.48 268.986 243.127)" d="M265.4 242.09h7.22v2h-7.22z"/><path class="cls-4" d="M183.54 258.67l2.71 30.39z"/><path class="cls-7" transform="rotate(-5.11 184.93 273.891)" d="M183.92 258.59h2v30.51h-2z"/><path class="cls-4" d="M186.93 296.2l.33 3.67z"/><path class="cls-7" transform="rotate(-5.11 187.11 298.015)" d="M186.08 296.19h2v3.69h-2z"/><path class="cls-6" d="M571.84 430.5h-2v-15.51h24.98v2h-22.98v13.51z"/><path class="cls-2" d="M9 328.39a9 9 0 1 1 9-9 9 9 0 0 1-9 9zm0-16a7 7 0 1 0 7 7 7 7 0 0 0-7-7zm799.25-226.1h2v8.57h-2zm0 51.43h2v8.57h-2z"/><path class="cls-2" transform="rotate(-30 796.417 94.06)" d="M795.41 89.78h2v8.57h-2z"/><path class="cls-2" transform="rotate(-30 822.12 138.607)" d="M821.12 134.33h2v8.57h-2z"/><path class="cls-2" transform="rotate(-60 787.02 103.461)" d="M786.02 99.18h2v8.57h-2z"/><path class="cls-2" transform="rotate(-60 831.47 129.113)" d="M830.47 124.83h2v8.57h-2z"/><path class="cls-2" d="M779.25 115.29h8.57v2h-8.57zm51.43 0h8.57v2h-8.57z"/><path class="cls-2" transform="rotate(-29.99 786.997 129.217)" d="M782.72 128.22h8.57v2h-8.57z"/><path class="cls-2" transform="rotate(-29.99 831.538 103.496)" d="M827.26 102.5h8.57v2h-8.57z"/><path class="cls-2" transform="rotate(-60.01 796.332 138.511)" d="M792.05 137.51h8.57v2h-8.57z"/><path class="cls-2" transform="rotate(-60.01 822.064 93.99)" d="M817.78 92.99h8.57v2h-8.57z"/><path class="cls-2" d="M360.55 41h-2a14 14 0 0 0-14-14v-2a14 14 0 0 0 14-14h2a14 14 0 0 0 14 14v2a14 14 0 0 0-14 14zm-10.43-15a16.08 16.08 0 0 1 9.43 9.43A16.08 16.08 0 0 1 369 26a16.08 16.08 0 0 1-9.43-9.43 16.11 16.11 0 0 1-9.45 9.43z"/><path class="cls-4" d="M394.57 82.98h2v51.77h-2z"/></g></g></g></svg>