<svg xmlns="http://www.w3.org/2000/svg" viewBox="0 0 731.88 295.97"><defs><style>.cls-2{fill:#d1dfe8}.cls-3{fill:#e3edf8}.cls-4{fill:#edf4f7}.cls-5{fill:#fff}.cls-6{fill:#f8d0c3}.cls-7{fill:#7c2b50}.cls-8{fill:#f6b619}.cls-9{fill:#24295a}.cls-10{fill:#46b467}.cls-11{fill:#f4b617}.cls-13{fill:#e94b47}.cls-16{fill:#e94b46}</style></defs><g style="isolation:isolate"><g id="レイヤー_2" data-name="レイヤー 2"><g id="レイヤー_1-2" data-name="レイヤー 1"><path class="cls-2" d="M0 295.25c12-1 29.66-11.86 38.05-27.15s15.13-33.69 30.57-40.39c14.45-6.28 31.24 17.78 46.42 13.92 31.07-7.9 34.66-124.7 74-124.7 37.33 0 102.3 93.28 154.06 59.11C392.75 143.24 422 42.48 463 28.26c79-27.43 95.5 178.29 152.27 178.29 16.06 0 27.74-49.21 40-55.34 39.28-19.73 20.78 107 76.65 144z"/><path class="cls-3" d="M536.68 223.47l10.06-2.36-5-21.23-10 2.36a59.51 59.51 0 0 0-14.47-20.13l5.44-8.79-18.53-11.5-5.44 8.79a59.91 59.91 0 0 0-19.08-4c-1.71-.07-3.45-.07-5.19 0h-.2l-2.35-10.07-21.23 5 2.31 10.04a61.2 61.2 0 0 0-5.94 3 59 59 0 0 0-14.2 11.46l-8.79-5.44-11.48 18.52 8.77 5.44a59.6 59.6 0 0 0-4 24.47l-10.06 2.36 5 21.23 10.05-2.36a59.51 59.51 0 0 0 14.47 20.14l-5.44 8.78 18.52 11.49 5.45-8.79a59.14 59.14 0 0 0 24.47 4l2.36 10.12 21.22-5-2.4-10.07a58.82 58.82 0 0 0 20.14-14.46l8.79 5.44 11.48-18.53-8.77-5.44a59.63 59.63 0 0 0 4.04-24.47z"/><path class="cls-4" d="M408.34 295.25h-2.39l-23.07-115.72h2.39l23.07 115.72zm-30.76 0h-2.39l-23.07-115.72h2.38l23.08 115.72z"/><path class="cls-4" transform="rotate(180 389.4 282.955)" d="M374.69 281.98h29.42v1.96h-29.42z"/><path class="cls-4" transform="rotate(180 385.7 264.215)" d="M370.99 263.24h29.42v1.96h-29.42z"/><path class="cls-4" transform="rotate(180 382 245.48)" d="M367.29 244.5h29.42v1.96h-29.42z"/><path class="cls-4" transform="rotate(180 378.3 226.74)" d="M363.59 225.76h29.42v1.96h-29.42z"/><path class="cls-4" transform="rotate(180 374.6 208.005)" d="M359.89 207.03h29.42v1.96h-29.42z"/><path class="cls-4" transform="rotate(180 370.9 189.265)" d="M356.19 188.29h29.42v1.96h-29.42z"/><path class="cls-3" d="M374.73 170.91h26.28v8.62h-26.28z"/><path class="cls-4" d="M324.87 170.91h49.86v8.62h-49.86z"/><path class="cls-5" d="M309.9 295.25h2.39l23.07-115.72h-2.38L309.9 295.25zm30.77 0h2.38l23.08-115.72h-2.39l-23.07 115.72z"/><path class="cls-5" d="M314.13 281.98h29.42v1.96h-29.42zm3.7-18.74h29.42v1.96h-29.42zm3.7-18.74h29.42v1.96h-29.42zm3.7-18.74h29.42v1.96h-29.42zm3.7-18.73h29.42v1.96h-29.42zm3.7-18.74h29.42v1.96h-29.42z"/><path class="cls-2" d="M108.65 77.79L113.19 88h9.35l1.27-10.21h-15.16zM78.17 49.74l7 12.71 8.83-2.9v-4.67c0-2.88-2.34-3.53-5.23-3.53zm0 30.19l7-12.7L94 70.12v4.67c0 2.89-2.34 3.53-5.23 3.53z"/><path class="cls-4" d="M76.14 65.4s72.47-.15 72.59 0c-8.51-30.01-68.56-13.3-72.59 0z"/><path class="cls-2" d="M76.14 65.4s72.47.14 72.59 0c-8.51 30.01-68.56 13.29-72.59 0zm43.13-9.93c26.23 0 29.34 9.78 29.46 9.92H76.15c.26-.09 16.85-9.92 43.12-9.92z"/><path class="cls-4" d="M119.27 75.32c26.23 0 29.34-9.78 29.46-9.92H76.15c.26.1 16.85 9.92 43.12 9.92z"/><path class="cls-2" d="M148.73 65.39l.01.01h-.01v-.01z"/><path class="cls-4" d="M690.9 36.79a9.19 9.19 0 0 0-7 3.46h14.06a9.19 9.19 0 0 0-7.06-3.46zm-34.5-3.94c-3 0-5.29 3.58-8 2.94-5.94-1.39-8.37-9-14.88-9-5 0-7.94 6.24-12.57 5.82-7.35-.7-10.66-10.61-18.56-10.61-7.32 0-10.91 8.48-17.66 9.23-4 .44-6.89-4.34-11.21-4.34-8.16 0-8.87 3.25-16.38 5.59-2.16.67-3.8 4.87-6.24 4.87a8.74 8.74 0 0 0-7 2.9h124.74a14.15 14.15 0 0 0-12.24-7.4zM271.9 14.79a9.19 9.19 0 0 1 7 3.46h-14.03a9.19 9.19 0 0 1 7.03-3.46zm34.5-3.94c3 0 5.29 3.58 8 2.94 5.94-1.39 8.37-9 14.88-9 5 0 7.94 6.24 12.57 5.82C349.2 9.91 352.51 0 360.41 0c7.32 0 10.91 8.48 17.66 9.23 4 .44 6.89-4.34 11.21-4.34 8.16 0 8.87 3.25 16.38 5.59 2.16.67 3.8 4.87 6.24 4.87a8.74 8.74 0 0 1 7 2.9H294.16a14.15 14.15 0 0 1 12.24-7.4zm324.36 208.51l6.25-1.47-3.09-13.19-6.25 1.47a36.88 36.88 0 0 0-9-12.5l3.39-5.46-11.52-7.14-3.38 5.45a37.19 37.19 0 0 0-11.84-2.52 34.58 34.58 0 0 0-3.22 0h-.1l-1.45-6.26-13.19 3.09 1.46 6.26a34.33 34.33 0 0 0-3.68 1.87 36.59 36.59 0 0 0-8.83 7.11l-5.46-3.38-7.13 11.51 5.45 3.38a37 37 0 0 0-2.49 15.2l-6.24 1.46 3.09 13.19 6.25-1.47a36.86 36.86 0 0 0 9 12.51l-3.43 5.53 11.5 7.14 3.39-5.46a36.85 36.85 0 0 0 15.2 2.49l1.47 6.25 13.18-3.09-1.47-6.25a36.61 36.61 0 0 0 3.7-1.87 37.12 37.12 0 0 0 8.81-7.11l5.46 3.38 7.13-11.51-5.45-3.39a37 37 0 0 0 2.49-15.22zm-23.31 25.43a27.4 27.4 0 1 1-20-50.37 26.62 26.62 0 0 1 4.64-.67 23.08 23.08 0 0 1 3.22 0 27.4 27.4 0 0 1 12.13 51z"/><path class="cls-6" d="M274.55 120c-.29-.26-1.64.73-1.79 1.08-.1.94.45 1 .22 1.87a7.93 7.93 0 0 1 1.31-2c.31-.32.71-.57.26-.95z"/><path class="cls-6" d="M273.42 114.88a2.11 2.11 0 0 0-.9-.9.63.63 0 0 0-.67.26c-.48-.27-.9 1.05-1 1-.42-.37-1.06.09-1 2.07 0 .11-.88 5-1 6.56a20.1 20.1 0 0 0 4-.19 19.7 19.7 0 0 0 .49-2.75c.14-1.12.16-3.64.16-3.82a14.13 14.13 0 0 0-.08-2.23z"/><path class="cls-6" d="M272.9 123.36a15.61 15.61 0 0 1-4-.16c-1.1 8.23-1.53 29 1.5 30.37 2.77 1.23 4.31-.44 4.78-1.86a2.9 2.9 0 0 0 .16-.9c-.05-4.81-3.21-22.46-2.44-27.45z"/><path class="cls-6" d="M276.5 150.23c-5.36-6.64-8.07-.53-7.1 2 2.6 6.68 12.78 23.77 16.38 22.77 1.56-.42 9-5.87 8.51-6.53-2.52-3.62-13.42-12.83-17.79-18.24z"/><path class="cls-7" d="M286.8 159.31a125 125 0 0 1-9.52-9.71 13.91 13.91 0 0 0-1.12-1.25c-.19-2-.54-4.81-.91-7.71-.8-6.34-1.81-14.24-1.36-17.13l-6-.44c-1 7.24-1.48 24.4.61 29.59 2.11 5.44 11.57 22.26 16.63 22.53 8.41.46 11.8-6 11.58-6.27-3.24-4.27-6.31-6.16-9.91-9.61z"/><path class="cls-8" d="M277.24 287.4l-3.54.41a12.12 12.12 0 0 1 0 1.66c-.13 1.63-8.5 1-8.5 4.15 0 1.7 5 1.75 6.57 1.75 6.84 0 8.13-2.28 8.13-2.92a6.05 6.05 0 0 0-1.8-4 35.4 35.4 0 0 0-.86-1.05z"/><path class="cls-6" d="M273.06 288a2.84 2.84 0 0 1 .41 1.85 6.77 6.77 0 0 0 2.69.32c.75-.09 1.93-1.78 1.93-1.78-.44-.9-1.25-2.15-1.25-2.15z"/><path class="cls-9" d="M306 211.77c-6.69 1.26-40.62 21.69-54 31.94-5.69 4.37-2.48 9.71 4.27 8.93 17.47-2 45.08-6.78 55.57-16.21 16.7-14.99-2.27-25.34-5.84-24.66z"/><path class="cls-9" d="M249.94 253.3c12.53 19.43 23.26 35.62 23.26 35.62a3.78 3.78 0 0 1 4.16-2s-7.75-18.53-15.58-37.3c-5.16-12.33-16.95-4.24-11.84 3.68z"/><path class="cls-8" d="M295.18 285.78l-3.54.4a12.29 12.29 0 0 1 0 1.67c-.13 1.63-8.95 3.73-8.95 6.86 0 1.7 7.94.21 9.42-.2 4.85-1.33 5.72-3 5.72-3.68a6.06 6.06 0 0 0-1.79-4c-.64-.83-.86-1.05-.86-1.05z"/><path class="cls-6" d="M291 286.41a2.86 2.86 0 0 1 .4 1.86 6.81 6.81 0 0 0 2.69.32c.76-.09 1.94-1.79 1.94-1.79-.44-.89-1.25-2.14-1.25-2.14z"/><path class="cls-9" d="M267.88 251.68c12.53 19.42 23.26 35.61 23.26 35.61a3.8 3.8 0 0 1 4.16-2s-7.76-18.52-15.58-37.29c-5.16-12.34-16.96-4.24-11.84 3.68z"/><path class="cls-5" d="M309.47 209.94c-7 2.88-13.84 5.85-21.07 8a47.32 47.32 0 0 1-13.14 2.14c1.78 6.44.68 7.81-1.86 10.39 4.06 6.49 8.86 7.27 12.87 7.4 10.55.32 33-13.46 33.64-13.7a154.47 154.47 0 0 0-5.76-16.31c-1.5.76-3.07 1.41-4.68 2.08z"/><path class="cls-6" d="M272.67 162.22c.12.41 2.35 4.5 2 7.12 1 2.07 7.08.39 7.72-3.78-1-.86-3.13-6.3-3.4-8.39-.36.51-4.77 4.83-6.32 5.05z"/><path class="cls-6" d="M277.64 155.87c-.62-3-3.11-5-6.11-4.42-2.8.58-5.28 2-5.16 4.72 0 1 2.78 9.25 7.6 9.27 2 0 4.77-4.24 4.31-6.48 0 .04-.64-3.06-.64-3.09z"/><path class="cls-7" d="M289 165.4c-1.64.08-6.56.16-6.56.16s-.57 1.46-3.22 2.82a8.27 8.27 0 0 1-4.51.92s-4.88 3-5.7 3.86c-3.17 3.13-2.78 4.65-1.68 9.64.52 2.33 10.08 37.62 6.48 47.36.28.27 3.69 4.5 8.82 4.37l-1.54-10.31 3.91 10.14c11.88-.83 19.34-7.51 28-11.36l-2.71-13.34 6 11.9c.85-.35 1.62-.65 2.29-.89-5.57-20-19.54-48.41-20-49.25-2.12-3.55-4.65-6.27-9.58-6.02z"/><path class="cls-8" d="M280.63 158.16c1.32-4.21.34-9.7-4.27-11.62-5.22-2.18-11.56 3.08-12.25 8-.51 3.68-2.46 1.76-2.56.85.18 2.3 1.62 3.94 5.75 2.46.87-.32-1.74 1.35-1.74 1.35s7.09 8.1 13.42 3.88a11.06 11.06 0 0 0 3.12-3.77s-2.1 1.01-1.47-1.15z"/><path class="cls-9" d="M346 165.9l-3.11-1.73s-.67 1-1.22 1.64c-1 1.25-6.1 2.15-6.1 3.92 0 .9 1.88 1.7 3.42 1.76a10.39 10.39 0 0 0 3.69-.51c.9-.29 3-1.14 3.3-1.69a2.53 2.53 0 0 0 .12-2.06c.2-.99-.1-1.33-.1-1.33z"/><path class="cls-6" d="M342 164.07a1.52 1.52 0 0 1-.32 1.74 5.2 5.2 0 0 0 1.81 1.74c.67.37 2.62-.32 2.62-.32a13.39 13.39 0 0 0 .07-2.41z"/><path class="cls-10" d="M334.12 65.21c-.3 2.15-8 30.6-5.78 57.4 1.9 23.06 13.72 42.15 13.72 42.15.05.16 3.08 1.81 4.6.13 0-4-5.47-41.73-5.34-42.15 3.69-12.83 12.24-35 13.71-36.21V66.92c-7.52.49-18.42-.62-20.91-1.71z"/><path class="cls-6" d="M283 82.3c-.43-.06-.89-.26-.9.33 0 .38 1.56.9 1.93.81.82-.46.55-1 1.38-1.27a7.77 7.77 0 0 1-2.41.13z"/><path class="cls-6" d="M286 81.91a18.8 18.8 0 0 0-2.53 1.21c-1 .55-3 2-3.18 2.11a13.42 13.42 0 0 0-1.74 1.33 2.11 2.11 0 0 0-.21 1.26.64.64 0 0 0 .6.39c.07.55 1.38.12 1.37.25-.05.56.7.8 2.28-.38.09-.07 4.56-2.21 5.92-3a20.12 20.12 0 0 0-2.51-3.17z"/><path class="cls-6" d="M307.4 63.57a2.66 2.66 0 0 0-.81.4c-3.86 2.82-16.34 15.74-20.83 18a16.18 16.18 0 0 1 2.24 3.4c7.31-3.93 24.4-15.77 23.72-19-.63-2.99-2.88-3.25-4.32-2.8z"/><path class="cls-6" d="M309.78 38.23c-1.47 4.17-2.55 18.4-4.37 25.11-2.23 8.24 4.31 6.86 5.79 4.58 3.9-6 11.76-24.28 8.86-26.63-1.25-1.01-10.01-3.82-10.28-3.06z"/><path class="cls-11" d="M309.6 37.18a1.16 1.16 0 0 0-.76.72c-.77 2.17-1.41 6.84-2.1 11.78s-2.56 14.52-2.65 15c-1.55 1.36-16.18 15.07-18.78 16.4l3.16 5.13c6.44-3.46 20.64-13.11 23.61-17.84 3.17-4.9 12.55-24.71 8.61-27.9-1.32-1.02-9.49-3.8-11.09-3.29z"/><path class="cls-9" d="M369.66 166.12l-3.25-1.49s-.59 1.06-1.08 1.75c-.95 1.32-5.91 2.62-5.77 4.38.07.89 2 1.54 3.54 1.48a7.36 7.36 0 0 0 3.64-.79c1-.69 2.87-1.37 3.15-1.94a2.52 2.52 0 0 0 0-2.07c.04-1-.23-1.32-.23-1.32z"/><path class="cls-6" d="M365.74 164.5a2.21 2.21 0 0 1-.41 1.88 5.14 5.14 0 0 0 1.94 1.58c.7.32 2.58-.52 2.58-.52.09-1 0-2.49 0-2.49z"/><path class="cls-10" d="M366 62.5c-7.45 1.08-15.8 5.08-18.37 4.18-.13 2.18-2.42 30.68.84 57.43 1.7 14 17.12 33.47 17.12 41.18 0 .17 3.2 1.57 4.59-.22 0-19-8.81-42.07-8.81-42.07 1.63-16.75 13.97-42.74 4.63-60.5z"/><path class="cls-6" d="M315.89 17.36c-.28.59-3.62 5.81-5.09 6.33.21.38 3.28 3.87 3.56 6.5 1.45 1.79 7-1.18 6.69-5.39-1.15-.62-4.44-5.45-5.16-7.44z"/><path class="cls-6" d="M314.24 16.4c-1.25-2.76-4.14-4.23-6.93-3-2.6 1.18-4.71 3.07-4 5.73.26 1 4.75 8.42 9.46 7.37 2-.44 3.72-5.18 2.77-7.27.01.04-1.28-2.8-1.3-2.83z"/><path class="cls-11" d="M327.47 23.27c-1.64.18-6.42 1.53-6.42 1.53s-1.58 4.19-3.47 5.39c-1.3.83-3.22 0-3.22 0s-4.06 4.09-4.67 5.08c-2.35 3.83 1.19 7.7 3.27 11.45 1.2 2.18 11.79 15.68 18.45 36.74 5.63 8.63 23.83 4.6 33.7-6.9l-4.91-13.05 7.8 10.9c.75-.53 2.45-1.36 3.06-1.74-14.78-38.48-28.91-51.01-43.59-49.4z"/><path d="M332.66 37.42c4.35 9.14-5.58 34-5.58 34s10.74-6.68 11.86-10.14c.39-1.22 5-18.6 2.33-25-2.07-4.91-10.01-1.8-8.61 1.14z" style="mix-blend-mode:multiply" fill="#f6b619"/><path class="cls-9" d="M321.05 24.8s-1.58 4.19-3.47 5.39c-1.3.83-3.22 0-3.22 0s-3.8 3.82-4.59 5C312.2 39 319 40.71 319 40.71s4.46-11.81 8.52-17.44a14.58 14.58 0 0 0-3.22.56zM311 6.4c-7.29-2.25-14.43 6.31-12.09 11.9.51 1.24 3 3.65 13.3-4.08 2.29 1.33 4.85 5.45 4.85 5.45 2.01-4.58-.47-11.55-6.06-13.27z"/><path class="cls-6" d="M314.14 15.09a2.54 2.54 0 0 0-1.13.73 37.08 37.08 0 0 0 2.14 3.07 2.74 2.74 0 0 0 1-2.46c-.23-.76-1.25-1.57-2.01-1.34zm-5.43 65.53c.05.37 1.71.54 2.05.38.71-.63.34-1 1.09-1.54a7.75 7.75 0 0 1-2.33.64c-.43.03-.92-.1-.81.52z"/><path class="cls-6" d="M312.41 79.07a20.58 20.58 0 0 0-2.21 1.72c-.84.74-2.55 2.6-2.66 2.74a13.82 13.82 0 0 0-1.43 1.66 2.22 2.22 0 0 0 .07 1.27.63.63 0 0 0 .67.26c.18.52 1.37-.18 1.39 0 .06.56.85.64 2.14-.85.08-.09 4-3.12 5.16-4.19a19.75 19.75 0 0 0-3.13-2.61z"/><path class="cls-11" d="M337.57 31.31c-1.52-.77-10.09-1.76-11.55-.92a1.14 1.14 0 0 0-.59.86c-.29 2.29.06 7 .43 12a124.67 124.67 0 0 1 .59 13.58 15.68 15.68 0 0 0 0 1.68c-1.24 1.65-2.82 3.93-4.48 6.34-3.64 5.26-8.17 11.8-10.43 13.65l4.17 4.35c5.56-4.74 17.41-17.16 19.32-22.43 2.06-5.49 7.06-26.83 2.54-29.11z"/><path class="cls-6" d="M198.85 87.37c-.57.76-.12 1.09-.75 1.73a7.81 7.81 0 0 1 2.15-1.1c.42-.12.92-.12.69-.67-.12-.33-1.78-.19-2.09.04z"/><path class="cls-6" d="M201.53 81c-.28-.47-1.31.45-1.35.32-.18-.54-1-.45-1.93 1.27-.06.1-3.28 3.86-4.21 5.14a20.15 20.15 0 0 0 3.59 1.88 19.89 19.89 0 0 0 1.81-2.13c.68-.9 2-3.06 2.06-3.21a13.37 13.37 0 0 0 1.06-1.92 2.1 2.1 0 0 0-.32-1.24.64.64 0 0 0-.71-.11zm-21.29 31.54c-1.15 7.06-1 27 2.64 27.94 1.56.42 10.71-.54 10.64-1.34-.34-4.41-5.09-17.87-6.14-24.75-1.28-8.39-6.7-4.53-7.14-1.85z"/><path class="cls-6" d="M180.4 114.18c1.77 2.47 3.95 1.8 5.07.81a2.79 2.79 0 0 0 .59-.69c2.39-4.14 8.59-21 11.77-24.92a15.93 15.93 0 0 1-3.4-2.17c-5.1 6.55-15.96 24.28-14.03 26.97z"/><path class="cls-10" d="M197.28 91.33l-4.88-3.26c-4.29 5.67-13 20-13.67 25.4-.81 5.62 2 40.08 6.82 41.3 1.6.41 6.85-13.56 8.06-14.66a1.12 1.12 0 0 0 .39-.94c-.21-2.24-5.8-20.81-6.34-24.09-.1-.57-.21-1.09-.35-1.59.82-1.84 1.84-4.34 2.92-7 2.36-5.75 5.29-12.93 7.05-15.16z"/><path class="cls-11" d="M230.35 285.73c-.52-.85-.94-.94-.94-.94l-3.49.71a20.55 20.55 0 0 1 .15 2.05c0 1.63-3.22 5.6-2.06 6.94.58.68 2.53.06 3.73-.89a7.26 7.26 0 0 0 2.47-2.8c.38-1.12 1.51-2.79 1.4-3.42a2.58 2.58 0 0 0-1.26-1.65z"/><path class="cls-6" d="M225.72 285.43a7.81 7.81 0 0 1 .35 2.12 5.22 5.22 0 0 0 2.51.13c.75-.15 1.77-1.95 1.77-1.95-.52-.85-.9-1.4-.9-1.4z"/><path class="cls-13" d="M218.27 244.49c2.48-17.92 6.52-40.51 5.54-53.76-7.53.18-17.24-1.13-19.69-2.32-.37 2.08-.17 29.22.58 55.5.36 12.58 21.24 42.42 21.24 42.42a4.21 4.21 0 0 0 4.22-.9s-12.98-33-11.89-40.94z"/><path class="cls-6" d="M191 229.15c.1 1.16 3.36 59.5 3.36 59.5a4.78 4.78 0 0 0 3.74.82s5.25-59.53 5-62.21c-1.5 1.18-11.16 2.83-12.1 1.89z"/><path class="cls-11" d="M197.87 288.65l-3.12-1.74s-.67 1-1.22 1.65c-1.05 1.25-6.09 2.15-6.09 3.92 0 .89 1.87 1.7 3.41 1.76a10.39 10.39 0 0 0 3.69-.51c.91-.3 3-1.14 3.3-1.69A2.53 2.53 0 0 0 198 290c.12-1-.13-1.35-.13-1.35z"/><path class="cls-6" d="M193.53 288.56a5.17 5.17 0 0 0 1.82 1.74c.66.37 2.61-.32 2.61-.32.16-1 .23-1.66.23-1.66l-3.54-1.59a7.93 7.93 0 0 1-1.12 1.83z"/><path class="cls-13" d="M185.94 185c-.56 4 7.95 102.55 7.95 102.55 0 .16 3.07 1.81 4.6.13 0 0 1.59-22.72 4.65-44.15 2.64-18.51 2.25-36.06 3.71-37.21v-19.65c-7.51.49-18.42-.62-20.91-1.67z"/><path class="cls-7" d="M186.33 187.06s0 5.27.29 6.75c.69 4.16 5.16 6.42 8.61 6.15l1.23-4 1.7 4.15c15.89 1 26.58-3.68 26.58-3.68 1.79-5.75-.58-14.89-.58-14.89z"/><path class="cls-6" d="M200.82 128.85c-.5.42-5.68 3.82-7.24 3.7 0 .42 1.41 4.87.59 7.38.6 2.23 6.87 1.78 8.32-2.17-.8-1.04-1.82-6.76-1.67-8.91z"/><path class="cls-10" d="M209 139c-1.63-.26-6.48-1.22-6.48-1.22s-3.16 3.17-5.38 3.49c-1.52.23-2.94-1.32-2.94-1.32a67.92 67.92 0 0 0-6.33 2.73 8.58 8.58 0 0 0-3.5 9.5c2.61 10.73-1.31 36.19 2 37.49 4.54 1.77 30.59 2 38.38-5.32 0 0-3.22-26-6.93-36.39-1.41-3.96-3.96-8.17-8.82-8.96z"/><path class="cls-9" d="M194.17 148.2c1.4-6-.09-7.85-.6-10.38a17 17 0 0 1 .61-7.94c-.05-.08-4-4.11-5.28-2a15.73 15.73 0 0 0-.23 8.78 14 14 0 0 1-.73 9.66 15.54 15.54 0 0 0-1.12 7.63c.94 9.52 6.65 14 8.29 13.08 1.8-1.03-2.94-10.15-.94-18.83z"/><path class="cls-6" d="M194.1 121.31c-2.85 0-5.06 1.32-5.49 4.06-.16 1 .89 9.61 5.61 10.59 2 .41 5.52-3.21 5.51-5.5v-3.15c-.04-3.04-2.56-6.02-5.63-6z"/><path class="cls-9" d="M208 132.4a14 14 0 0 0-3.52-13.49 8.22 8.22 0 0 0-9.21-2.13c-2.7 1.25-2.74 1.77-2.74 1.77a4.52 4.52 0 0 0-2.91.62c-3.24 1.93-2.72 9.39 0 11.61-2.05-8 2.94-9.43 2.94-9.43s3.53.23 5.33 2.2c1.64 1.79 3.39 6.69 2.59 10.52-.62 2.92-2.79 5.1-.17 11.84 3.76 9.7-2.93 20.41-.05 21.46 2.62 1 11.17-4.59 11.91-15.48.13-1.86-.14-5.78-2.3-8.58A12.18 12.18 0 0 1 208 132.4z"/><path class="cls-6" d="M199.51 126.12a2.57 2.57 0 0 0-1.24.53c.37 1 1.18 2.6 1.58 3.39a2.72 2.72 0 0 0 1.4-2.26c-.09-.78-.96-1.78-1.74-1.66zM217 94.55c-.5.82 0 1.1-.59 1.8a7.62 7.62 0 0 1 2-1.3c.41-.15.9-.21.62-.73-.13-.32-1.77-.02-2.03.23z"/><path class="cls-6" d="M219 87.94c-.33-.44-1.26.57-1.31.44-.23-.51-1-.35-1.81 1.45 0 .11-2.9 4.15-3.7 5.52a20.06 20.06 0 0 0 3.82 1.53 18.34 18.34 0 0 0 1.61-2.29c.6-1 1.68-3.24 1.75-3.4a13.34 13.34 0 0 0 .87-2 2.12 2.12 0 0 0-.43-1.2.63.63 0 0 0-.8-.05zm-18.18 33.43c-.48 7.13 1.6 26.93 5.27 27.57 1.59.27 10.6-1.56 10.47-2.35-.76-4.35-6.76-17.3-8.45-24-2.11-8.33-7.11-3.93-7.29-1.22z"/><path class="cls-6" d="M201.14 123c2 2.29 4.1 1.42 5.12.32a2.57 2.57 0 0 0 .52-.74c2-4.35 6.57-21.72 9.37-25.92a15.54 15.54 0 0 1-3.59-1.84c-4.46 6.99-13.56 25.67-11.42 28.18z"/><path class="cls-10" d="M208.44 123.2a13 13 0 0 0-.5-1.56c.65-1.9 1.43-4.49 2.26-7.22 1.8-6 4-13.38 5.59-15.78l-5.17-2.78c-3.74 6-11 21.12-11.21 26.58-.28 5.67 5.81 39.71 10.69 40.47 1.63.26 5.53-14.14 6.64-15.35a1.13 1.13 0 0 0 .29-1c-.42-2.19-7.73-20.14-8.59-23.36z"/><path class="cls-6" d="M452.35 144.7c0-.43.22-.9-.37-.88-.39 0-.83 1.59-.73 2 .51.8 1 .5 1.34 1.32a8 8 0 0 1-.24-2.44z"/><path class="cls-6" d="M450 143.69a9.21 9.21 0 0 0-1.26-1.3 2.3 2.3 0 0 0-1.23 0 .61.61 0 0 0-.4.53c-.53.11-.14 1.15-.27 1.15-.54 0-.79.66.33 1.84.07.07 2.08 3.53 2.83 4.57a22.86 22.86 0 0 0 3.15-2.39 13.1 13.1 0 0 0-1.14-2c-.53-.75-1.92-2.3-2.01-2.4zm28.1-1.33c-2.43 3.69-6.92 17.24-10.31 23.31-4.16 7.45 2.52 7.69 4.51 5.84 5.23-4.87 17.28-20.72 15-23.7-.94-1.28-8.76-6.12-9.2-5.45z"/><path class="cls-11" d="M478.1 142.36c-1.72 2.6-4.75 10.11-8 16.08a52.93 52.93 0 0 0 6.44 4.23c.81.45 3.22 1.87 4.06 2.24 5-6.36 8.24-15.11 6.74-17.1-.98-1.28-8.8-6.12-9.24-5.45z"/><path class="cls-6" d="M471.74 167.44c-3-3.73-16.48-15.6-19-20a15.65 15.65 0 0 1-3.25 2.38c4.26 7.12 16.86 23.66 20.07 22.83 2.94-.76 3.11-3 2.59-4.43a3 3 0 0 0-.41-.78z"/><path class="cls-11" d="M445.61 77.12c-14 1-24.85 13.21-24.68 27.28a26.09 26.09 0 0 0 13.8 23.15 9.42 9.42 0 0 1 4.89 8.33v.12h16.86v-.07a10 10 0 0 1 4.76-8.58A27.6 27.6 0 0 0 474.59 104a27.07 27.07 0 0 0-28.98-26.88z"/><path class="cls-7" d="M445.37 114.38a1 1 0 0 0-1 1v26.26a1 1 0 0 0 2 0v-26.26a1 1 0 0 0-1-1zm6.12 0a1 1 0 0 0-1 1v26.26a1 1 0 0 0 2 0v-26.26a1 1 0 0 0-1-1z"/><rect class="cls-5" x="437.54" y="135.33" width="21.02" height="11.78" rx="2.2"/><path class="cls-6" d="M496.79 227.14c.1 1.16 3.36 59.5 3.36 59.5a4.78 4.78 0 0 0 3.74.82s5.25-59.53 5.06-62.21c-1.54 1.18-11.2 2.84-12.16 1.89z"/><path class="cls-9" d="M503.68 286.64l-3.12-1.73s-.67 1-1.21 1.64c-1.06 1.25-6.1 2.15-6.1 3.92 0 .9 1.88 1.7 3.41 1.76a7.36 7.36 0 0 0 3.7-.51c1-.6 3-1.14 3.29-1.69a2.53 2.53 0 0 0 .12-2.06c.16-.97-.09-1.33-.09-1.33z"/><path class="cls-6" d="M499.35 286.55a5.2 5.2 0 0 0 1.81 1.74c.67.37 2.61-.32 2.61-.32.16-1 .23-1.66.23-1.66l-3.54-1.59a7.64 7.64 0 0 1-1.11 1.83z"/><path class="cls-7" d="M491.75 183c-.55 4 7.95 102.55 7.95 102.55 0 .16 3.07 1.81 4.6.13 0 0 1.59-22.72 4.65-44.15 2.64-18.51 3.71-56.82 3.71-56.82-7.51.44-18.42-.71-20.91-1.71z"/><path class="cls-6" d="M480.5 227.14c.1 1.16 3.36 59.5 3.36 59.5a4.78 4.78 0 0 0 3.74.82s5.25-59.53 5-62.21c-1.48 1.18-11.14 2.84-12.1 1.89z"/><path class="cls-9" d="M487.38 286.64l-3.11-1.73s-.67 1-1.22 1.64c-1.05 1.25-6.05 2.15-6.05 3.92 0 .9 1.87 1.7 3.41 1.76a10.39 10.39 0 0 0 3.69-.51c.9-.3 3-1.14 3.3-1.69a2.53 2.53 0 0 0 .12-2.06c.12-.97-.14-1.33-.14-1.33z"/><path class="cls-6" d="M483.05 286.55a5.2 5.2 0 0 0 1.81 1.74c.67.37 2.62-.32 2.62-.32.16-1 .23-1.66.23-1.66l-3.54-1.59a7.93 7.93 0 0 1-1.12 1.83z"/><path class="cls-7" d="M475.46 183c-.56 4 7.94 102.55 7.94 102.55.05.16 3.08 1.81 4.6.13 0 0 1.6-22.72 4.66-44.15 2.64-18.51 2.24-36 3.71-37.21v-19.66c-7.51.49-18.37-.66-20.91-1.66z"/><path class="cls-11" d="M474.88 181.33s-2.39 11.48-1.24 12.48c2.6 2.25 12.35.17 19.77-.74s21.08.59 21.44-.92c1-4.09-.86-13.13-.86-13.13z"/><path class="cls-6" d="M494.17 127.85c-.52.38-5.94 3.39-7.49 3.15 0 .43 1.05 5 .05 7.41.43 2.26 6.72 2.28 8.45-1.56-.72-1.1-1.32-6.91-1.01-9z"/><path class="cls-6" d="M488.48 120.32c-2.85-.2-5.6.47-6.23 3.16-.23 1 .18 9.65 4.82 11 2 .56 5.74-2.8 5.89-5.08 0 0 .22-3.12.22-3.15.2-3.06-1.64-5.72-4.7-5.93z"/><path class="cls-9" d="M510.13 147c-1.74-4.79-3.75-7.32-8.57-8.48-1.61-.39-6.38-1.7-6.38-1.7s-3.38 2.93-5.61 3.09c-1.54.11-2.84-1.53-2.84-1.53s-5.51 1.67-6.52 2.25c-3.88 2.26-3.95 6.07-4.18 9.23-2.27 31.51-3.69 36.12-2.7 37.86 2.42 4.27 42.56 1.45 41.82-3.83-2.49-17.56-4.48-35.38-5.02-36.89z"/><path class="cls-13" d="M494.89 118.89c-4.16-3.77-10.6.23-10.6.23-4.91.93-3.84 8.11-1.59 9.15-1.07-5.28 2.52-7 2.52-7 6.65-.1 9 7.83 8.51 9.88 0 .02 7.42-6.58 1.16-12.26z"/><path class="cls-6" d="M493.06 125a2.58 2.58 0 0 0-1.27.44c.29 1 1 2.68 1.33 3.5a2.74 2.74 0 0 0 1.56-2.15c-.03-.79-.83-1.79-1.62-1.79zm-34.87-1.71c-.38 0-.79 1.6-.69 2 .52.79 1 .49 1.36 1.31a8.09 8.09 0 0 1-.28-2.4c.04-.47.21-.94-.39-.91z"/><path class="cls-6" d="M455.5 121.69a13.64 13.64 0 0 0-1.44-1.66 2.16 2.16 0 0 0-1.27-.13.64.64 0 0 0-.35.63c-.54.1 0 1.38-.17 1.37-.56 0-.76.75.52 2.26.08.09 2.48 4.41 3.37 5.73a20.06 20.06 0 0 0 3-2.71 18.69 18.69 0 0 0-1.37-2.45c-.6-.94-2.18-2.91-2.29-3.04zm47.73 20.23c-4.41-.24-18.38 2.71-25.33 2.84-8.53.16-5.37 6.05-2.78 6.84 6.85 2.06 26.61 4.49 28.05 1.05.62-1.49.83-10.65.06-10.73z"/><path class="cls-11" d="M503.23 141.92c-2.87-1.22-11.13 1-17.92 1.19a23 23 0 0 0-.31 12.32c8 1.08 15.19.44 17.45-.6 5.8-2.66 4.55-11.32.78-12.91z"/><path class="cls-6" d="M478.32 146.6c-3.05-3.68-16.71-15.35-19.28-19.69a15.82 15.82 0 0 1-3.22 2.44c4.37 7.05 17.23 23.4 20.43 22.51 2.93-.8 3.06-3.07 2.52-4.47a2.69 2.69 0 0 0-.45-.79z"/><path class="cls-13" d="M510.73 123.6c-1.39-19.32-17.09-11.18-16.72-6.11.09 1.25.77 2 1.79.67 1.72-2.22 7.9-4.2 4.31 7.56-.95 3.11-5 7.11 3.79 12.72 8 5.08 1.39 7 1.83 9.36 1.13 6 16.74-7 8.48-16-1.67-1.86-3.06-2.38-3.48-8.2z"/><path class="cls-9" d="M494.94 117.11a2 2 0 0 0-1.13-.29 2.42 2.42 0 0 0-1.46.72 10 10 0 0 1 3.7 2.53c.45-.98.41-2.07-1.11-2.96z"/><path class="cls-2" d="M103.58 175.49a1.75 1.75 0 0 0-1.6.49l-7.1 7.09-6.06-1.58-1.27 7.3 1.27.34-5.63 4 6 6.3L121 210.19l-16.07-33.67a1.79 1.79 0 0 0-1.35-1.03z"/><path class="cls-4" d="M104.89 172.52a1.79 1.79 0 0 0-1.31-1 1.75 1.75 0 0 0-1.6.49l-18.69 18.65a1.82 1.82 0 0 0-.5 1.6 1.8 1.8 0 0 0 1 1.32L121 210.19a.41.41 0 0 0 .54-.54z"/><path d="M94.88 179.07l-6.06 2.42v3.64l24.81 17.49a.2.2 0 0 0 .28 0 .19.19 0 0 0 0-.28z" fill="#adc1d1"/><path class="cls-4" d="M87.27 182.29l-.23-.37a9.21 9.21 0 0 1-.43-.84 10.06 10.06 0 0 1-.5-1.28 1 1 0 0 0-1.9.59 13.26 13.26 0 0 0 .59 1.51c.17.37.36.73.51 1s.26.43.26.43a1 1 0 0 0 1.38.34 1 1 0 0 0 .33-1.38zm-2.2-11.06a1 1 0 0 0-1.15.77s-.16.77-.25 1.56c0 .39-.08.78-.1 1.08s0 .49 0 .49a1 1 0 0 0 .93 1 1 1 0 0 0 1-.94v-.45c0-.27 0-.62.09-1 .07-.71.21-1.41.21-1.41a1 1 0 0 0-.73-1.1zm3.09-7.33a1 1 0 0 0-1.31.36s-.38.67-.73 1.37l-.45 1-.2.44a1 1 0 1 0 1.77.77l.18-.42.42-.9c.32-.65.67-1.28.67-1.28a1 1 0 0 0-.35-1.34zm3.64-6.2s-.54.55-1 1.13l-.69.81-.31.37a1 1 0 0 0 .14 1.34.94.94 0 0 0 1.33-.14l.29-.35c.17-.21.41-.49.65-.76.48-.55 1-1.07 1-1.07a.94.94 0 1 0-1.35-1.32zm6.42-5.12s-.66.41-1.29.84-1.26.89-1.26.89a.94.94 0 0 0-.18 1.31.93.93 0 0 0 1.3.18s.59-.44 1.19-.85 1.22-.8 1.22-.8a.92.92 0 0 0 .31-1.27 1 1 0 0 0-1.29-.3zm7.5-3.34s-.74.22-1.46.48l-1 .37c-.27.1-.44.18-.44.18a.92.92 0 0 0 .71 1.69s.67-.28 1.36-.52 1.38-.46 1.38-.46a.91.91 0 1 0-.53-1.74zm8.1-1.33s-.77 0-1.54.09-1.53.17-1.53.17A.9.9 0 0 0 111 150s.73-.1 1.46-.16 1.45-.09 1.45-.09a.9.9 0 1 0-.07-1.79zm8.18.69s-.75-.15-1.51-.27-1.52-.21-1.52-.21a.88.88 0 0 0-.19 1.75s.72.08 1.45.2 1.44.25 1.44.25a.88.88 0 1 0 .34-1.72zm7.75 2.4l-2.82-1a.87.87 0 0 0-.58 1.63l2.82 1a.85.85 0 1 0 .58-1.6zm7.25 3.55l-2.63-1.45a.83.83 0 0 0-.8 1.46l2.64 1.43a.82.82 0 0 0 .79-1.44zm4.33 2.78a.8.8 0 0 0-1.12.16.81.81 0 0 0 .17 1.13l2.41 1.78a.79.79 0 0 0 .95-1.27zm6.26 5.13a.77.77 0 0 0-1.08 1.11l2.15 2.09a.76.76 0 1 0 1.07-1.09zm5.52 5.93a.75.75 0 0 0-1.18.91l1.85 2.37a.74.74 0 0 0 1 .12.72.72 0 0 0 .13-1zm4.66 6.61a.71.71 0 0 0-1.24.71l1.5 2.6a.7.7 0 0 0 .95.27.71.71 0 0 0 .27-1zm3.64 7.25a.69.69 0 1 0-1.28.5l1.08 2.8a.68.68 0 0 0 1.26-.49zm2.46 7.75a.66.66 0 0 0-.78-.5.65.65 0 0 0-.5.78l.32 1.45c.13.72.27 1.45.27 1.45a.64.64 0 0 0 1.27-.22s-.12-.75-.26-1.5zm1.13 8a.63.63 0 0 0-.66-.6.64.64 0 0 0-.59.67s0 .73.05 1.47 0 1.48 0 1.48a.62.62 0 0 0 1.23 0v-1.52c0-.76-.03-1.5-.03-1.5zm-.93 7.39a.58.58 0 0 0-.67.51s-.1.73-.23 1.46-.28 1.46-.28 1.46a.6.6 0 0 0 .45.69.59.59 0 0 0 .7-.45s.16-.74.3-1.49.24-1.5.24-1.5a.58.58 0 0 0-.51-.68zm-1.76 7.82a.56.56 0 0 0-.71.36s-.24.7-.5 1.4-.54 1.37-.54 1.37a.56.56 0 0 0 1 .43s.29-.69.56-1.4.52-1.43.52-1.43a.57.57 0 0 0-.33-.73zm-3.14 7.38a.54.54 0 0 0-.74.2l-1.52 2.58a.53.53 0 0 0 .19.72.52.52 0 0 0 .72-.18l1.54-2.58a.54.54 0 0 0-.19-.74zm-5.02 6.87l-1.84 2.37a.5.5 0 0 0 .79.62l1.85-2.36a.51.51 0 0 0-.09-.71.5.5 0 0 0-.71.08zm-5.23 5.88l-.36.29c-.21.17-.5.39-.79.6a10.6 10.6 0 0 1-1.23.73.47.47 0 1 0 .42.85 12.45 12.45 0 0 0 1.35-.79c.32-.22.63-.45.86-.63l.37-.3a.48.48 0 0 0 .07-.68.5.5 0 0 0-.69-.07zm-6.71 1.5a2.91 2.91 0 0 1-.23-.2 5.92 5.92 0 0 1-.62-.71 7.43 7.43 0 0 1-.7-1.22.45.45 0 1 0-.82.36 9 9 0 0 0 .79 1.38 5.24 5.24 0 0 0 .73.84 2.55 2.55 0 0 0 .28.25l.1.09a.46.46 0 0 0 .64-.08.45.45 0 0 0-.07-.64zm-2.96-9.78a.42.42 0 0 0-.42-.42.42.42 0 0 0-.42.42s0 .77.05 1.53.13 1.53.13 1.53a.43.43 0 0 0 .48.37.44.44 0 0 0 .38-.48s-.09-.73-.14-1.48-.06-1.47-.06-1.47zm.47-8.33a.4.4 0 0 0-.47.31s-.16.74-.28 1.49-.23 1.49-.23 1.49a.4.4 0 1 0 .8.1s.09-.74.21-1.47.28-1.46.28-1.46a.41.41 0 0 0-.31-.46zm2.7-7.47a.36.36 0 0 0-.49.15s-.36.67-.67 1.37-.59 1.4-.59 1.4a.38.38 0 0 0 .23.49.38.38 0 0 0 .48-.23s.26-.69.56-1.37.64-1.33.64-1.33a.37.37 0 0 0-.16-.48zm5.22-5.57a7.78 7.78 0 0 0-1.41.7 9 9 0 0 0-.87.63l-.37.31a.35.35 0 1 0 .46.53l.34-.29a8.8 8.8 0 0 1 .8-.59 7.42 7.42 0 0 1 1.27-.64.35.35 0 0 0 .21-.44.36.36 0 0 0-.43-.21zm7.82 1.59a13.57 13.57 0 0 0-1.3-.82c-.34-.18-.68-.35-.95-.46l-.45-.19a.33.33 0 0 0-.24.61l.42.17a8.94 8.94 0 0 1 .91.43c.64.35 1.24.77 1.24.77a.32.32 0 0 0 .37-.51zm4.74 4.54c-.48-.59-1-1.14-1-1.14a.3.3 0 0 0-.43 0 .3.3 0 0 0 0 .42s.5.54 1 1.11.92 1.17.92 1.17a.31.31 0 0 0 .41.06.3.3 0 0 0 0-.41s-.42-.63-.9-1.21zm3.6 5.47a.27.27 0 1 0-.48.26s.34.66.65 1.33.6 1.37.6 1.37a.25.25 0 0 0 .34.14.27.27 0 0 0 .15-.34s-.28-.7-.6-1.39-.66-1.37-.66-1.37zm2.74 7.56a.25.25 0 0 0-.3-.19.26.26 0 0 0-.18.3s.17.73.3 1.46.24 1.47.24 1.47a.24.24 0 0 0 .27.2.23.23 0 0 0 .21-.27s-.1-.74-.24-1.49-.3-1.48-.3-1.48zm.64 7.77a.22.22 0 0 0-.22.22v1.49c0 .74-.07 1.49-.07 1.49a.21.21 0 1 0 .42 0s.06-.75.09-1.5 0-1.51 0-1.51a.22.22 0 0 0-.22-.19zm-.72 7.98a.2.2 0 0 0-.23.15s-.14.74-.31 1.47l-.34 1.45a.2.2 0 0 0 .14.23.19.19 0 0 0 .23-.14l.36-1.47c.17-.73.32-1.47.32-1.47a.2.2 0 0 0-.17-.22zm-2.15 7.72a.16.16 0 0 0-.22.1L163 249.2a.16.16 0 0 0 .3.12l1.15-2.77a.18.18 0 0 0-.14-.23zm-3.57 7.33l-1.55 2.57a.15.15 0 0 0 .25.15l1.56-2.57a.15.15 0 0 0-.05-.21.15.15 0 0 0-.21.06zm-4.42 6.64l-1.91 2.3a.12.12 0 0 0 0 .17.13.13 0 0 0 .17 0l1.92-2.29a.12.12 0 0 0 0-.17.12.12 0 0 0-.18-.01zm-5.38 5.88l-2.25 2a.09.09 0 1 0 .12.13l2.27-2a.11.11 0 1 0-.14-.16zm-7.51 5.77c-.63.4-1.28.77-1.28.77a.06.06 0 0 0 0 .09.08.08 0 0 0 .09 0s.66-.37 1.3-.77l1.27-.8a.09.09 0 0 0 0-.11.09.09 0 0 0-.11 0zm-7.13 3.58c-.7.27-1.41.52-1.41.52s.71-.24 1.41-.51 1.39-.57 1.39-.57v-.06a.05.05 0 0 0-.07 0s-.62.35-1.32.62zm-7.68 2.18l-1.48.24s.74-.1 1.48-.23 1.47-.28 1.47-.28-.73.13-1.47.27zm-7.08.64h.62v-.01l-.62.01z"/><path d="M517.05 268.08l-10-3c-3.37-1.05-6.74-2.22-10.16-3.34s-6.84-2.38-10.28-3.64c-6.91-2.43-13.79-5.31-20.77-8.13l-10.4-4.58-2.61-1.15-2.63-1.24-5.2-2.49-5.2-2.49c-1.73-.85-3.43-1.76-5.15-2.65-3.42-1.79-6.89-3.52-10.3-5.38l-10.17-5.7-2.55-1.43-2.5-1.51-5-3c-6.73-3.93-13.18-8.3-19.7-12.49-3.23-2.15-6.37-4.41-9.55-6.6l-4.74-3.3c-1.58-1.08-3.09-2.28-4.64-3.41l-9.17-6.84c-1.54-1.11-3-2.32-4.48-3.49l-4.42-3.52-4.39-3.49c-1.46-1.16-2.92-2.31-4.32-3.53l-8.4-7.14-4.14-3.54-4-3.61-7.89-7.14c-2.63-2.32-5.12-4.76-7.59-7.14l-7.32-7c-9.5-9.42-18.31-18.48-26.14-27.15l-5.81-6.29c-1.83-2.11-3.62-4.18-5.37-6.18-3.48-4-6.82-7.81-9.88-11.43l-8.43-10.27-3.75-4.62-1.76-2.17c-.55-.7-1.08-1.4-1.61-2.07l-13.12-16.88-23.46 18.69 14.47 16.76 1.77 2 1.92 2.11 4.12 4.51 9.26 10.15c3.37 3.57 7 7.3 10.84 11.26l5.88 6.09 6.35 6.2c8.56 8.52 18.17 17.42 28.5 26.62l8 6.89c2.68 2.33 5.38 4.7 8.23 7l8.55 6.95 4.34 3.52 4.49 3.42 9.07 6.92c1.51 1.18 3.09 2.29 4.66 3.41l4.73 3.38 4.76 3.39c1.59 1.13 3.17 2.3 4.82 3.36l9.85 6.57c1.66 1.08 3.28 2.23 5 3.27l5.08 3.15c3.4 2.09 6.77 4.25 10.22 6.29 7 4 13.86 8.13 21 11.82l5.33 2.84 2.65 1.42 2.71 1.34 10.8 5.32c3.6 1.73 7.27 3.32 10.89 5 1.82.81 3.62 1.65 5.44 2.44l5.49 2.28 5.47 2.27 2.73 1.12 2.75 1.05L461.1 262c7.32 2.53 14.52 5.1 21.74 7.22 3.59 1.11 7.14 2.24 10.71 3.17s7.07 2 10.57 2.87l10.42 2.53c3.43.83 6.85 1.48 10.21 2.22 13.46 2.77 26.33 4.53 38.17 6.31A476 476 0 0 0 637 291.6s-58.87-4.6-110.08-20.82c-3.25-.89-6.56-1.71-9.87-2.7zM167.19 13.69l84.41 47.24 5-5-84.41-47.24-5 5z" fill="#ee7e7e"/><path class="cls-16" d="M615.66 290.65c-6.88-.46-15.24-1.06-24.77-2.14S570.63 286 559 284s-24.07-4.77-37.1-8.17c-3.25-.89-6.56-1.71-9.87-2.7l-10-3c-3.37-1.05-6.74-2.22-10.16-3.34s-6.84-2.38-10.28-3.64c-6.91-2.43-13.79-5.31-20.77-8.13l-10.4-4.58-2.61-1.15-2.61-1.29-5.2-2.49-5.2-2.49c-1.73-.85-3.43-1.76-5.15-2.65-3.42-1.79-6.89-3.52-10.3-5.38l-10.17-5.7-2.55-1.43-2.5-1.51-5-3c-6.73-3.93-13.18-8.3-19.7-12.49-3.23-2.15-6.37-4.41-9.55-6.6l-4.74-3.3c-1.59-1.08-3.09-2.28-4.64-3.41l-9.17-6.84c-1.54-1.11-3-2.32-4.48-3.49l-4.42-3.52-4.39-3.49c-1.46-1.16-2.92-2.31-4.32-3.53l-8.4-7.14-4.14-3.54-4-3.61-7.89-7.14c-2.63-2.32-5.12-4.76-7.59-7.14l-7.32-7c-9.5-9.42-18.31-18.48-26.14-27.15l-5.81-6.29c-1.83-2.11-3.62-4.18-5.37-6.18-3.48-4-6.82-7.81-9.88-11.43l-8.43-10.27-3.75-4.62-1.76-2.17c-.55-.7-1.08-1.4-1.61-2.07l-13.12-16.88-23.46 18.69 14.47 16.76 1.77 2 1.92 2.11 4.12 4.51 9.26 10.15c3.37 3.57 7 7.3 10.84 11.26l5.88 6.09 6.35 6.2c8.56 8.52 18.17 17.42 28.5 26.62l8 6.89c2.68 2.33 5.38 4.7 8.23 7l8.55 6.95 4.34 3.52 4.49 3.42 9.07 6.92c1.51 1.18 3.09 2.29 4.66 3.41l4.73 3.38 4.76 3.39c1.59 1.13 3.17 2.3 4.82 3.36l9.85 6.57c1.66 1.08 3.28 2.23 5 3.27l5.08 3.15c3.4 2.09 6.77 4.25 10.22 6.29 7 4 13.86 8.13 21 11.82l5.33 2.84 2.65 1.42 2.71 1.34 10.8 5.32c3.6 1.73 7.27 3.32 10.89 5 1.82.81 3.62 1.65 5.44 2.44l5.49 2.28 5.47 2.27 2.73 1.12 2.75 1.05L456.1 267c7.32 2.53 14.52 5.1 21.74 7.22 3.59 1.11 7.14 2.24 10.71 3.17s7.07 2 10.57 2.87l10.42 2.53c3.43.83 6.85 1.48 10.21 2.22 13.46 2.77 26.28 4.92 38.17 6.31s22.8 2.41 32.49 2.91 18.14.75 25.09.84 12.44 0 16.14-.07l5.69-.1v-3.26l-5.69-.2c-3.64-.12-9.09-.39-15.98-.79z"/><path class="cls-16" d="M194.37 106.52l15.37-39.41 41.86-6.18-84.41-47.24 27.18 92.83z"/><path class="cls-6" d="M264.56 127.74c-.51.8 0 1.1-.63 1.78a8 8 0 0 1 2.07-1.25c.41-.14.9-.18.63-.71-.14-.35-1.79-.06-2.07.18z"/><path class="cls-6" d="M266.77 121.18c-.31-.45-1.27.54-1.32.41-.22-.52-1-.38-1.84 1.41-.05.1-3 4.08-3.82 5.43a20.5 20.5 0 0 0 3.7 1.62 20.65 20.65 0 0 0 1.67-2.26c.61-.94 1.74-3.19 1.82-3.35a13.82 13.82 0 0 0 .92-2 2.17 2.17 0 0 0-.41-1.21.64.64 0 0 0-.72-.05z"/><path class="cls-6" d="M249.78 155.76c2.47 1.77 4.32.44 5.07-.86a3.15 3.15 0 0 0 .33-.85c.94-4.68 6.9-20.05 8.65-24.78a16.05 16.05 0 0 1-3.92-1c-2.73 7.87-12.82 25.56-10.13 27.49z"/><path class="cls-7" d="M256.51 151.82c.22-2 6.8-18.65 7.82-21.39L259 128c-3.22 6.36-11.85 21-10.84 26.52 1 5.76 10.72 35.09 22 39.41 7.86 3 2.13-22.86 1.79-22.74-5.08 1.74-15.15-18.93-15.44-19.37z"/><path class="cls-5" d="M658.64 278l1.32-.56c0-.44-.11-.87-.19-1.3l-1.43-.18c-.05-.26-.11-.51-.18-.76l1.2-.8c-.12-.42-.26-.83-.42-1.24l-1.43.09c-.1-.24-.21-.48-.32-.72l1-1c-.2-.38-.42-.77-.65-1.14l-1.39.36c-.14-.22-.29-.44-.45-.65l.83-1.18c-.27-.34-.55-.68-.85-1l-1.3.61-.27-.28-.29-.28.6-1.31c-.33-.29-.67-.57-1-.83l-1.18.83c-.21-.16-.42-.3-.64-.44l.34-1.4c-.37-.23-.76-.44-1.15-.64l-1 1-.73-.32.09-1.43c-.41-.16-.83-.3-1.25-.42l-.79 1.21c-.25-.07-.51-.13-.76-.18l-.19-1.43c-.43-.07-.86-.14-1.3-.18l-.56 1.33h-.78l-.44-1.37q-.66 0-1.32.06l-.3 1.41c-.26 0-.52.06-.78.11l-.68-1.27c-.43.08-.86.19-1.28.31v1.43c-.25.08-.5.16-.75.26l-.9-1.13q-.62.25-1.2.54l.22 1.42-.69.38-1.1-.91q-.56.36-1.08.75l.48 1.35-.6.51-1.25-.71c-.16.14-.32.29-.47.45l-.46.48.72 1.24c-.17.2-.34.4-.5.61l-1.36-.48c-.26.36-.5.72-.73 1.09l.93 1.09c-.13.22-.26.46-.38.69l-1.42-.22c-.19.4-.37.8-.53 1.2l1.13.9a7.32 7.32 0 0 0-.25.75l-1.44.05c-.11.42-.22.85-.3 1.28l1.27.67c0 .26-.07.52-.1.78l-1.41.32v1.31l1.37.43v.79l-1.33.56c0 .44.11.87.19 1.31l1.43.17c0 .26.11.51.18.76l-1.2.8c.12.42.27.83.42 1.24L629 285a6.58 6.58 0 0 0 .32.72l-1 1c.2.38.41.77.64 1.14l1.39-.36a7.49 7.49 0 0 0 .45.65l-.83 1.18c.27.34.55.68.85 1l1.3-.61.28.29.28.27-.6 1.31c.33.29.67.57 1 .83l1.17-.83.65.44-.35 1.4c.38.23.76.44 1.15.64l1-1c.23.12.48.22.72.32l-.08 1.43c.41.16.82.3 1.24.42l.79-1.21c.25.07.51.13.77.18l.18 1.43c.43.07.87.14 1.3.18l.56-1.33h.79l.43 1.37q.66 0 1.32-.06l.3-1.41c.26 0 .52-.06.78-.11l.69 1.27c.43-.08.85-.19 1.27-.3l.05-1.44c.25-.08.49-.16.74-.26l.91 1.12c.4-.16.8-.34 1.19-.53l-.22-1.42.69-.38 1.09.93c.37-.24.73-.48 1.08-.75l-.48-1.35c.21-.17.41-.33.6-.51l1.25.72.48-.46.45-.48-.72-1.24c.17-.2.34-.4.5-.61l1.36.48c.26-.36.51-.72.74-1.09l-.94-1.09c.14-.22.26-.45.38-.68l1.42.21c.19-.39.37-.79.53-1.2l-1.12-.9q.13-.37.24-.75l1.44-.05c.12-.42.22-.85.3-1.28l-1.27-.67c0-.26.08-.52.1-.78l1.41-.31v-1.32l-1.37-.43c.08-.22.07-.48.05-.73zm-16.11-12v8.62a4.46 4.46 0 0 0-1.85.73l-.15.11-6.12-6.09a13.1 13.1 0 0 1 8.12-3.37zm-9.07 4.37l6.11 6.08a4.67 4.67 0 0 0-.59 1.1 4.25 4.25 0 0 0-.23.9h-8.63a13.09 13.09 0 0 1 3.34-8.09zm0 17.6a13.1 13.1 0 0 1-3.37-8.09h8.62a4.61 4.61 0 0 0 .84 2zm1 1l6.08-6.12a4.42 4.42 0 0 0 2 .82v8.63a13.16 13.16 0 0 1-8.04-3.3zM653 270.3a13.17 13.17 0 0 1 3.38 8.09h-8.63a4.5 4.5 0 0 0-.73-1.86l-.1-.14zm-9.07-4.3a13.13 13.13 0 0 1 8.11 3.33l-6.04 6.1a4.47 4.47 0 0 0-2-.83zm.08 26.29v-8.62a4.47 4.47 0 0 0 2-.83l6.12 6.08a13.1 13.1 0 0 1-8.13 3.35zm9.08-4.37l-6.09-6.1a4.44 4.44 0 0 0 .82-2h8.63a13.16 13.16 0 0 1-3.36 8.08z"/><path class="cls-10" d="M96.24 229.77c-.32 1.53.15 3.35-.11 4.92-.34 2-1.59 2.53-2.44 3.78A10.12 10.12 0 0 0 92.6 245a34 34 0 0 0 1.09 4 9.33 9.33 0 0 1 .3 4.36c-.47 2.09-3 3.71-3 12.58 0 8.09 5.77 11.24 7.41 13.22v-52.42l-.74.72a4.28 4.28 0 0 0-1.42 2.31z"/><path class="cls-10" d="M103 249.05a32.21 32.21 0 0 0 1.09-4 10.12 10.12 0 0 0-1.09-6.57c-.85-1.25-2.1-1.81-2.43-3.78-.27-1.57.21-3.39-.12-4.92a4.27 4.27 0 0 0-1.4-2.31l-.75-.72v52.47c1.64-2 7.42-5.13 7.42-13.22 0-8.87-2.54-10.49-3-12.58a9.47 9.47 0 0 1 .28-4.37z"/><path class="cls-11" d="M105.69 261.12c-.38.5-.21 1.25-.55 1.78s-1.38.63-2.11.93a2.34 2.34 0 0 0-1.42 2.2 9 9 0 0 0 .41 1.68 1.91 1.91 0 0 1-.2 1.65c-.55.68-2.53.8-3.38 4.05-.77 3 3.09 5.2 4.08 6.23l5-19.23-.6.12a2 2 0 0 0-1.23.59z"/><path class="cls-11" d="M108.33 263.73c0-.63.47-1.2.39-1.83a2 2 0 0 0-.8-1.11l-.46-.4-5 19.23c1.37-.42 5.83-.49 6.6-3.45.85-3.25-.83-4.32-1-5.18a1.94 1.94 0 0 1 .63-1.54 8.24 8.24 0 0 0 1.17-1.27 2.33 2.33 0 0 0-.16-2.61c-.47-.57-1.32-1.06-1.37-1.84z"/><path class="cls-5" d="M88.84 277.89s3.6 3.86 3.6 6.45a11.28 11.28 0 0 1-.62 2.94 5.86 5.86 0 0 0 5.57 7.63h9.52a5.86 5.86 0 0 0 5.57-7.63 11.28 11.28 0 0 1-.62-2.94c0-2.59 3.6-6.45 3.6-6.45z"/></g></g></g></svg>