<svg xmlns="http://www.w3.org/2000/svg" viewBox="0 0 900 528.12"><defs><style>.cls-2{fill:#fff}.cls-6{fill:#29427b}.cls-7{fill:#6c74d1}.cls-8{fill:#ffd22e}.cls-35,.cls-9{fill:#d9e2eb}.cls-10{fill:#1ed4df}.cls-11{fill:#ff409e}.cls-12{fill:#d2ccff}.cls-13{fill:#a8aeff}.cls-35{mix-blend-mode:multiply}.cls-17{fill:#ddd9ff}.cls-18{fill:#0a2b39}.cls-20{fill:#f38ca0}.cls-21{fill:#c04c85}.cls-22{fill:#686ddf}.cls-23{fill:#6a3a14}.cls-24{fill:#49341f}.cls-25{fill:#d96c81}.cls-26{fill:#8ed1fe}.cls-27{fill:none;stroke:#6b84fb;stroke-linecap:round;stroke-linejoin:round}.cls-28{fill:#0abce2}.cls-30{fill:#b4b9ff}.cls-31{fill:#6b84fb}.cls-32{fill:#18105d}.cls-34{fill:#19325c}.cls-36{fill:#bcc2c6}.cls-37{fill:#2f3542}</style><linearGradient id="linear-gradient" x1="207.89" y1="492.5" x2="900" y2="492.5" gradientUnits="userSpaceOnUse"><stop offset="0" stop-color="#a8aeff"/><stop offset=".4" stop-color="#b4bffc"/><stop offset="1" stop-color="#ccdff6"/></linearGradient><linearGradient id="linear-gradient-2" x1="-1772.2" y1="48.91" x2="-1772.2" y2="137.73" gradientTransform="matrix(-1 0 .04 1 -1054.57 0)" gradientUnits="userSpaceOnUse"><stop offset="0" stop-color="#e6f7ff"/><stop offset="1" stop-color="#fff"/></linearGradient></defs><g style="isolation:isolate"><g id="レイヤー_2" data-name="レイヤー 2"><g id="Layer_1" data-name="Layer 1"><path class="cls-2" d="M638.86 188.54h124c4.9 0 8.91-3.32 8.91-7.38s-4-7.37-8.91-7.37H598.07c-4.9 0-8.9-3.32-8.9-7.38s4-7.37 8.9-7.37h12.27c4.9 0 8.91-3.32 8.91-7.38s4-7.37 8.9-7.37h42.92c4.9 0 8.91-3.32 8.91-7.38s-4-7.37-8.91-7.37H597.5c-4.9 0-8.9-3.32-8.9-7.37s-4-7.38-8.91-7.38h-41.47c-4.9 0-8.91-3.32-8.91-7.37s4-7.38 8.91-7.38h108.57c4.9 0 8.91-3.32 8.91-7.37s-4-7.38-8.91-7.38h-83.18c-4.9 0-8.91-3.32-8.91-7.37s-4-7.38-8.91-7.38h-49.08c-4.9 0-8.91-3.32-8.91-7.37s-4-7.38-8.91-7.38H306.1c-4.9 0-8.91 3.32-8.91 7.38s-4 7.37-8.91 7.37h-23c-4.9 0-8.91 3.32-8.91 7.38s4 7.37 8.91 7.37h23c4.9 0 8.91 3.32 8.91 7.38s-4 7.37-8.91 7.37h-69.8c-4.9 0-8.91 3.32-8.91 7.38s4 7.37 8.91 7.37h12.27c4.9 0 8.91 3.32 8.91 7.38s-4 7.37-8.91 7.37H182c-4.9 0-8.91 3.32-8.91 7.37s4 7.38 8.91 7.38h18.64c4.9 0 8.9 3.32 8.9 7.37s4 7.38 8.91 7.38h29c4.9 0 8.91 3.32 8.91 7.37s-4 7.38-8.91 7.38H141c-4.9 0-8.91 3.32-8.91 7.37s4 7.38 8.91 7.38h106.45c4.9 0 8.91 3.32 8.91 7.37s4 7.38 8.91 7.38h23c4.9 0 8.91 3.32 8.91 7.37s-4 7.38-8.91 7.38h-69.8c-4.9 0-8.91 3.32-8.91 7.37s4 7.38 8.91 7.38h12.27c4.9 0 8.91 3.32 8.91 7.37s-4 7.38-8.91 7.38H182c-4.9 0-8.91 3.31-8.91 7.37s4 7.38 8.91 7.38h158.46c4.9 0 8.91 3.31 8.91 7.37s-4 7.38-8.91 7.38H306.1c-4.9 0-8.91 3.31-8.91 7.37s4 7.37 8.91 7.37h200.34c4.89 0 8.9-3.31 8.9-7.37s4-7.37 8.91-7.37h86.09c4.9 0 8.91-3.32 8.91-7.38s-4-7.37-8.91-7.37h-69.8c-4.9 0-8.91-3.32-8.91-7.38s4-7.37 8.91-7.37h69.8c4.9 0 8.91-3.32 8.91-7.38s-4-7.37-8.91-7.37h-12.27c-4.9 0-8.9-3.32-8.9-7.38s4-7.37 8.9-7.37h48.72c4.9 0 8.91-3.32 8.91-7.38s-4-7.37-8.91-7.37h-7.93c-4.9 0-8.91-3.32-8.91-7.38s4.05-7.37 8.91-7.37zm-559.35 0h21.35c4.9 0 8.9-3.32 8.9-7.38s-4-7.37-8.9-7.37H79.51c-4.9 0-8.91 3.32-8.91 7.37s4.01 7.38 8.91 7.38zm89.6 29.5h-1.77c-4.9 0-8.9 3.32-8.9 7.37s4 7.38 8.9 7.38h1.77c4.9 0 8.91-3.32 8.91-7.38S174 218 169.11 218zm625.6-29.5c4.9 0 8.91-3.32 8.91-7.38s-4-7.37-8.91-7.37H793c-4.9 0-8.91 3.32-8.91 7.37s4 7.38 8.91 7.38zM679.09 100h1.77c4.9 0 8.91-3.32 8.91-7.37s-4-7.38-8.91-7.38h-1.77c-4.9 0-8.91 3.32-8.91 7.38s4.01 7.37 8.91 7.37zm6.57 132.75H640c-4.9 0-8.9 3.32-8.9 7.37s4 7.38 8.9 7.38h45.67c4.9 0 8.91-3.32 8.91-7.38s-4.02-7.33-8.92-7.33zM237.38 41H283c4.9 0 8.91-3.32 8.91-7.37s-4-7.38-8.91-7.38h-45.62c-4.9 0-8.91 3.32-8.91 7.38s4.01 7.37 8.91 7.37zm466.1 103.25h45.66c4.9 0 8.91-3.32 8.91-7.38s-4-7.37-8.91-7.37h-45.66c-4.9 0-8.91 3.32-8.91 7.37s4.01 7.42 8.91 7.42zM315.53 41h65.66c4.9 0 8.91-3.32 8.91-7.37s-4-7.38-8.91-7.38h-65.66c-4.9 0-8.91 3.32-8.91 7.38s4.01 7.37 8.91 7.37zm326.23 221.29H640c-4.9 0-8.9 3.31-8.9 7.37s4 7.38 8.9 7.38h1.77c4.9 0 8.91-3.32 8.91-7.38s-4.02-7.37-8.92-7.37zM199.16 41h1.76c4.9 0 8.91-3.32 8.91-7.37s-4-7.38-8.91-7.38h-1.76c-4.9 0-8.91 3.32-8.91 7.38s4.01 7.37 8.91 7.37zm297.47 418v-61h-3v-1.77a1.65 1.65 0 0 0-1.65-1.65H461a1.64 1.64 0 0 0-1.64 1.65V398h-3v18.88h-9.52V353.7h-5.43V352l-14.34-9.22v-15.85h-1.45v15.84L411.27 352v1.71h-5.43v66.09H391.3v-2h-1.38v-2.09h1.38v-2.09h-1.38v-2.1h1.38v-2.09h-1.38v-2.13h1.38v-2.1h-1.38v-2.09h1.38V401h-1.38v-2.1h1.38v-2.09h-1.38v-2.09h1.38v-2.1h-1.38v-2.09h1.38v-2.09h-1.38v-2.1h1.38v-2.09h-1.38v-2.09h1.38v-2.1h-5.85V378h1.43v-2.07h-14.3v-16.06h-1.45v16.06H370v-10.24h-1.5v10.24h-15.82V378h1.43v2.08h-5.85v2.1h1.38v2.09h-1.38v2.09h1.38v2.1h-1.38v2.09h1.38v2.09h-1.38v2.1h1.38v2.09h-1.38v2.09h1.38V401h-1.38v1.4h-35.35v-3.26H314v-3.25h-6.4v-31.53l-21-24.69h-20.9v59.84h-3.15v-7.17h-3.17v-3.59l-11.06-19-11.06 19v3.59h-3.17v7.17h-3.16v12.94h-3.32v-1.77A1.64 1.64 0 0 0 226 409h-16v-16h-1.45v16h-1.25v-10.21h-1.45V409h-14.19a1.63 1.63 0 0 0-1.64 1.64v1.77h-3v26.41H142v11h-24.57V442h-9.92v7.86H91.3v12.94H0v17.85h900V459z"/><path fill="#dce8f6" d="M0 480.63h900v47.49H0z"/><path fill="url(#linear-gradient)" d="M207.89 480.62H900v23.75l-692.11-23.75z"/><path class="cls-2" d="M900 427.4c-.1-.26-.22-.51-.35-.77a10 10 0 0 0-1-1.48 12.67 12.67 0 0 0-1.36-1.39 13.13 13.13 0 0 0-1.69-1.14 10.58 10.58 0 0 0-3.63 1.57c-.25.17-.5.35-.73.54a7.58 7.58 0 0 0-.65.62 8.71 8.71 0 0 0-1.06 1.33 7.62 7.62 0 0 0-.75 1.44 8.2 8.2 0 0 0-.44 1.56 10 10 0 0 0 0 3.23 10.29 10.29 0 0 0-.93-3.08 9.05 9.05 0 0 0-.86-1.38 8 8 0 0 0-.53-.63c-.19-.19-.39-.38-.6-.56a9.44 9.44 0 0 0-3.06-1.7 13.28 13.28 0 0 0-1.88-.4c-.33 0-.67-.08-1-.1s-.69 0-1 0a14.39 14.39 0 0 0-1.3 1.59 10.86 10.86 0 0 0-.91 1.71 9.59 9.59 0 0 0-.35 1 9.91 9.91 0 0 0-2.73 2.16 9.28 9.28 0 0 0 2.51-5.86 5.44 5.44 0 0 0-9.34-5.4 8.74 8.74 0 0 0-2.37 2.2 10.26 10.26 0 0 0-1.46 2.9 10.17 10.17 0 0 0 .52-3.21 8.8 8.8 0 0 0-.62-3.17 5.43 5.43 0 0 0-10.72-1.12 9.26 9.26 0 0 0-1.42 6.22 9.27 9.27 0 0 0-2.67-5.79 10.52 10.52 0 0 0-6.6-2.84 12.34 12.34 0 0 0-1.4 1.4 13.28 13.28 0 0 0-1.08 1.52 9.5 9.5 0 0 0-1.19 3.25 9.18 9.18 0 0 0 1.24 6.26 9.26 9.26 0 0 0-4.81-4.19 10.44 10.44 0 0 0-7.18.09 10.59 10.59 0 0 0-.83 7.12 8.84 8.84 0 0 0 1.36 2.93 10.25 10.25 0 0 0 2.31 2.29 10.05 10.05 0 0 0-2.89-1.49 8.6 8.6 0 0 0-3.2-.4 10.43 10.43 0 0 0-6.52 3 10.46 10.46 0 0 0 2.12 6.86 9.26 9.26 0 0 0 5.48 3.27 9.27 9.27 0 0 0-6.34.77 10.63 10.63 0 0 0-4.73 5.38 11.44 11.44 0 0 0 2.14 3.36c-1.7-.21-12-.86-13.64-.86s-4 3.14-4.74 4.43a31 31 0 0 0-1.55 5.16 10.81 10.81 0 0 0-2.06-4.94c-.86-1.12-3.67-4-5.3-3.79s-3.67 3.77-4.19 5a10.64 10.64 0 0 0-.56 6.33c-.69-3.26-5.91-10.47-9.77-7.75-3 2.12-3.86 7.22-2.52 10.47a11 11 0 0 0-3.34-2.14 10.36 10.36 0 0 0-6.28-.28c-4.09 1-6.05 3-4.76 7.47 1.75 6 9.61 4.77 14.45 4.77h23.56c14.58 0 29.17.12 43.75 0H900V434l-.3.59a7.76 7.76 0 0 0 .3-.72z"/><path d="M844.72 449.1a11.3 11.3 0 0 0 1.82-4.05 11.26 11.26 0 0 0-4-1.93 10.21 10.21 0 0 0-4-.15 14.63 14.63 0 0 0-7 3.6 14.75 14.75 0 0 0 4.76-6.28 10.49 10.49 0 0 0-.64-8.25 10.47 10.47 0 0 0-7.5 3.56 11.87 11.87 0 0 0-2 3.35 20.09 20.09 0 0 0-1 3.91 19 19 0 0 0 .33-4 11.69 11.69 0 0 0-.73-3.85 9.73 9.73 0 0 0-.88-1.77 9.13 9.13 0 0 0-.58-.85c-.21-.27-.43-.52-.67-.78a12 12 0 0 0-1.64-1.41 11.78 11.78 0 0 0-2-1.1 10.46 10.46 0 0 0-3.45 7.54 11.73 11.73 0 0 0 .62 3.86 20.28 20.28 0 0 0 1.71 3.67 19.73 19.73 0 0 0-2.33-3.3 11.74 11.74 0 0 0-3-2.47 10.09 10.09 0 0 0-3.83-1.23 11.11 11.11 0 0 0-2.16 0 12.68 12.68 0 0 0-2.26.44 11.14 11.14 0 0 0 .35 4.43 10.32 10.32 0 0 0 .76 1.9 11.43 11.43 0 0 0 1.11 1.66 11.56 11.56 0 0 0 3 2.56 20.73 20.73 0 0 0 3.65 1.72 19.08 19.08 0 0 0-3.9-1 11.66 11.66 0 0 0-3.91.06 10.71 10.71 0 0 0-1.92.56 10.52 10.52 0 0 0-1.8 1 11.32 11.32 0 0 0-3.12 3.16 11.46 11.46 0 0 0 3.12 3.16 10.46 10.46 0 0 0 1.8 1 10.75 10.75 0 0 0 1.92.57 11.4 11.4 0 0 0 3.91.05 19.71 19.71 0 0 0 3.9-1 19.4 19.4 0 0 0-3.65 1.72 11.72 11.72 0 0 0-3 2.55 11.53 11.53 0 0 0-1.11 1.67 10.51 10.51 0 0 0-.76 1.89 11.14 11.14 0 0 0-.35 4.43 12.73 12.73 0 0 0 2.26.45 10.36 10.36 0 0 0 2.16 0 9.91 9.91 0 0 0 3.83-1.22 12 12 0 0 0 3-2.48 19.33 19.33 0 0 0 2.33-3.3 20.37 20.37 0 0 0-1.71 3.68 11.72 11.72 0 0 0-.62 3.85 10.46 10.46 0 0 0 3.45 7.54 11.78 11.78 0 0 0 2-1.1 11.33 11.33 0 0 0 1.64-1.41 9.85 9.85 0 0 0 .67-.78 7.85 7.85 0 0 0 .58-.84 9.81 9.81 0 0 0 .88-1.78 11.59 11.59 0 0 0 .73-3.85 19.08 19.08 0 0 0-.33-4 19.9 19.9 0 0 0 1 3.91 11.73 11.73 0 0 0 2 3.35 10.44 10.44 0 0 0 7.5 3.57 10.51 10.51 0 0 0 .64-8.26 14.75 14.75 0 0 0-4.76-6.28 14.73 14.73 0 0 0 7 3.61 10.4 10.4 0 0 0 4-.15 11.29 11.29 0 0 0 4-1.94 11.46 11.46 0 0 0-1.82-4.05 10.31 10.31 0 0 0-3-2.7 14.73 14.73 0 0 0-7.69-1.74 14.83 14.83 0 0 0 7.69-1.74 10.34 10.34 0 0 0 3-2.94zm42.39-1.1a8.63 8.63 0 0 0-4.48-1 8.62 8.62 0 0 0 4.48-1 6 6 0 0 0 1.74-1.58 6.63 6.63 0 0 0 1.06-2.36 6.36 6.36 0 0 0-2.33-1.13 6 6 0 0 0-2.35-.08 8.47 8.47 0 0 0-4.08 2.1 8.61 8.61 0 0 0 2.77-3.67 2.93 2.93 0 1 0-4.74-2.73 6.94 6.94 0 0 0-1.17 2 11.84 11.84 0 0 0-.61 2.27 11.69 11.69 0 0 0 .2-2.34 7 7 0 0 0-.43-2.24 6.68 6.68 0 0 0-.51-1c-.11-.17-.22-.33-.34-.49a5.58 5.58 0 0 0-.39-.46 7.79 7.79 0 0 0-1-.82 7.66 7.66 0 0 0-1.17-.64 6.07 6.07 0 0 0-2 4.4 6.58 6.58 0 0 0 .37 2.24 11.18 11.18 0 0 0 1 2.14 11.46 11.46 0 0 0-1.36-1.92 6.63 6.63 0 0 0-1.77-1.44 5.74 5.74 0 0 0-2.23-.72 6.61 6.61 0 0 0-1.26 0 7.22 7.22 0 0 0-1.31.26 6.44 6.44 0 0 0 .2 2.58 6 6 0 0 0 .45 1.11 5.81 5.81 0 0 0 .64 1 6.89 6.89 0 0 0 1.73 1.49 11.91 11.91 0 0 0 2.13 1 11.3 11.3 0 0 0-2.28-.6 6.46 6.46 0 0 0-2.28 0 5.94 5.94 0 0 0-1.12.33 5.33 5.33 0 0 0-1 .56 6.62 6.62 0 0 0-1.81 1.84 6.48 6.48 0 0 0 1.81 1.84 6 6 0 0 0 1 .57 7.91 7.91 0 0 0 1.12.33 7 7 0 0 0 2.28 0 12 12 0 0 0 2.28-.6 10.67 10.67 0 0 0-2.13 1 6.7 6.7 0 0 0-1.73 1.49 5.43 5.43 0 0 0-.64 1 5.64 5.64 0 0 0-.45 1.1 6.5 6.5 0 0 0-.2 2.59 8.13 8.13 0 0 0 1.31.25 6 6 0 0 0 3.49-.72 6.86 6.86 0 0 0 1.77-1.45 10.69 10.69 0 0 0 1.36-1.92 11.77 11.77 0 0 0-1 2.14 6.64 6.64 0 0 0-.37 2.25 6 6 0 0 0 2 4.39 6.26 6.26 0 0 0 1.17-.64 7 7 0 0 0 1-.82q.21-.22.39-.45c.12-.16.23-.33.34-.5a6.38 6.38 0 0 0 .94-3.27 11.78 11.78 0 0 0-.2-2.35 12.14 12.14 0 0 0 .61 2.28 7 7 0 0 0 1.17 2 2.93 2.93 0 1 0 4.74-2.73 8.58 8.58 0 0 0-2.77-3.66 8.56 8.56 0 0 0 4.08 2.1 6 6 0 0 0 2.35-.09 6.49 6.49 0 0 0 2.33-1.12 6.68 6.68 0 0 0-1.06-2.37 6 6 0 0 0-1.74-1.74z" fill="#ccdff6"/><rect class="cls-6" x="422.74" y="190.5" width="434.51" height="290.13" rx="10.27"/><rect class="cls-2" x="517.02" y="138.62" width="245.94" height="421.89" rx="3.95" transform="rotate(90 639.995 349.565)"/><path class="cls-7" d="M799.63 203.76a5.68 5.68 0 1 0 5.68 5.68 5.68 5.68 0 0 0-5.68-5.68zm17.23 0a5.68 5.68 0 1 0 5.68 5.68 5.68 5.68 0 0 0-5.68-5.68zm17.24 0a5.68 5.68 0 1 0 5.68 5.68 5.68 5.68 0 0 0-5.68-5.68z"/><path class="cls-8" d="M441.33 221.71a12.27 12.27 0 0 1-12.28-12.27 12.28 12.28 0 0 1 12.28-12.28 12.27 12.27 0 0 1 12.27 12.28 12.27 12.27 0 0 1-12.27 12.27z"/><rect class="cls-7" x="463.99" y="202.74" width="140.66" height="13.39" rx="2.02"/><rect class="cls-9" x="443.24" y="237.44" width="40.74" height="40.74" rx="5.22"/><rect class="cls-10" x="505.05" y="237.44" width="242.92" height="53.4" rx="3.39"/><rect class="cls-11" x="768.6" y="237.44" width="69.73" height="116.55" rx="3.39" transform="rotate(180 803.465 295.715)"/><rect class="cls-12" x="768.6" y="363.74" width="69.73" height="91.95" rx="3.39" transform="rotate(180 803.465 409.715)"/><rect class="cls-13" x="784.98" y="360.91" width="36.96" height="55.17" rx="4.76" transform="rotate(90 803.465 388.495)"/><rect class="cls-8" x="505.05" y="300.59" width="242.92" height="53.4" rx="3.39"/><rect x="505.05" y="363.74" width="242.92" height="91.95" rx="3.39" fill="#69b5ff"/><rect class="cls-7" x="443.24" y="296.8" width="13" height="13" rx="2.95"/><path class="cls-13" d="M491 304.88h-28.5a1.58 1.58 0 0 1 0-3.16H491a1.58 1.58 0 1 1 0 3.16z"/><rect class="cls-7" x="443.24" y="315.13" width="13" height="13" rx="2.95"/><path class="cls-13" d="M491 323.21h-28.5a1.58 1.58 0 0 1 0-3.16H491a1.58 1.58 0 1 1 0 3.16z"/><rect class="cls-7" x="443.24" y="333.46" width="13" height="13" rx="2.95"/><path class="cls-13" d="M491 341.54h-28.5a1.58 1.58 0 1 1 0-3.16H491a1.58 1.58 0 1 1 0 3.16z"/><rect class="cls-7" x="443.24" y="370.28" width="13" height="13" rx="2.95"/><path class="cls-13" d="M491 378.36h-28.5a1.58 1.58 0 1 1 0-3.15H491a1.58 1.58 0 1 1 0 3.15z"/><rect class="cls-7" x="443.24" y="388.61" width="13" height="13" rx="2.95"/><path class="cls-13" d="M491 396.69h-28.5a1.58 1.58 0 0 1 0-3.16H491a1.58 1.58 0 0 1 0 3.16z"/><rect class="cls-7" x="443.24" y="406.94" width="13" height="13" rx="2.95"/><path class="cls-13" d="M491 415h-28.5a1.58 1.58 0 0 1 0-3.16H491a1.58 1.58 0 1 1 0 3.16z"/><rect class="cls-2" x="774.67" y="258.07" width="19.83" height="19.83" rx="4.76"/><path class="cls-2" d="M813.62 251.16h-37.74a1.58 1.58 0 0 1 0-3.16h37.74a1.58 1.58 0 1 1 0 3.16zm16.99 179.62h-54.29a.79.79 0 1 1 0-1.58h54.29a.79.79 0 0 1 0 1.58zm0 4.64h-54.29a.79.79 0 0 1 0-1.58h54.29a.79.79 0 0 1 0 1.58zm-15.47 4.63h-38.82a.79.79 0 0 1 0-1.58h38.82a.79.79 0 0 1 0 1.58zM799.4 261.08h31.65a.79.79 0 1 0 0-1.58H799.4a.79.79 0 0 0 0 1.58zm31.65 3.78H799.4a.79.79 0 1 0 0 1.58h31.65a.79.79 0 0 0 0-1.58zm-15.92 5.36H799.4a.79.79 0 1 0 0 1.58h15.73a.79.79 0 1 0 0-1.58z"/><rect class="cls-2" x="774.67" y="284.27" width="19.83" height="19.83" rx="4.76"/><path class="cls-2" d="M779.52 318.27a4.86 4.86 0 1 0 4.86 4.85 4.85 4.85 0 0 0-4.86-4.85zm51.53 1.39h-43.41a.79.79 0 1 0 0 1.57h43.41a.79.79 0 1 0 0-1.57zM806.78 325h-19.14a.79.79 0 1 0 0 1.57h19.14a.79.79 0 1 0 0-1.57zm-27.26 8.56a4.86 4.86 0 1 0 4.86 4.85 4.85 4.85 0 0 0-4.86-4.85zm51.53 1.44h-43.41a.79.79 0 1 0 0 1.57h43.41a.79.79 0 1 0 0-1.57zm-24.27 5.36h-19.14a.79.79 0 1 0 0 1.57h19.14a.79.79 0 1 0 0-1.57zm-7.38-53.09h31.65a.79.79 0 1 0 0-1.58H799.4a.79.79 0 1 0 0 1.58zm31.65 3.78H799.4a.79.79 0 1 0 0 1.58h31.65a.79.79 0 0 0 0-1.58zm-15.92 5.36H799.4a.79.79 0 1 0 0 1.58h15.73a.79.79 0 1 0 0-1.58z"/><path d="M759.43 138.44L782.5 43a1.85 1.85 0 0 0-1.8-2.28 1.84 1.84 0 0 0-1.17.42l-118.69 97.3z" style="mix-blend-mode:multiply" fill="url(#linear-gradient-2)"/><path class="cls-6" d="M786.93 37.58l5.37 9.63v8.12a.48.48 0 0 0 .47.48.47.47 0 0 0 .47-.45l1.21-8.15-4.54-9.63zm-22.82 9.63l1.2 8.15a.49.49 0 0 0 .48.45.48.48 0 0 0 .47-.48v-8.12l5.37-9.63h-3z"/><circle class="cls-6" cx="779.28" cy="33.85" r="7.32" transform="rotate(-13.28 779.44 33.838)"/><path d="M779.28 28.77a8.29 8.29 0 0 0-5.83 2.28 6.46 6.46 0 0 1 11.65 0 8.27 8.27 0 0 0-5.82-2.28z" style="mix-blend-mode:screen" fill="#fff"/><rect class="cls-17" x="768.19" y="33.85" width="22.17" height="10.04" rx="1.15"/><path class="cls-6" d="M807.43 36.22h-17.07V40l15.47-2a1.83 1.83 0 0 0 1.6-1.82z"/><path class="cls-13" d="M804.8 31.15h1.53a.75.75 0 0 1 .74.68l.36 4.39h-3.73l.36-4.39a.75.75 0 0 1 .74-.68z"/><path class="cls-18" d="M806.31 31.15h-1.49a5.75 5.75 0 0 1 .13-1.21.63.63 0 0 1 1.23 0 5.75 5.75 0 0 1 .13 1.21z"/><path class="cls-17" d="M806.12 30.62l14.58.53a1.31 1.31 0 0 0-1.19-1.45l-13.39.49zm-1.12-.39l-14.59-.53a1.31 1.31 0 0 0 1.19 1.45l13.4-.49z"/><path class="cls-6" d="M751.12 36.22h17.07V40l-15.46-2a1.83 1.83 0 0 1-1.61-1.82z"/><path class="cls-13" d="M753.76 31.15h-1.54a.74.74 0 0 0-.73.68l-.37 4.39h3.74l-.37-4.39a.74.74 0 0 0-.73-.68z"/><path class="cls-18" d="M752.25 31.15h1.49a5.75 5.75 0 0 0-.13-1.21.63.63 0 0 0-1.23 0 5.16 5.16 0 0 0-.13 1.21z"/><path class="cls-17" d="M752.44 30.62l-14.58.53A1.31 1.31 0 0 1 739 29.7l13.4.49zm1.1-.39l14.59-.53a1.31 1.31 0 0 1-1.19 1.45l-13.4-.49z"/><path class="cls-18" d="M775.6 43.7a3.68 3.68 0 1 0 3.68-3.7 3.68 3.68 0 0 0-3.68 3.7z"/><circle class="cls-17" cx="779.28" cy="43.7" r="1.81"/><path class="cls-17" d="M409.7 480.63h-52.17c-1.36 0-2-1.08-1.43-2.36l8.29-19.09a2.36 2.36 0 0 1 2.08-1.08h34.29a2.38 2.38 0 0 1 2.08 1.08l8.28 19.09c.56 1.28-.07 2.36-1.42 2.36z"/><rect class="cls-17" x="370.63" y="452.73" width="25.96" height="5.37" rx="1.2"/><path class="cls-13" d="M392.14 126.77a.75.75 0 0 1-.54-.22l-17.05-17.16a.75.75 0 1 1 1.07-1.06l17.06 17.15a.76.76 0 0 1 0 1.07.73.73 0 0 1-.54.22z"/><path class="cls-13" d="M375.09 126.77a.75.75 0 0 1-.54-.22.76.76 0 0 1 0-1.07l17.05-17.15a.76.76 0 1 1 1.08 1.06l-17.06 17.16a.73.73 0 0 1-.53.22z"/><path class="cls-13" d="M392.14 143.93a.75.75 0 0 1-.54-.22l-17.05-17.16a.76.76 0 0 1 0-1.07.75.75 0 0 1 1.07 0l17.06 17.16a.76.76 0 0 1 0 1.07.73.73 0 0 1-.54.22z"/><path class="cls-13" d="M375.09 143.93a.75.75 0 0 1-.54-.22.76.76 0 0 1 0-1.07l17.05-17.16a.76.76 0 0 1 1.08 1.07l-17.06 17.16a.73.73 0 0 1-.53.22z"/><path class="cls-13" d="M392.14 161.09a.76.76 0 0 1-.54-.23l-17.05-17.15a.77.77 0 0 1 0-1.08.76.76 0 0 1 1.07 0l17.06 17.15a.77.77 0 0 1-.54 1.3z"/><path class="cls-13" d="M375.09 161.09a.79.79 0 0 1-.54-.22.77.77 0 0 1 0-1.08l17.05-17.15a.76.76 0 0 1 1.07 0 .77.77 0 0 1 0 1.08l-17.06 17.15a.74.74 0 0 1-.52.22z"/><path class="cls-13" d="M392.14 178.24a.75.75 0 0 1-.54-.22l-17.05-17.16a.76.76 0 0 1 0-1.07.77.77 0 0 1 1.07 0L392.68 177a.76.76 0 0 1 0 1.07.73.73 0 0 1-.54.17z"/><path class="cls-13" d="M375.09 178.24a.75.75 0 0 1-.54-.22.76.76 0 0 1 0-1.07l17.05-17.16a.77.77 0 0 1 1.07 0 .76.76 0 0 1 0 1.07L375.62 178a.73.73 0 0 1-.53.24z"/><path class="cls-13" d="M392.14 195.4a.79.79 0 0 1-.54-.22L374.55 178a.76.76 0 0 1 0-1.07.75.75 0 0 1 1.07 0l17.06 17.16a.76.76 0 0 1 0 1.07.73.73 0 0 1-.54.24z"/><path class="cls-13" d="M375.09 195.4a.75.75 0 0 1-.54-.22.76.76 0 0 1 0-1.07L391.6 177a.75.75 0 0 1 1.07 0 .76.76 0 0 1 0 1.07l-17.06 17.16a.77.77 0 0 1-.52.17z"/><path class="cls-13" d="M392.14 212.56a.76.76 0 0 1-.54-.23l-17.05-17.15a.77.77 0 0 1 0-1.08.76.76 0 0 1 1.07 0l17.06 17.15a.77.77 0 0 1-.54 1.3z"/><path class="cls-13" d="M375.09 212.56a.79.79 0 0 1-.54-.22.77.77 0 0 1 0-1.08l17.05-17.15a.76.76 0 0 1 1.07 0 .77.77 0 0 1 0 1.08l-17.06 17.15a.74.74 0 0 1-.52.22z"/><path class="cls-13" d="M392.14 229.71a.75.75 0 0 1-.54-.22l-17.05-17.16a.76.76 0 0 1 1.07-1.07l17.06 17.16a.76.76 0 0 1 0 1.07.73.73 0 0 1-.54.22z"/><path class="cls-13" d="M375.09 229.71a.75.75 0 0 1-.54-.22.76.76 0 0 1 0-1.07l17.05-17.16a.77.77 0 0 1 1.07 0 .76.76 0 0 1 0 1.07l-17.06 17.16a.73.73 0 0 1-.52.22z"/><path class="cls-13" d="M392.14 246.87a.79.79 0 0 1-.54-.22l-17.05-17.16a.76.76 0 0 1 0-1.07.75.75 0 0 1 1.07 0l17.06 17.16a.76.76 0 0 1 0 1.07.73.73 0 0 1-.54.22z"/><path class="cls-13" d="M375.09 246.87a.75.75 0 0 1-.54-.22.76.76 0 0 1 0-1.07l17.05-17.16a.75.75 0 0 1 1.07 0 .76.76 0 0 1 0 1.07l-17.06 17.16a.77.77 0 0 1-.52.22z"/><path class="cls-13" d="M392.14 264a.76.76 0 0 1-.54-.23l-17.05-17.15a.77.77 0 0 1 0-1.08.76.76 0 0 1 1.07 0l17.06 17.15a.76.76 0 0 1 0 1.07.74.74 0 0 1-.54.24z"/><path class="cls-13" d="M375.09 264a.77.77 0 0 1-.54-1.3l17.05-17.15a.76.76 0 0 1 1.07 0 .77.77 0 0 1 0 1.08l-17.05 17.17a.74.74 0 0 1-.53.2z"/><path class="cls-13" d="M392.14 281.18a.75.75 0 0 1-.54-.22l-17.05-17.16a.76.76 0 0 1 1.07-1.07l17.06 17.16a.76.76 0 0 1 0 1.07.73.73 0 0 1-.54.22z"/><path class="cls-13" d="M375.09 281.18a.75.75 0 0 1-.54-.22.76.76 0 0 1 0-1.07l17.05-17.16a.76.76 0 0 1 1.08 1.07L375.62 281a.73.73 0 0 1-.53.18z"/><path class="cls-13" d="M392.14 298.34a.76.76 0 0 1-.54-.23L374.55 281a.76.76 0 0 1 0-1.07.75.75 0 0 1 1.07 0l17.06 17.16a.76.76 0 0 1 0 1.07.77.77 0 0 1-.54.18z"/><path class="cls-13" d="M375.09 298.34a.79.79 0 0 1-.54-.22.76.76 0 0 1 0-1.07l17.05-17.16a.75.75 0 0 1 1.07 0 .76.76 0 0 1 0 1.07l-17.06 17.15a.74.74 0 0 1-.52.23z"/><path class="cls-13" d="M392.14 315.49a.75.75 0 0 1-.54-.22l-17.05-17.16a.75.75 0 1 1 1.07-1.06l17.06 17.15a.76.76 0 0 1 0 1.07.73.73 0 0 1-.54.22z"/><path class="cls-13" d="M375.09 315.49a.75.75 0 0 1-.54-.22.76.76 0 0 1 0-1.07l17.05-17.15a.76.76 0 1 1 1.08 1.06l-17.06 17.16a.73.73 0 0 1-.53.22z"/><path class="cls-13" d="M392.14 332.63a.75.75 0 0 1-.54-.22l-17.05-17.16a.76.76 0 0 1 0-1.07.77.77 0 0 1 1.07 0l17.06 17.16a.76.76 0 0 1 0 1.07.73.73 0 0 1-.54.22z"/><path class="cls-13" d="M375.09 332.63a.75.75 0 0 1-.54-.22.76.76 0 0 1 0-1.07l17.05-17.16a.77.77 0 0 1 1.07 0 .76.76 0 0 1 0 1.07l-17.06 17.16a.73.73 0 0 1-.52.22z"/><path class="cls-13" d="M392.14 349.79a.79.79 0 0 1-.54-.22l-17.05-17.16a.76.76 0 0 1 0-1.07.75.75 0 0 1 1.07 0l17.06 17.16a.76.76 0 0 1 0 1.07.73.73 0 0 1-.54.22z"/><path class="cls-13" d="M375.09 349.79a.75.75 0 0 1-.54-.22.76.76 0 0 1 0-1.07l17.05-17.16a.75.75 0 0 1 1.07 0 .76.76 0 0 1 0 1.07l-17.06 17.16a.77.77 0 0 1-.52.22z"/><path class="cls-13" d="M392.14 367a.76.76 0 0 1-.54-.23l-17.05-17.15a.77.77 0 0 1 0-1.08.76.76 0 0 1 1.07 0l17.06 17.15a.76.76 0 0 1 0 1.07.74.74 0 0 1-.54.24z"/><path class="cls-13" d="M375.09 367a.77.77 0 0 1-.54-1.3l17.05-17.2a.76.76 0 0 1 1.07 0 .77.77 0 0 1 0 1.08l-17.06 17.15a.74.74 0 0 1-.52.27z"/><path class="cls-13" d="M392.14 384.1a.75.75 0 0 1-.54-.22l-17.05-17.16a.76.76 0 0 1 1.07-1.07l17.06 17.16a.76.76 0 0 1 0 1.07.73.73 0 0 1-.54.22z"/><path class="cls-13" d="M375.09 384.1a.75.75 0 0 1-.54-.22.76.76 0 0 1 0-1.07l17.05-17.16a.76.76 0 0 1 1.08 1.07l-17.06 17.16a.73.73 0 0 1-.53.22z"/><path class="cls-13" d="M392.14 401.26a.76.76 0 0 1-.54-.23l-17.05-17.15a.76.76 0 0 1 0-1.07.75.75 0 0 1 1.07 0L392.68 400a.76.76 0 0 1 0 1.07.77.77 0 0 1-.54.19z"/><path class="cls-13" d="M375.09 401.26a.79.79 0 0 1-.54-.22.76.76 0 0 1 0-1.07l17.05-17.16a.75.75 0 0 1 1.07 0 .76.76 0 0 1 0 1.07L375.62 401a.74.74 0 0 1-.53.26z"/><path class="cls-13" d="M392.14 418.41a.75.75 0 0 1-.54-.22L374.55 401a.75.75 0 1 1 1.07-1.06l17.06 17.15a.76.76 0 0 1 0 1.07.73.73 0 0 1-.54.25z"/><path class="cls-13" d="M375.09 418.41a.75.75 0 0 1-.54-.22.76.76 0 0 1 0-1.07L391.6 400a.76.76 0 0 1 1.08 1.06l-17.06 17.16a.73.73 0 0 1-.53.19z"/><path class="cls-13" d="M392.14 435.57a.75.75 0 0 1-.54-.22l-17.05-17.16a.76.76 0 0 1 1.07-1.07l17.06 17.16a.76.76 0 0 1 0 1.07.73.73 0 0 1-.54.22z"/><path class="cls-13" d="M375.09 435.57a.75.75 0 0 1-.54-.22.76.76 0 0 1 0-1.07l17.05-17.16a.76.76 0 0 1 1.08 1.07l-17.06 17.16a.73.73 0 0 1-.53.22z"/><path class="cls-13" d="M392.14 452.73a.76.76 0 0 1-.54-.23l-17.05-17.15a.76.76 0 0 1 0-1.07.75.75 0 0 1 1.07 0l17.06 17.15a.77.77 0 0 1-.54 1.3z"/><path class="cls-13" d="M375.09 452.73a.79.79 0 0 1-.54-.22.77.77 0 0 1 0-1.08l17.05-17.15a.75.75 0 0 1 1.07 0 .76.76 0 0 1 0 1.07l-17.05 17.15a.74.74 0 0 1-.53.23z"/><path class="cls-17" d="M392.49 452.73h-17.75a.79.79 0 0 1-.79-.79v-343a.79.79 0 0 1 .79-.79h17.75a.79.79 0 0 1 .79.79v343a.8.8 0 0 1-.79.79zm-17-1.58h16.21V109.68h-16.17z"/><path class="cls-13" d="M383.61 54.52a.79.79 0 0 1-.79-.79V.79a.79.79 0 1 1 1.58 0v52.94a.79.79 0 0 1-.79.79z"/><path class="cls-13" d="M391.7 47.26h-16.17a.79.79 0 0 1 0-1.58h16.17a.79.79 0 1 1 0 1.58zm-.79-7.61h-14.59a.79.79 0 0 1 0-1.58h14.59a.79.79 0 1 1 0 1.58zm-.79-7.65h-13a.79.79 0 0 1 0-1.57h13a.79.79 0 1 1 0 1.57zm-.79-7.58h-11.44a.79.79 0 0 1 0-1.58h11.44a.79.79 0 1 1 0 1.58zm-.79-7.61h-9.86a.79.79 0 0 1 0-1.58h9.86a.79.79 0 1 1 0 1.58zm-.79-7.62h-8.28a.79.79 0 0 1 0-1.58h8.28a.79.79 0 1 1 0 1.58z"/><path class="cls-17" d="M387 1.58h-6.71a.79.79 0 0 1-.79-.79.79.79 0 0 1 .79-.79H387a.78.78 0 0 1 .78.79.78.78 0 0 1-.78.79z"/><path class="cls-13" d="M368.69 54.87a.79.79 0 0 1-.79-.79v-7.57a.79.79 0 0 1 1.58 0v7.57a.79.79 0 0 1-.79.79zm-6.05 0a.79.79 0 0 1-.79-.79v-7.57a.79.79 0 0 1 1.58 0v7.57a.79.79 0 0 1-.79.79zm-6.04 0a.79.79 0 0 1-.79-.79v-7.57a.79.79 0 1 1 1.58 0v7.57a.79.79 0 0 1-.79.79zm-6.05 0a.79.79 0 0 1-.79-.79v-7.57a.79.79 0 1 1 1.58 0v7.57a.79.79 0 0 1-.79.79zm-6.05 0a.79.79 0 0 1-.79-.79v-7.57a.79.79 0 1 1 1.58 0v7.57a.79.79 0 0 1-.79.79zm-6.05 0a.78.78 0 0 1-.78-.79v-7.57a.79.79 0 1 1 1.57 0v7.57a.79.79 0 0 1-.79.79zm-6.04 0a.79.79 0 0 1-.79-.79v-7.57a.79.79 0 1 1 1.58 0v7.57a.79.79 0 0 1-.79.79zm-6.05 0a.79.79 0 0 1-.79-.79v-7.57a.79.79 0 1 1 1.58 0v7.57a.79.79 0 0 1-.79.79zm-6.05 0a.79.79 0 0 1-.79-.79v-7.57a.79.79 0 0 1 1.58 0v7.57a.79.79 0 0 1-.79.79zm-6.04 0a.79.79 0 0 1-.79-.79v-7.57a.79.79 0 1 1 1.57 0v7.57a.78.78 0 0 1-.78.79z"/><path class="cls-17" d="M308.22 54.87a.79.79 0 0 1-.79-.79v-7.57a.79.79 0 1 1 1.58 0v7.57a.79.79 0 0 1-.79.79z"/><path class="cls-17" d="M308.22 47.3a.79.79 0 0 1-.42-1.46l72-45.37a.79.79 0 0 1 .84 1.34l-72 45.37a.81.81 0 0 1-.42.12z"/><path class="cls-17" d="M326.37 47.3a.81.81 0 0 1-.61-.28.78.78 0 0 1 .1-1.11L379.75.54a.78.78 0 0 1 1.11.09.79.79 0 0 1-.09 1.11l-53.9 45.37a.76.76 0 0 1-.5.19zM521 40.6a.83.83 0 0 1-.22 0L386.75 1.9a.79.79 0 0 1 .43-1.52l134 38.67a.8.8 0 0 1 .54 1 .79.79 0 0 1-.72.55z"/><path class="cls-13" d="M421 54.87a.76.76 0 0 1-.56-.23L406.2 40.37a.81.81 0 0 1 0-1.12.79.79 0 0 1 1.12 0l14.28 14.28a.8.8 0 0 1 0 1.11.78.78 0 0 1-.6.23z"/><path class="cls-13" d="M449.59 54.87a.75.75 0 0 1-.56-.23l-13.72-13.71-13.71 13.71a.79.79 0 0 1-1.12 0 .78.78 0 0 1 0-1.11l14.27-14.28a.79.79 0 0 1 1.12 0l14.27 14.28a.78.78 0 0 1 0 1.11.74.74 0 0 1-.55.23z"/><path class="cls-13" d="M478.13 54.87a.74.74 0 0 1-.55-.23l-13.72-13.71-13.72 13.71a.78.78 0 0 1-1.14-1.11l14.3-14.28a.79.79 0 0 1 1.12 0l14.27 14.28a.78.78 0 0 1 0 1.11.75.75 0 0 1-.56.23z"/><path class="cls-13" d="M506.68 54.87a.74.74 0 0 1-.55-.23l-13.72-13.71-13.72 13.71a.78.78 0 0 1-1.11-1.11l14.27-14.28a.79.79 0 0 1 1.12 0l14.27 14.28a.78.78 0 0 1 0 1.11.75.75 0 0 1-.56.23z"/><path class="cls-13" d="M535.23 54.87a.78.78 0 0 1-.56-.23L521 40.93l-13.76 13.71a.78.78 0 0 1-1.11-1.11l14.27-14.28a.79.79 0 0 1 1.12 0l14.27 14.28a.78.78 0 0 1 0 1.11.76.76 0 0 1-.56.23z"/><path class="cls-13" d="M535.23 54.87a.78.78 0 0 1-.56-.23.8.8 0 0 1 0-1.11L549 39.25a.78.78 0 0 1 1.11 0 .79.79 0 0 1 0 1.12l-14.32 14.27a.76.76 0 0 1-.56.23z"/><path class="cls-17" d="M549.51 40.6H406.76a.79.79 0 0 1 0-1.58h142.75a.79.79 0 0 1 0 1.58zm-174.77 6.7h-66.52a.79.79 0 0 1 0-1.58h66.52a.79.79 0 1 1 0 1.58zm0 7.57h-66.52a.79.79 0 1 1 0-1.57h66.52a.79.79 0 1 1 0 1.57z"/><path class="cls-17" d="M563.78 54.87H361.26a.79.79 0 1 1 0-1.57h202.52a.79.79 0 1 1 0 1.57z"/><path class="cls-17" d="M392.49 54.87a.8.8 0 0 1-.79-.7L386.18.87a.79.79 0 0 1 1.57-.16L393.27 54a.79.79 0 0 1-.7.87zm-17.75 0h-.08A.8.8 0 0 1 374 54L379.47.71a.79.79 0 0 1 1.53.16l-5.52 53.3a.78.78 0 0 1-.74.7zm189.04 0a.78.78 0 0 1-.56-.23L549 40.37a.79.79 0 0 1 0-1.12.78.78 0 0 1 1.11 0l14.28 14.28a.79.79 0 0 1-.56 1.34z"/><path class="cls-17" d="M392.49 54.87a.76.76 0 0 1-.56-.23.78.78 0 0 1 0-1.11l14.27-14.28a.79.79 0 0 1 1.12 1.12l-14.27 14.27a.78.78 0 0 1-.56.23z"/><path class="cls-17" d="M371.63 54.08h15.92a13.17 13.17 0 0 1 13.17 13.17v15.93a5.13 5.13 0 0 1-5.13 5.13h-24a5.13 5.13 0 0 1-5.13-5.13v-24a5.13 5.13 0 0 1 5.13-5.13z"/><path d="M397.57 67.26a10 10 0 0 0-10-10h-15.94a2 2 0 0 0-2 2V73.8h27.91z" fill="#949cff"/><path class="cls-13" d="M367.7 98.68h31.83v9.42H367.7zm7.45-10.37h16.93v5.29h-16.93z"/><path class="cls-13" d="M375.15 88.31h16.93v5.29h-16.93z"/><path class="cls-17" d="M399.53 98.68H367.7l7.45-5.09h16.93l7.45 5.09zM503.41 242a.4.4 0 0 1-.4-.4V58.33a.4.4 0 0 1 .4-.39.39.39 0 0 1 .39.39v183.25a.39.39 0 0 1-.39.42zm7.89 0a.4.4 0 0 1-.4-.4V58.33a.4.4 0 0 1 .4-.39.39.39 0 0 1 .39.39v183.25a.39.39 0 0 1-.39.42z"/><path class="cls-17" d="M518.35 58.33h-22a4.24 4.24 0 0 1-4.24-4.25 4.24 4.24 0 0 1 4.24-4.24h22a4.24 4.24 0 0 1 4.25 4.24 4.25 4.25 0 0 1-4.25 4.25z"/><path class="cls-7" d="M507.57 269.06a4.51 4.51 0 0 1-2.1-8.49 1.83 1.83 0 0 0 .92-1.62 1.19 1.19 0 0 1 2.37 0 4.17 4.17 0 0 1-2.18 3.71 2.14 2.14 0 1 0 3.13 1.89 1.19 1.19 0 0 1 2.37 0 4.51 4.51 0 0 1-4.51 4.51z"/><path class="cls-13" d="M518.85 281a.39.39 0 0 1-.31-.15l-11.19-14.26-11.18 14.26a.4.4 0 0 1-.56.06.39.39 0 0 1-.06-.55L507 265.67a.41.41 0 0 1 .62 0l11.5 14.65a.38.38 0 0 1-.07.55.36.36 0 0 1-.2.13z"/><path class="cls-7" d="M510.42 258.94h-6.14a2.92 2.92 0 0 1-2.87-2.4l-2.1-11.54a2.93 2.93 0 0 1 2.88-3.45h10.33a2.92 2.92 0 0 1 2.87 3.45l-2.09 11.51a2.92 2.92 0 0 1-2.88 2.43z"/><rect class="cls-11" x="471.59" y="280.56" width="71.54" height="42.79" rx="2.9"/><path class="cls-2" d="M493.84 292h-10.31a4.76 4.76 0 0 0-4.76 4.76v10.31a4.76 4.76 0 0 0 4.76 4.76h10.31a4.76 4.76 0 0 0 4.75-4.76V296.8a4.76 4.76 0 0 0-4.75-4.8zm9.66 3h31.65a.79.79 0 1 0 0-1.58H503.5a.79.79 0 1 0 0 1.58zm15.73 9.14H503.5a.79.79 0 1 0 0 1.58h15.73a.79.79 0 1 0 0-1.58zm15.92-5.36H503.5a.79.79 0 0 0 0 1.58h31.65a.79.79 0 0 0 0-1.58z"/><rect class="cls-17" x="307.49" y="56.43" width="37.51" height="22.53" rx="1.61"/><path class="cls-20" d="M643.61 431c0 3.32.12 6.64.22 10 0 1.66.13 3.31.19 5l.2 5v.41a.17.17 0 0 1 0 .07l-.78 5.94c-.26 2-.54 4-.77 5.94-.5 4-1 7.92-1.4 11.89a1.2 1.2 0 0 1-2.4-.17c.13-4 .2-8 .26-12 .05-2 0-4 .06-6v-6 .49l-1-4.87c-.34-1.62-.67-3.24-1-4.86-.72-3.24-1.44-6.48-2.24-9.71a4.39 4.39 0 0 1 8.53-2.09 5 5 0 0 1 .13.96z"/><path class="cls-20" d="M636.43 431.8c-.52 3.68-.95 7.37-1.37 11.05s-.9 7.38-1 11.08-.38 7.39-.51 11.08-.29 7.4-.38 11.1a1.21 1.21 0 0 1-2.42 0c-.15-3.7-.35-7.4-.57-11.1s-.47-7.41-.72-11.11l-.78-11.13c-.3-3.71-.6-7.42-1-11.14a4.39 4.39 0 1 1 8.74-.92 5.45 5.45 0 0 1 .01 1.09z"/><path class="cls-21" d="M644.38 447.09h-16.67c-2.55-11.49-2-20.42 1.92-27.43h11.6c2.34 6.7 3.82 15.66 3.15 27.43z"/><path class="cls-22" d="M638.89 480.63h.88l.26-3.84 1.73 3.84h5.4l.05-.88c.1-1.69-2.47-2-4.2-2l-4.11-5c-1.64 1.99-.01 4.34-.01 7.88zm-8.36 0h4.4a5 5 0 0 0 .08-2.85c-1.22-.14-1.1-3.28-1.73-5h-2.66a19.09 19.09 0 0 0-.09 7.85z"/><path class="cls-20" d="M638.9 472.73l1.61-.86 2.5 5.86-4.11-5zm-8.18 0l.37 5.14h2.48l-.29-5.14c0-.29-2.56-.29-2.56 0z"/><path class="cls-6" d="M651.77 395.52a2.22 2.22 0 0 0-2.7-1.59c-2.17.55-4.43 1.13-6.49 1.71l-4.27 1.2c-1.38.43-2.78.82-4.15 1.27a2.25 2.25 0 0 0-1.55 2.5 2.18 2.18 0 0 0 2.62 1.73c1.44-.32 2.87-.71 4.31-1.06l4.28-1.18c2.16-.59 4.3-1.22 6.44-1.87a2.23 2.23 0 0 0 1.51-2.71z"/><path class="cls-6" d="M660.06 379a1.17 1.17 0 0 0-1.47.36c-1.05 1.42-2.05 2.88-3.07 4.32l-3 4.39c-1.26 1.86-3.32 5-4.62 7a2.11 2.11 0 0 0 .66 2.95 2.11 2.11 0 0 0 2.95-.75c1.17-2.06 3-5.33 4.11-7.33l2.53-4.67c.81-1.57 1.65-3.12 2.44-4.71a1.19 1.19 0 0 0-.53-1.56z"/><path class="cls-20" d="M657.44 379l1.4-2.12a1.19 1.19 0 0 1 .76-.51l1.89-.39a1.2 1.2 0 0 1 1.38 1.55l-1.13 3.54a2.41 2.41 0 0 1-3.62 1.27 2.4 2.4 0 0 1-.68-3.34z"/><path class="cls-6" d="M641.23 419.66l1.88-21.33a2.71 2.71 0 0 0-2.86-2.53h-11.42a2.71 2.71 0 0 0-2.85 2.53l3.65 21.33z"/><rect class="cls-2" x="636.68" y="374.86" width="76.99" height="37.54" rx="4.29" transform="rotate(-45 675.17 393.636)"/><rect class="cls-13" x="647.41" y="395.99" width="19.83" height="19.83" rx="4.76" transform="rotate(-45 657.331 405.905)"/><path class="cls-12" d="M663.91 390.14a.78.78 0 0 1-.56-.23.8.8 0 0 1 0-1.11l25.33-25.33a.78.78 0 0 1 1.11 0 .79.79 0 0 1 0 1.12l-25.32 25.32a.76.76 0 0 1-.56.23zm3.01 3.02a.78.78 0 0 1-.55-.23.79.79 0 0 1 0-1.12l25.32-25.32a.79.79 0 0 1 1.12 1.11l-25.33 25.33a.79.79 0 0 1-.56.23zm3.02 3.01a.8.8 0 0 1-.56-.23.79.79 0 0 1 0-1.12l25.32-25.32a.79.79 0 0 1 1.12 1.12l-25.32 25.32a.82.82 0 0 1-.56.23zm3.06 3.01a.78.78 0 0 1-.56-.23.8.8 0 0 1 0-1.11l25.33-25.33a.79.79 0 1 1 1.11 1.12L673.51 399a.76.76 0 0 1-.51.18zm3 3.02a.79.79 0 0 1-.56-1.35l25.32-25.32a.79.79 0 0 1 1.12 0 .78.78 0 0 1 0 1.11L676.52 402a.78.78 0 0 1-.52.2zm3 3.01a.82.82 0 0 1-.56-.23.78.78 0 0 1 0-1.11l25.33-25.33a.78.78 0 0 1 1.11 0 .79.79 0 0 1 0 1.12L679.54 405a.82.82 0 0 1-.54.21z"/><path class="cls-2" d="M634.29 399.54H639a1.09 1.09 0 0 0 1.21-1v-2.51a2 2 0 0 0 0-.24h-9.9c.05.08.1.16.16.24l1.89 2.51a2.7 2.7 0 0 0 1.93 1z"/><path class="cls-6" d="M629.8 398.38l4.71 16.44-2.22-1.57 12.73.24a1.18 1.18 0 0 1 .14 2.34l-12.61 1.77a2 2 0 0 1-2.18-1.42v-.16l-4.72-16.44a2.18 2.18 0 0 1 4.19-1.2z"/><path class="cls-23" d="M636.29 381v13.36h8.21c-4.71-4.89.8-12.22-4.75-16.59z"/><path class="cls-20" d="M646.14 415.65l2.09-1.32a1.19 1.19 0 0 0 .51-.73l.42-1.83a1.17 1.17 0 0 0-1.47-1.38l-3.47 1a2.35 2.35 0 0 0-1.31 3.5 2.34 2.34 0 0 0 3.23.76zm-12.49-19.83h3.07v-4.72l-3.73-.49.66 5.21z"/><path class="cls-20" d="M640.24 381.94c0-2.09-1.46-3.32-4.56-3.32s-4.56 1.23-4.56 3.32c0 1.65-.33 4.71-.22 6.36a5.39 5.39 0 0 0 2.06 4.15 4 4 0 0 0 5.44 0 5.39 5.39 0 0 0 2.06-4.15c.11-1.65-.22-4.71-.22-6.36z"/><path class="cls-23" d="M633.11 375.62a8.4 8.4 0 0 1 5.5.55c2.68 1.7 3.08 5.68-5 5.68-.89.83-1.54 3.33-1.54 5.38h-1.19a20.42 20.42 0 0 1-.48-8.53 3.91 3.91 0 0 1 2.71-3.08z"/><path class="cls-23" d="M628.1 394.33h6.9c-6.52-6.13 3.45-18.12-2.39-18.12-5.07 0-7.27 10.4-4.51 18.12z"/><path class="cls-20" d="M629.93 385c-.45 0-.63.76-.4 1.7a3.68 3.68 0 0 0 .46 1.1l.61-2.32a1 1 0 0 0-.67-.48z"/><path class="cls-24" d="M635 385.28h-1.66a.26.26 0 0 1 0-.52H635a.26.26 0 0 1 0 .52zm4.7 0H638a.26.26 0 0 1 0-.52h1.66a.26.26 0 0 1 0 .52z"/><ellipse class="cls-24" cx="634.29" cy="386.48" rx=".42" ry=".81"/><path class="cls-24" d="M638.77 385.66c-.24 0-.42.37-.42.82s.18.81.42.81.42-.36.42-.81-.19-.82-.42-.82z"/><path class="cls-25" d="M637.18 386.61a4.19 4.19 0 0 0 .56 1.86.27.27 0 0 1-.06.38h-.22l-.85.13a.44.44 0 0 1-.5-.37.43.43 0 0 1 .37-.5h.13l.85.13-.27.44a4.51 4.51 0 0 1-.01-2.07z"/><path class="cls-2" d="M638.19 390.13a2 2 0 0 1-3.44 0z"/><path class="cls-23" d="M634.29 383.33c2.38-.9 4.2-2.09 4.93-3.88l.82.65c-.75 2.03-2.96 2.9-5.75 3.23z"/><path class="cls-26" d="M713.51 191H702.7a2.19 2.19 0 0 1-2.13-2.23v-6.84h15.03v6.84a2.17 2.17 0 0 1-2.09 2.23zm-28.15 21.85a3.12 3.12 0 0 1-.84.86c-1.41.68-3.35.68-3.6 1.82l-.15.79h8.3l-.16-2.81z"/><path class="cls-20" d="M688.83 211.69h-2.67s-.36.61-.77 1.16q2.33 2.57 3.55.66z"/><path class="cls-26" d="M703.55 213.14l-.26.48c-1 .49-1.87 1.08-1.87 1.91v.79h5.71l-.11-3.18zm.76-29.73L690 186.88l-.34.08a2.54 2.54 0 0 0-1.92 2.22L685.68 212l3.31.46 4.15-22.58-2.25 2.3 14.65-1.17z"/><path class="cls-20" d="M707 211.82h-2.67l-.78 1.45c3-.54 3 2.46 3.5 0z"/><path class="cls-26" d="M710 183.63l-5.2 3.4-.6.39a2.39 2.39 0 0 0-1.08 2.08l.78 22.73h3.34l1.29-22.71-1.66 2.48 6.09-1.25z"/><path class="cls-2" d="M701.43 215.71l.02.61h5.71l-.02-.61h-5.71zm-20.54 0l-.12.61h8.3l-.03-.61h-8.15z"/><path class="cls-6" d="M679 176.52l11.69-5.71c2.18-.93 4.24 2.62 2 3.59l-12.88 4.21a1.12 1.12 0 0 1-1.36-.57 1.13 1.13 0 0 1 .55-1.52z"/><path class="cls-6" d="M690.13 170.87l10.11-15.13a2.09 2.09 0 0 1 3.48 2.33L693 174.16c-1.24 1.4-4.77-.07-2.87-3.29z"/><rect class="cls-11" x="654.67" y="139.42" width="37.54" height="37.54" rx="6.56"/><path class="cls-20" d="M678.55 178.75l-2.22-.29a1.08 1.08 0 0 1-.72-.45l-1.14-1.5a1.19 1.19 0 0 1 .55-1.91l3.18-.57a2.4 2.4 0 0 1 2.57 2.64 2 2 0 0 1-2.22 2.08z"/><path class="cls-6" d="M700.22 179.82l-.22-22.54a3.29 3.29 0 0 1 3.28-3.2h12.79a3.1 3.1 0 0 1 3.11 3.2l-3.81 22.34.48 4.23-15.9-1.43z"/><path class="cls-2" d="M706.22 154.08h6.62c-2.78 6.16-2.93 16.44-2.33 29.29l-7.71-.69c1.6-14.32-2.4-25.32 3.42-28.6z"/><path class="cls-20" d="M712.21 154.08a3.09 3.09 0 0 1-3.07 3 2.9 2.9 0 0 1-2.91-3z"/><path class="cls-6" d="M715.26 155.84l-8.61 17.51 2.07-1.16-13.55-.19a1.13 1.13 0 0 0-1.15 1.11 1.14 1.14 0 0 0 1 1.14l13.37 2.16a1.89 1.89 0 0 0 2-1l.06-.13 8.55-17.59a2.1 2.1 0 0 0-3.76-1.85z"/><path class="cls-20" d="M694 175.81l-2.22-.32a1.08 1.08 0 0 1-.72-.45l-1.06-1.51a1.19 1.19 0 0 1 .57-1.9l3.18-.54a2.39 2.39 0 0 1 2.54 2.66 2 2 0 0 1-2.29 2.06zm17.5-21.73h-3.82l.1-3.72 3.47-.47.25 4.19z"/><path class="cls-6" d="M704.86 140.36c-.17.58 0 6.32 0 6.32h-1.21c-.66-2.29-1.78-6.35-.86-8.08.72-1.35 3.57-1.51 3.57-1.51z"/><path class="cls-20" d="M703.27 141.34c0-2.11 1.47-3.36 4.6-3.36s4.6 1.25 4.6 3.36c0 1.67.34 4.75.23 6.42a5.43 5.43 0 0 1-2.08 4.19 4 4 0 0 1-5.49 0 5.37 5.37 0 0 1-2.08-4.19c-.11-1.67.22-4.76.22-6.42z"/><path class="cls-6" d="M711.74 140.33c.17.58 0 6.25 0 6.25H713a20.9 20.9 0 0 0 .67-7.19z"/><path class="cls-2" d="M708.7 148.79a1.51 1.51 0 0 1-3 0 7.27 7.27 0 0 0 3 0z"/><path class="cls-20" d="M714.33 146.15c-.23.95-.79 1.71-1.24 1.71s-.63-.76-.4-1.71.78-1.71 1.23-1.71.64.77.41 1.71z"/><path class="cls-24" d="M709.1 145.27c0 .45.19.82.42.82s.42-.37.42-.82-.19-.83-.42-.83-.42.37-.42.83zm-4.53 0c0 .45.19.82.43.82s.42-.37.42-.82-.19-.83-.42-.83-.43.37-.43.83z"/><path class="cls-25" d="M706.86 144.84l-.69 2.81a.26.26 0 0 0 .19.32h.1l1.22.13a.42.42 0 0 0 .46-.38.43.43 0 0 0-.38-.46h-.08l-1.22.13.29.33z"/><path class="cls-6" d="M711.76 140.36h-8.57c-.6-5.38 10.16-7.69 10.44-.94z"/><path class="cls-25" d="M708.36 144.27a.34.34 0 0 0 .41 0 1.54 1.54 0 0 1 1.74 0 .36.36 0 0 0 .42 0c.1-.09.06-.31-.13-.44a2.08 2.08 0 0 0-2.32 0c-.18.17-.23.35-.12.44zm-4.74 0a.34.34 0 0 0 .41 0 1.54 1.54 0 0 1 1.74 0 .36.36 0 0 0 .42 0c.1-.09.06-.31-.13-.44a2.08 2.08 0 0 0-2.32 0c-.18.17-.23.35-.12.44z"/><path class="cls-2" d="M681.7 167.44h-5.29a10.56 10.56 0 0 1-4.07-.81c-.26-.11-.62-.23-1-.36a18.52 18.52 0 0 1-1.91-.73 1.16 1.16 0 0 1-1.15 1.06h-3.85a1.16 1.16 0 0 1-1.16-1.16v-10.36a1.16 1.16 0 0 1 1.16-1.16h4.38a36 36 0 0 0 5.2-8 1.17 1.17 0 0 1 1.63-.48 4.56 4.56 0 0 1 2.24 2.87c.38 1.53 0 3.33-1.17 5.6h6.52a1 1 0 0 1 .35.06 2.26 2.26 0 0 1 1.41.82 2.42 2.42 0 0 1 .49 1.85 2.8 2.8 0 0 1-.62 1.37 2.48 2.48 0 0 1 .22 1.43 2.8 2.8 0 0 1-.62 1.37 2.32 2.32 0 0 1 .22 1.43 2.71 2.71 0 0 1-.61 1.37 2.48 2.48 0 0 1 .22 1.43 2.84 2.84 0 0 1-2.25 2.34.91.91 0 0 1-.34.06zM668.64 164l.63.5a9.67 9.67 0 0 0 2.32 1c.4.14.78.27 1 .38a9.79 9.79 0 0 0 3.77.75h5.41a2.08 2.08 0 0 0 1.68-1.7 1.57 1.57 0 0 0-.26-1.14l-.19-.27.25-.24a2 2 0 0 0 .59-1.14 1.62 1.62 0 0 0-.25-1.15l-.2-.28.25-.23a2 2 0 0 0 .6-1.14 1.58 1.58 0 0 0-.26-1.15l-.19-.28.25-.23a2 2 0 0 0 .6-1.14 1.59 1.59 0 0 0-.33-1.24 1.58 1.58 0 0 0-1-.56h-8.01l.32-.58c1.3-2.35 1.76-4.18 1.4-5.62a3.77 3.77 0 0 0-1.87-2.38.37.37 0 0 0-.29 0 .35.35 0 0 0-.23.18 36.6 36.6 0 0 1-5.44 8.3l-.12.13h-4.73a.36.36 0 0 0-.37.37v10.36a.37.37 0 0 0 .37.37h3.85a.38.38 0 0 0 .37-.37z"/><path class="cls-2" d="M668.64 154.31h.79v10.54h-.79zm60.97 326.32a.39.39 0 0 1-.39-.4v-86.3a.39.39 0 0 1 .39-.39.4.4 0 0 1 .4.39v86.3a.4.4 0 0 1-.4.4zm36.1 0a.4.4 0 0 1-.39-.32l-16.86-86.74a.4.4 0 0 1 .31-.46.4.4 0 0 1 .47.31l16.86 86.74a.4.4 0 0 1-.32.46z"/><path class="cls-2" d="M746.62 480.63a.39.39 0 0 1-.38-.32l-16.86-86.74a.39.39 0 1 1 .77-.15L747 480.16a.4.4 0 0 1-.31.46z"/><path class="cls-2" d="M748.85 393.89h-19.09a.39.39 0 0 1-.39-.39.4.4 0 0 1 .39-.4h19.09a.39.39 0 0 1 .39.4.38.38 0 0 1-.39.39zm2.41 12.39h-19.09a.39.39 0 0 1 0-.78h19.09a.39.39 0 0 1 0 .78zm2.41 12.4h-19.09a.39.39 0 0 1-.39-.4.38.38 0 0 1 .39-.39h19.09a.39.39 0 0 1 .39.39.4.4 0 0 1-.39.4zm2.41 12.39H737a.39.39 0 0 1-.39-.4.38.38 0 0 1 .39-.39h19.09a.39.39 0 0 1 .39.39.4.4 0 0 1-.4.4zm2.4 12.39H739.4a.4.4 0 0 1-.4-.4.39.39 0 0 1 .4-.39h19.08a.39.39 0 0 1 .4.39.4.4 0 0 1-.4.4zm2.41 12.39h-19.08a.4.4 0 0 1-.4-.4.39.39 0 0 1 .4-.39h19.08a.39.39 0 0 1 .4.39.4.4 0 0 1-.4.4zm2.41 12.39h-19.08a.4.4 0 1 1 0-.79h19.08a.4.4 0 1 1 0 .79z"/><path class="cls-27" d="M729.61 480.63a.39.39 0 0 1-.39-.4v-86.3a.39.39 0 0 1 .39-.39.4.4 0 0 1 .4.39v86.3a.4.4 0 0 1-.4.4zm36.1 0a.4.4 0 0 1-.39-.32l-16.86-86.74a.4.4 0 0 1 .31-.46.4.4 0 0 1 .47.31l16.86 86.74a.4.4 0 0 1-.32.46z"/><path class="cls-27" d="M746.62 480.63a.39.39 0 0 1-.38-.32l-16.86-86.74a.39.39 0 1 1 .77-.15L747 480.16a.4.4 0 0 1-.31.46z"/><path class="cls-27" d="M748.85 393.89h-19.09a.39.39 0 0 1-.39-.39.4.4 0 0 1 .39-.4h19.09a.39.39 0 0 1 .39.4.38.38 0 0 1-.39.39zm2.41 12.39h-19.09a.39.39 0 0 1 0-.78h19.09a.39.39 0 0 1 0 .78zm2.41 12.4h-19.09a.39.39 0 0 1-.39-.4.38.38 0 0 1 .39-.39h19.09a.39.39 0 0 1 .39.39.4.4 0 0 1-.39.4zm2.41 12.39H737a.39.39 0 0 1-.39-.4.38.38 0 0 1 .39-.39h19.09a.39.39 0 0 1 .39.39.4.4 0 0 1-.4.4zm2.4 12.39H739.4a.4.4 0 0 1-.4-.4.39.39 0 0 1 .4-.39h19.08a.39.39 0 0 1 .4.39.4.4 0 0 1-.4.4zm2.41 12.39h-19.08a.4.4 0 0 1-.4-.4.39.39 0 0 1 .4-.39h19.08a.39.39 0 0 1 .4.39.4.4 0 0 1-.4.4zm2.41 12.39h-19.08a.4.4 0 1 1 0-.79h19.08a.4.4 0 1 1 0 .79z"/><path class="cls-28" d="M738.25 328.19l-11.56-5.95a1.17 1.17 0 0 0-1.19 2l13.36 9.11c2.14 1.28 2.92-3.22-.61-5.16z"/><path d="M756.38 320.27a2.16 2.16 0 0 0-3-.61l-12.2 8.06c-3.92 2.43-3.66 4.61-2.26 5.46a2.09 2.09 0 0 0 2.05-.13l.11-.08 14.68-9.7a2.16 2.16 0 0 0 .62-3z" fill="#a1a7ff"/><path class="cls-30" d="M741.19 328.51l-.01-.05-.03.08.04-.03z"/><path class="cls-20" d="M728.22 321.1l-2.06-1.45a1.22 1.22 0 0 0-.89-.2l-1.89.33a1.2 1.2 0 0 0-.72 1.93l2.34 2.86a2.38 2.38 0 0 0 3.8-.14 2.39 2.39 0 0 0-.58-3.33z"/><path class="cls-6" d="M737.76 389.46a3.2 3.2 0 0 1-.89.91c-1.51.72-3.58.71-3.85 1.94l-.16.84h8.86l-.17-3z"/><path class="cls-20" d="M741.48 388.24h-2.86a14.69 14.69 0 0 1-.83 1.23c1.65 1.83 2.92 2.07 3.79.72zm9.77 12.51h-2.85l-.84 1.54c-.59 1.23 3.74 1.61 3.74 0z"/><path class="cls-6" d="M747.64 402.15l-.35.51c-1.08.52-2 1.15-2 2v.85h6.1l-.12-3.4c.03-.55-2.74.77-3.63.04z"/><path class="cls-30" d="M732.98 392.5l-.12.65 8.86.03-.04-.66-8.7-.02zm12.32 12.39l.02.66h6.09l-.02-.66h-6.09z"/><path class="cls-21" d="M730.42 367.68l9.52-16.54a3.21 3.21 0 0 1 4.52-1.12l1.57 1a3.2 3.2 0 0 1 .85 4.58l-7 10.79-4.3 5.14a3.2 3.2 0 0 1-4.55.36 3.34 3.34 0 0 1-.61-4.21z"/><path class="cls-21" d="M732.25 366.27a2.89 2.89 0 0 1 3.4 1.93l6.23 20.66h-4.12l-7.54-18.64a2.9 2.9 0 0 1 2.03-3.95zM754 352l-.39 12.3c-.19 4.09-.31 8.19-.55 12.28l-1.28 24.53L748 401l-.79-24.48-.11-3.06-.23-3.06-.46-6.11-1-12.21z"/><path class="cls-21" d="M751.84 355.51H740.4a2.32 2.32 0 0 1-2.25-2.38v-4.22H754v4.22a2.3 2.3 0 0 1-2.16 2.38z"/><path class="cls-28" d="M730.56 334.28l-9.39-9a1.17 1.17 0 0 0-1.55-.06 1.16 1.16 0 0 0-.16 1.64l10.22 12.54c1.7 1.84 3.72-2.26.88-5.12z"/><path class="cls-28" d="M739.78 320.11a2.16 2.16 0 0 0-2.88 1l-6.3 13.19c-2.11 4.1-.76 5.84.87 5.84a2.08 2.08 0 0 0 1.69-1.17l.06-.12L740.8 323a2.15 2.15 0 0 0-1.02-2.89z"/><path class="cls-30" d="M730.6 334.32l-.04-.04.02.09.02-.05z"/><path class="cls-13" d="M718.25 295.69h-38.74a6.74 6.74 0 0 0-6.74 6.74v18.09a6.74 6.74 0 0 0 6.74 6.74h5.18v7.51l7.52-7.51h26a6.74 6.74 0 0 0 6.74-6.74v-18.09a6.74 6.74 0 0 0-6.7-6.74z"/><path class="cls-2" d="M713.54 305.65h-29.32a1.18 1.18 0 1 1 0-2.36h29.32a1.18 1.18 0 1 1 0 2.36zm0 6.35h-29.32a1.19 1.19 0 0 1 0-2.37h29.32a1.19 1.19 0 0 1 0 2.37zm0 6.4h-29.32a1.18 1.18 0 1 1 0-2.36h29.32a1.18 1.18 0 1 1 0 2.36z"/><path class="cls-20" d="M723.24 325.21l-.46-2.48a1.2 1.2 0 0 0-.5-.76l-1.58-1.09a1.2 1.2 0 0 0-1.86.88l-.33 3.68a2.39 2.39 0 0 0 2.82 2.56 2.38 2.38 0 0 0 1.91-2.79z"/><path class="cls-28" d="M738.13 354l-.86-32.59a3.42 3.42 0 0 1 3.41-3.42h13.66a3.42 3.42 0 0 1 3.41 3.42L754.29 354z"/><rect class="cls-20" x="740.17" y="300.26" width="11.82" height="15.61" rx="5.91"/><path class="cls-20" transform="rotate(180 747.035 315.575)" d="M744.45 313.17h5.16v4.81h-5.16z"/><path class="cls-23" d="M746.08 300.26a5.91 5.91 0 0 1 5.91 5.91V310a5.93 5.93 0 0 1-2.43 4.78 2.72 2.72 0 0 1-3.77-.62l-2.16-3-2.11-8.73a5.9 5.9 0 0 1 4.56-2.17z"/><path class="cls-23" d="M740.84 303.43a5.91 5.91 0 0 1 5.24-3.17 5.91 5.91 0 0 1 5.91 5.91v2.93h-8.93c-1.52 0-2.65-4.85-2.22-5.67z"/><path class="cls-23" d="M747.89 300.31c1.79-1.47 6.16.2 6.84 2a6.56 6.56 0 0 1-1.77 0 2.27 2.27 0 0 1 .9 3.61 3.46 3.46 0 0 0-1.48-1.66 2.9 2.9 0 0 1 .36 3.6 4.71 4.71 0 0 1-1.06-1.75 1.72 1.72 0 0 1-.5 1.89c-1.25-2.45-3.11-5.68-3.29-7.69z"/><path class="cls-23" d="M748.1 301.55c.11-3.86-5.69-4.25-10.13-1.15a12.54 12.54 0 0 1 3.51-.63 5.55 5.55 0 0 0-4.14 2.78 3 3 0 0 0 2.33 0 3.13 3.13 0 0 0-1.78 2.11 2.77 2.77 0 0 0 2.89-1.11 5.87 5.87 0 0 0-1.33 3.1 8.58 8.58 0 0 1 4.88-2.1 7.44 7.44 0 0 0-2.85 1.77c2.24.22 4.43 0 5.74-1.44a3.67 3.67 0 0 0 1.55 1.77c.75-1.05 1.39-3.91-.67-5.1z"/><path class="cls-20" d="M743.06 308.81v1.76a.48.48 0 0 0 .48.49.49.49 0 0 0 .48-.49v-1.76a.48.48 0 0 0-.48-.48.47.47 0 0 0-.48.48z"/><path class="cls-21" d="M590.21 322.26a3.21 3.21 0 1 0-6.39.46l3.08 24.49h3.78z"/><path class="cls-20" d="M586.9 347.21l.1.85a1.85 1.85 0 0 0 3.69-.27v-.58z"/><path class="cls-21" d="M586.41 298.69l-2.19.15a3.19 3.19 0 0 0-2.93 3.58l2.56 20.47a3.2 3.2 0 0 0 3.4 2.78 3.19 3.19 0 0 0 3-3.24l-.38-20.62a3.19 3.19 0 0 0-3.46-3.12z"/><path class="cls-21" d="M577.17 298.13h9.21a3.45 3.45 0 0 1 3.45 3.45V305h-16.11v-3.38a3.45 3.45 0 0 1 3.45-3.49z" transform="rotate(180 581.78 301.55)"/><path class="cls-21" d="M579.11 298.63h-2.19a3.94 3.94 0 0 0-3.76 3.36l-2.42 20.6a2.61 2.61 0 0 0 2.67 3 4 4 0 0 0 3.7-3l4.62-20.6a2.64 2.64 0 0 0-2.62-3.36z"/><path class="cls-20" d="M567.81 347.48l-.06.44a1.52 1.52 0 0 0 1.55 1.75 2.3 2.3 0 0 0 2.15-1.75l.1-.44z"/><path class="cls-21" d="M577.16 322.42a2.65 2.65 0 0 0-2.63-3.38 4 4 0 0 0-3.78 3.38l-2.94 25.06h3.74z"/><path class="cls-20" d="M587.69 282.07l5-.09.43 7.55a2.23 2.23 0 0 1-2 2.47 2.4 2.4 0 0 1-2.42-2.19z"/><path class="cls-2" d="M592.12 271.68a3.2 3.2 0 0 0-3.21-3.16 3 3 0 0 0-2.57 3.53l1.38 10.28 5-.08z"/><path class="cls-20" d="M592.93 291.93L608.34 280a1.4 1.4 0 0 0 .28-1.91 1.39 1.39 0 0 0-1.89-.37l-16.37 10.53a2.22 2.22 0 0 0-.61 3.16 2.23 2.23 0 0 0 3.18.52z"/><path class="cls-20" d="M609.75 281.1l2.23-1.23a1.18 1.18 0 0 0 .57-.72l.53-1.85a1.2 1.2 0 0 0-1.43-1.5l-3.62.86a2.41 2.41 0 0 0-1.55 3.51 2.4 2.4 0 0 0 3.27.93z"/><path class="cls-31" d="M591.15 271.19a4.44 4.44 0 0 0-3.1-4.07 28.63 28.63 0 0 0-16.1 0 3.9 3.9 0 0 0-2.67 4.07c1.4 8.65 2.89 17.85 4.43 27.44h16.12c.45-9.58.91-18.77 1.32-27.44z"/><path class="cls-6" d="M569.28 271.19c.65 4 1.66 10.67 2.55 16.61 1 6.78.07 15.79.07 15.79h7.1l2-15.45-5.74-21.77a25.43 25.43 0 0 0-3.33.75 3.9 3.9 0 0 0-2.65 4.07zm18.33-4.19l-3 21 1.78 15.59h3.45c.45-12.73.91-23.73 1.32-32.4a4.44 4.44 0 0 0-3.1-4.07z"/><rect class="cls-2" x="588.79" y="262.68" width="40.74" height="40.74" rx="5.22" transform="rotate(180 609.165 283.045)"/><path class="cls-7" d="M605.43 293.15a21.36 21.36 0 0 0-.14-5.08 10 10 0 0 1-1.68-2 21.75 21.75 0 0 1-2.18-7.88 9.77 9.77 0 0 1 .65-3.54 4.12 4.12 0 0 1-1.75-2.82c4.25 1.12 3-3.9 9.5-3.91a8.1 8.1 0 0 1 6.06 2.77 2.52 2.52 0 0 1 .45 2 3.07 3.07 0 0 1-.54 1 9.72 9.72 0 0 1 1.08 4.48 21.43 21.43 0 0 1-2.17 7.89 10 10 0 0 1-1.67 2 21.35 21.35 0 0 0-.13 5.08c1 .28 3.19.6 5.1 1a11.62 11.62 0 0 1-17.69 0c1.91-.39 4.13-.72 5.11-.99z"/><path class="cls-20" d="M584.83 266.39a29.14 29.14 0 0 0-8.64-.17l6.32 7.94s2.63-7.72 2.32-7.77zm-17.38 14.46l4.91 1-1.28 7.45a2.24 2.24 0 0 1-2.48 2 2.41 2.41 0 0 1-1.87-2.68z"/><path class="cls-31" d="M574.09 271.72a3.19 3.19 0 0 0-2.42-3.79 3 3 0 0 0-3.29 2.86l-1 10.32 4.89 1.05z"/><path class="cls-21" d="M567.69 347.86h3.84a.88.88 0 0 0 .84-.72l.2-1.12a.59.59 0 0 0-.6-.72h-3.84a.89.89 0 0 0-.85.72l-.19 1.12a.59.59 0 0 0 .6.72z"/><rect class="cls-21" x="586.16" y="345.3" width="5.28" height="2.56" rx=".72" transform="rotate(176 588.799 346.593)"/><path class="cls-20" d="M578.93 266.71h3.15v-4l-3.84-.51.69 4.51z"/><path class="cls-6" d="M584.33 252.29c.17.59 0 6.44 0 6.44h1.23a21.26 21.26 0 0 0 .49-8.78z"/><path class="cls-20" d="M585.69 253.29c0-2.15-1.49-3.41-4.68-3.41s-4.69 1.26-4.69 3.41c0 1.7-.34 4.84-.23 6.54a5.51 5.51 0 0 0 2.13 4.27 4.09 4.09 0 0 0 5.58 0 5.54 5.54 0 0 0 2.13-4.27c.07-1.7-.24-4.83-.24-6.54z"/><path class="cls-6" d="M577.3 260.66l4.88-.9 3.65.9a5.41 5.41 0 0 1-2 3.44 4.09 4.09 0 0 1-5.58 0 5.51 5.51 0 0 1-2.13-4.27v-1.1h1.22zm1.48-13.31h4.7c1.48 0 4-.16 4 1.55 0 1.48-1.37 3.32-4.4 3.32-3.41 0-5.51-1-5.81.07-.17.59 0 6.44 0 6.44h-1.23a21.09 21.09 0 0 1-.49-8.78 3.24 3.24 0 0 1 3.23-2.6z"/><path class="cls-2" d="M580.41 260.88a1.54 1.54 0 0 0 3.07 0 7.22 7.22 0 0 1-3.07 0z"/><path class="cls-20" d="M574.68 258.19c.24 1 .8 1.74 1.26 1.74s.65-.78.41-1.74-.79-1.74-1.25-1.74-.65.78-.42 1.74z"/><path class="cls-24" d="M580.32 256.06h-1.71a.27.27 0 0 1 0-.54h1.71a.27.27 0 1 1 0 .54zm4.83 0h-1.71a.27.27 0 1 1 0-.54h1.71a.27.27 0 0 1 0 .54zm-5.15 1.23c0 .46-.19.84-.43.84s-.43-.38-.43-.84.19-.84.43-.84.43.38.43.84zm4.61 0c0 .46-.19.84-.43.84s-.43-.38-.43-.84.2-.84.43-.84.43.38.43.84z"/><path class="cls-25" d="M582.29 256.86l.07 2.56-.9-.1a.44.44 0 1 0 0 .87l1.62-.17-.08-.3z"/><path class="cls-6" d="M585.84 246.07a1 1 0 0 1-.73 1.44l-6.62.75c-.06 0 4.3-1.84 6.13-2.6a1 1 0 0 1 1.22.41z"/><path class="cls-20" d="M568.87 291.58L588 295a1.39 1.39 0 0 0 1.6-1.07 1.39 1.39 0 0 0-1-1.65l-18.8-5a2.23 2.23 0 0 0-2.75 1.67 2.23 2.23 0 0 0 1.82 2.63z"/><path class="cls-20" d="M588.19 296.75l2.41.82a1.22 1.22 0 0 0 .92-.06l1.73-.86a1.2 1.2 0 0 0 .15-2.06l-3.07-2.1a2.41 2.41 0 0 0-3.64 1.21 2.39 2.39 0 0 0 1.5 3.05z"/><path class="cls-6" d="M591.05 350.25a3.41 3.41 0 0 0 .9.92c1.52.73 3.6.73 3.87 2l.16.85h-8.92l.18-3z"/><path class="cls-20" d="M587.32 349c0-1.24 2.42-1.2 2.87 0 0 0 .39.65.83 1.25-1.67 1.84-2.94 2.07-3.82.71z"/><path class="cls-6" d="M571.05 350.56c.31 0 .42.22.53.52 1 .52 1.8 1.15 1.65 2.05l-.17.85h-6.14l.7-3.42z"/><path class="cls-20" d="M567.91 349.15c.27-1.39 2.59-1.8 2.87 0l.58 1.55c-3.09-.58-3.67 2.65-3.77 0z"/><path class="cls-31" d="M573.19 353.32l-.14.66h-6.13l.13-.66h6.14zm22.67 0l.12.66h-8.92l.04-.66h8.76zm.59 1.36a.7.7 0 0 0-.7-.7h-29.94a.7.7 0 0 0-.7.7v125.55a.7.7 0 0 0 1.39 0V451.1h28.56v29.13a.69.69 0 0 0 .69.69.7.7 0 0 0 .7-.69V354.75zm-30 80.88v-11.4h28.56v11.4zm0-12.79V410h28.56v12.77zm0-14.15v-11.41h28.56v11.41zm0-12.79v-12.77h28.56v12.77zm0-14.16v-11.4h28.56v11.4zm0-12.79v-13.51h28.56v13.51zm0 68.07h28.56v12.77H566.5z"/><path class="cls-20" d="M790.31 427.46v12.42c0 2.07 0 4.14.05 6.21v4.65c0 .51 0 1 .06 1.55l.52 6.19c.17 2.07.34 4.13.53 6.19l.56 6.19c.2 2.06.39 4.12.61 6.17h2.23c.12-2.06.22-4.12.33-6.18l.28-6.16c.1-2 .17-4.1.26-6.15l.24-6.15c0-.52.07-1 .12-1.54l.16-1.53.31-3.07c.21-2 .43-4.09.62-6.13l.58-6.13c.18-2 .37-4.09.53-6.13z"/><path class="cls-20" d="M797.54 428c.16 2 .34 4 .52 5.92l.56 5.92c.18 2 .39 3.94.59 5.91l.6 5.91v.24l1.2 6.26c.41 2.09.8 4.18 1.22 6.27l1.24 6.26c.43 2.08.84 4.17 1.29 6.25l2.21-.28c-.1-2.13-.23-4.26-.34-6.38l-.39-6.37c-.12-2.13-.27-4.25-.41-6.37l-.43-6.36v.23l.07-5.94c0-2 .06-4 .06-5.95v-11.88z"/><path class="cls-7" d="M797 446.27v-.37l.18-1.81c.14-1.3.28-2.65.4-4l.58-6.12c.06-.73.13-1.44.19-2.16.12-1.3.24-2.65.34-4v-.43l-8.89-.4v19.21z"/><path class="cls-7" d="M805.91 446.27v-19.09l-8.89.4v.42c.1 1.3.22 2.61.33 3.88.06.68.13 1.36.18 2l.57 5.92c.12 1.33.26 2.68.39 4 .07.65.13 1.29.2 1.94l.05.52z"/><path class="cls-7" d="M803.73 431.82H792.3a2.32 2.32 0 0 1-2.25-2.35v-2.22a2 2 0 0 1 2-2h12a2 2 0 0 1 2 1.94v2.24a2.28 2.28 0 0 1-2.32 2.39z"/><path class="cls-20" d="M792.36 396.1l-17.46-7.71.06 3.89 16.13-8.83a1.15 1.15 0 0 0-1-2.08l-17 7.05a2.08 2.08 0 0 0-.05 3.84l.11.05 17.48 7.69a2.14 2.14 0 0 0 1.73-3.92z"/><path class="cls-21" d="M790.24 400.78a3 3 0 0 0 2.5-5.45 30.62 30.62 0 0 0-5.24-2.09l-.78 6.16z"/><path class="cls-20" d="M792.24 384.64l2.26-1.06a1.15 1.15 0 0 0 .61-.67l.65-1.78a1.18 1.18 0 0 0-1.3-1.57l-3.61.6a2.37 2.37 0 0 0-1.76 3.34 2.38 2.38 0 0 0 3.15 1.14z"/><path class="cls-21" d="M790 423.68l-.86-26.25a3.38 3.38 0 0 1 3.38-3.38h13.52a3.38 3.38 0 0 1 3.38 3.38L806 423.48l.65 4.63h-17z"/><path class="cls-25" d="M802 394.05a3.17 3.17 0 0 1-6.33 0zm-.54 0h-4.04l.1-3.94 3.67-.49.27 4.43z"/><path class="cls-32" d="M795.2 379.87c-.17.58 0 6.33 0 6.33H794c-.66-2.29-1.79-6.35-.86-8.09.71-1.35 3.57-1.51 3.57-1.51z"/><path class="cls-20" d="M793.86 380.85c0-2.11 1.47-3.35 4.61-3.35s4.6 1.24 4.6 3.35c0 1.67.34 4.76.23 6.43a5.44 5.44 0 0 1-2.09 4.2 4 4 0 0 1-5.49 0 5.44 5.44 0 0 1-2.09-4.2c-.1-1.67.23-4.76.23-6.43z"/><path class="cls-32" d="M802.11 386.2l-.92 1.66-3.77-.36-3.71.47.2 2.33a2.74 2.74 0 0 0 2.73 2.51h2.1a4.48 4.48 0 0 0 4.23-2.92 7.94 7.94 0 0 0 .35-3.69zm-.01-6.35c.17.58 0 6.33 0 6.33h1.21a21.79 21.79 0 0 0 .67-7.27z"/><path class="cls-32" d="M793.12 377.57c.19-1.49 1.72-3.41 6.55-3.41s5.42 4.36 8.21 4.77c-3.33 2.28-11.17 1.87-13.93 1.07l-1.11-1.07c.03-.47.22-.93.28-1.36z"/><path class="cls-2" d="M799.06 388.31a1.51 1.51 0 0 1-3 0 7 7 0 0 0 3 0z"/><path class="cls-25" d="M804.68 385.67c-.23.95-.78 1.71-1.23 1.71s-.64-.76-.41-1.71.79-1.71 1.24-1.71.63.77.4 1.71z"/><path class="cls-24" d="M799.45 384.78c0 .46.19.83.42.83s.43-.37.43-.83-.19-.82-.43-.82-.42.37-.42.82zm-4.53 0c0 .46.19.83.43.83s.42-.37.42-.83-.19-.82-.42-.82-.43.37-.43.82z"/><path class="cls-25" d="M797.21 384.36l-.7 2.81a.27.27 0 0 0 .2.33h.1l1.22.13a.43.43 0 0 0 .47-.38.44.44 0 0 0-.38-.48H798l-1.22.13.29.34z"/><path class="cls-20" d="M805.36 397.7c.11 1.64.26 3.26.42 4.89s.33 3.25.52 4.87.39 3.25.59 4.87l.64 4.86v-.34l-.08 4.45v4.46c0 1.46 0 3 .05 4.46s.07 3 .15 4.46a1.16 1.16 0 0 0 2.3.11c.23-1.47.41-3 .59-4.42s.34-3 .48-4.44.29-2.95.43-4.43l.36-4.44a.88.88 0 0 0 0-.23v-.11l-.44-4.89c-.17-1.62-.32-3.25-.5-4.87s-.37-3.25-.56-4.87-.42-3.24-.67-4.86a2.14 2.14 0 0 0-4.25.47z"/><path class="cls-21" d="M810.46 397.09a3 3 0 0 0-6 .75c.18 2.73.48 5.45.82 8.16l6.47-2.72z"/><path class="cls-20" d="M811.6 435.86l-.11 2.49a1.15 1.15 0 0 1-.38.82l-1.4 1.28a1.18 1.18 0 0 1-2-.6l-.83-3.56a2.37 2.37 0 0 1 2.41-2.9 2.36 2.36 0 0 1 2.31 2.47z"/><path d="M789.68 446.27h7.51l.42-3.67h-7.93v3.67zm8.96 0h7.51l.21-3.67h-8.14l.42 3.67z" fill="#737ade"/><path class="cls-21" d="M790.67 477.85a3.09 3.09 0 0 0 1-1.36h3.61l.24 4.13h-8.77l-.05-.84c-.14-1.61 2.48-1.21 3.97-1.93z"/><path class="cls-34" d="M793.09 479.54h2.31l.08 1.08h-8.77l-.05-.44h4.71l1.72-.64z"/><path class="cls-2" d="M791 477.53h.45a1 1 0 0 0 .72-.45l.72-1.19c.15-.24.07-.44-.18-.44h-.45a1 1 0 0 0-.72.44l-.72 1.19c-.14.25-.06.45.18.45z"/><path class="cls-21" d="M803.59 477.77a2.59 2.59 0 0 0 .58-1.28h3.28l.43 4.14h-6l-.09-.84c-.15-1.14.7-1.29 1.8-2.02z"/><path class="cls-34" d="M806.23 479.55h1.59l.06 1.08h-6.05l-.04-.44h3.25l1.19-.64z"/><path class="cls-2" d="M804.09 477.54h.84a.59.59 0 0 0 .54-.44l.26-1.19a.36.36 0 0 0-.36-.45h-.84a.58.58 0 0 0-.54.45l-.25 1.19a.34.34 0 0 0 .35.44z"/><path class="cls-24" d="M798.63 383.79a.35.35 0 0 0 .42 0 1.57 1.57 0 0 1 1.74 0 .35.35 0 0 0 .42 0c.1-.1.06-.31-.13-.44a2.08 2.08 0 0 0-2.32 0c-.19.13-.23.34-.13.44zm-4.74 0a.35.35 0 0 0 .42 0 1.57 1.57 0 0 1 1.74 0 .33.33 0 0 0 .41 0c.11-.1.06-.31-.12-.44a2.1 2.1 0 0 0-2.33 0c-.18.13-.23.34-.12.44z"/><path class="cls-9" d="M318.68 476.23a4.39 4.39 0 1 1-4.39-4.4 4.39 4.39 0 0 1 4.39 4.4z"/><path class="cls-13" d="M316.91 476.23a2.62 2.62 0 1 1-2.62-2.62 2.61 2.61 0 0 1 2.62 2.62z"/><path class="cls-17" d="M314.24 476.69a1.18 1.18 0 0 1-1.1-.74l-2.28-5.55h4.58v5.1a1.19 1.19 0 0 1-1.2 1.19z"/><path class="cls-13" d="M315.44 470.4h-4.58l.57 1.39h4.01v-1.39z"/><path class="cls-17" d="M280.29 428.41h38.4v41.99h-38.4z"/><path class="cls-35" d="M289.66 436.46h19.65a.93.93 0 0 0 0-1.86h-19.65a.93.93 0 0 0 0 1.86zm19.65 2.07h-19.65a.93.93 0 1 0 0 1.85h19.65a.93.93 0 1 0 0-1.85zm0 3.92h-19.65a.93.93 0 1 0 0 1.85h19.65a.93.93 0 1 0 0-1.85z"/><path class="cls-35" d="M282.47 468.21v-37.62l-2.18-2.18v41.99h38.39v-2.19h-36.21z"/><path class="cls-17" d="M241.89 428.41h38.4v41.99h-38.4z"/><path class="cls-35" d="M251.26 436.46h19.65a.93.93 0 0 0 0-1.86h-19.65a.93.93 0 0 0 0 1.86zm19.65 2.07h-19.65a.93.93 0 0 0 0 1.85h19.65a.93.93 0 1 0 0-1.85zm0 3.92h-19.65a.93.93 0 0 0 0 1.85h19.65a.93.93 0 1 0 0-1.85z"/><path class="cls-35" d="M244.08 468.21v-37.62l-2.19-2.18v41.99h38.4v-2.19h-36.21z"/><path class="cls-9" d="M203.49 476.23a4.4 4.4 0 1 0 4.4-4.4 4.4 4.4 0 0 0-4.4 4.4z"/><path class="cls-13" d="M205.27 476.23a2.62 2.62 0 1 0 2.62-2.62 2.61 2.61 0 0 0-2.62 2.62z"/><path class="cls-17" d="M207.93 476.69A1.19 1.19 0 0 0 209 476l2.28-5.55h-4.58v5.1a1.19 1.19 0 0 0 1.23 1.14z"/><path class="cls-13" d="M206.74 470.4h4.58l-.57 1.39h-4.01v-1.39z"/><path class="cls-17" transform="rotate(180 222.695 449.4)" d="M203.49 428.41h38.4v41.99h-38.4z"/><path class="cls-35" d="M205.68 468.21v-37.62l-2.18-2.18v41.99h38.39v-2.19h-36.21z"/><path class="cls-35" d="M212.87 436.46h19.65a.93.93 0 0 0 0-1.86h-19.65a.93.93 0 0 0 0 1.86zm19.65 2.07h-19.65a.93.93 0 1 0 0 1.85h19.65a.93.93 0 0 0 0-1.85zm0 3.92h-19.65a.93.93 0 1 0 0 1.85h19.65a.93.93 0 0 0 0-1.85z"/><path class="cls-36" d="M226.24 422.22h13.36v6.18h-13.36z"/><path class="cls-2" d="M240.77 426.25h-15.7a1.08 1.08 0 0 0-1.08 1.08 1.08 1.08 0 0 0 1.08 1.08h15.7a1.08 1.08 0 0 0 1.08-1.08 1.08 1.08 0 0 0-1.08-1.08z"/><path class="cls-13" d="M208.26 389.34h49.32v32.88h-49.32z"/><path class="cls-10" transform="rotate(90 232.92 405.78)" d="M218.64 383.28h28.56v45.01h-28.56z"/><path class="cls-2" d="M213.65 401.51H220v-6.34h-6.34zm18.51-2.24h-9.57v2.26h9.57zm-9.57-4.1v2.27h14v-2.27zm-8.94 16.95H220v-6.34h-6.34zm18.51-2.24h-9.57v2.26h9.57zm-9.57-4.1V408h14v-2.26z"/><path class="cls-36" d="M294.29 422.22h13.36v6.18h-13.36z"/><path class="cls-2" d="M308.83 426.25h-15.71a1.08 1.08 0 0 0-1.08 1.08 1.08 1.08 0 0 0 1.08 1.08h15.71a1.09 1.09 0 0 0 1.08-1.08 1.08 1.08 0 0 0-1.08-1.08z"/><path class="cls-13" d="M276.31 389.34h49.33v32.88h-49.33z"/><path class="cls-11" transform="rotate(90 300.97 405.78)" d="M286.69 383.28h28.56v45.01h-28.56z"/><path class="cls-2" d="M284 416.34h3.53v-3.51H284zm5.2 0h3.53v-9.55h-3.53zm5.21 0h3.53v-15.6h-3.53zm5.2 0h3.53v-19.63h-3.53zm5.21 0h3.53v-17.61h-3.53zm5.2 0h3.53V394.7H310zm5.21-11.57v11.57h3.53v-11.57z"/><path class="cls-22" d="M245.6 427.16l-2.12.47a3.15 3.15 0 0 0-2.35 3.91l5.46 19.62a3.16 3.16 0 0 0 3.72 2.23 3.15 3.15 0 0 0 2.42-3.59l-3.35-20.09a3.14 3.14 0 0 0-3.78-2.55z"/><path class="cls-22" d="M245.06 433.62l8.88-2a3.4 3.4 0 0 0 2.59-4.06l-.72-3.26-15.42.52A14 14 0 0 0 241 431a3.4 3.4 0 0 0 4.06 2.62zm1.32 17.51l-1.29 23.63a1.61 1.61 0 0 0 1.64 1.73 2.07 2.07 0 0 0 2-1.73l4-23.63a2.81 2.81 0 0 0-2.82-3.33 3.59 3.59 0 0 0-3.53 3.33z"/><path class="cls-20" d="M246.39 479.74a1.51 1.51 0 0 1-1.54-1.66l.25-3.38h3.64l-.46 3.38a2 2 0 0 1-1.89 1.66z"/><path class="cls-32" d="M248.54 476.3a4.25 4.25 0 0 1-3.61 0l-.43 4.34h5.82l.12-1.14a1.35 1.35 0 0 0-.28-1l-.29-.38z"/><path class="cls-22" d="M255.26 449.88l3.14 25a1.82 1.82 0 0 0 1.94 1.59 1.82 1.82 0 0 0 1.69-1.86l-.46-25.2a3.17 3.17 0 0 0-3.4-3.1 3.16 3.16 0 0 0-2.91 3.57z"/><path class="cls-20" d="M260.57 479.74a1.73 1.73 0 0 1-1.83-1.54l-.34-3.36 3.63-.26.14 3.37a1.73 1.73 0 0 1-1.6 1.79z"/><path class="cls-32" d="M268.1 480.64V480a1.5 1.5 0 0 0-1.1-1.4l-2.77-.86-2.16-1.44c-.08 1.25-2.07 1.26-3.55 0v4.34z"/><path class="cls-22" d="M252.63 425.59l-2.08.62a3.15 3.15 0 0 0-2.06 4.08l6.85 19.17a3.14 3.14 0 0 0 3.86 2 3.15 3.15 0 0 0 2.16-3.75l-4.77-19.8a3.16 3.16 0 0 0-3.96-2.32z"/><path class="cls-37" d="M258.57 425.05l9.72-26.11a3.67 3.67 0 0 0-2.32-4.66l-10.08-3.37c-1.93-.65-8.21 1.86-9.78 8.19l-3 17.41-3.52 9.74 17.73 3.1z"/><path class="cls-20" d="M279.66 424l2.64.66a1.38 1.38 0 0 1 .8.54l1.1 1.62c.52.76 0 1.6-1 1.6l-3.94.11a2.54 2.54 0 0 1-2.64-2.94 2.44 2.44 0 0 1 3.04-1.59z"/><path class="cls-20" d="M279.54 426.18a1.29 1.29 0 0 1-1.49 2.1l-2.7-1.65 1.58-2.6z"/><path class="cls-37" d="M263.47 418.93l.15-20.41a2.39 2.39 0 1 1 4.78.08l.34 17.66zm5.27-2.67l8.19 7.77-1.58 2.6-11.88-7.7 5.27-2.67z"/><path class="cls-22" d="M244.58 479.83l-.08.8h5.82l.09-.8h-5.83zm13.98.81h9.54V480a1.42 1.42 0 0 0 0-.2h-9.5z"/><path class="cls-20" d="M268.8 385.45l.28 3a.33.33 0 0 1-.39.35l-1.3-.43z"/><path class="cls-20" d="M269.48 383.13c.59-1.77.34-4.58-3.86-6-2.64-.88-5.65-.64-6.69 2.46-.47 1.41-.31 4.46-.2 5.94a7 7 0 0 0 5.15 6.65c.53.18 1.28.43 1.76.13 1.1-.68 1.79-2.67 2.22-3.73a26.22 26.22 0 0 0 .89-2.89c.12-.45.55-.83.67-1.24s-.06-.97.06-1.32z"/><path class="cls-20" d="M261.45 392.77l-5.56-1.86 2.65-3.34c.43-.53.94-1.31 2.09-.92 2.54.85 2.82 2.76 2.09 4.14z"/><path class="cls-23" d="M270.31 379.51a6.36 6.36 0 0 0-3.87-4.25c-2.08-.7-5.65.32-5.65.32C253.43 373.12 258 387 258 387c-1.28 2.14 2.62 2.46 4.83 1.53a1.6 1.6 0 0 0 1.16-1.31c-.59-.2-.55-1.07-.22-2.06s1.1-1.87 1.42-1.51c.92 1 1 .09 1-.16.36-1.08 3.23-1.69 3.67-2a1.73 1.73 0 0 0 .45-1.98z"/><path d="M269.44 379.75a3.94 3.94 0 0 0-2.67-2.66c-4.19-1.31-2.73 10.9-7.56 10.92a6 6 0 0 0 3.26-.31 1.91 1.91 0 0 0 .42-.23 3 3 0 0 1 0-2.59c.35-1 1.32-2.54 2.47-2.15l.19.08c.58-.91 1.95-1.4 3.08-1.8l.7-.26c.08-.06.31-.24.11-1z" fill="#854919"/><path class="cls-34" d="M268.09 385.6c-.12.34-.09.64 0 .69s.34-.19.45-.52.09-.64 0-.69-.34.19-.45.52zm.2-.98a.21.21 0 0 1 0-.41 2 2 0 0 1 1.16.11.21.21 0 0 1 .13.27.22.22 0 0 1-.27.14 1.51 1.51 0 0 0-.92-.1.25.25 0 0 1-.1-.01z"/><path class="cls-6" d="M421.86 374.27a.87.87 0 0 0-.87.87v.44h-2.3a2 2 0 1 0 0 4.07H421v.44a.88.88 0 1 0 1.75 0v-4.95a.87.87 0 0 0-.89-.87zm0 10a.87.87 0 0 0-.87.87v.44h-2.3a2 2 0 1 0 0 4.07H421v.44a.88.88 0 1 0 1.75 0v-4.95a.87.87 0 0 0-.89-.87z"/><path class="cls-13" d="M390.52 453.7h-71.84v-2h71.84a20.43 20.43 0 0 0 20.41-20.41V389a2.41 2.41 0 0 1 2.41-2.4h3.31v2h-3.31a.4.4 0 0 0-.41.4v42.27a22.43 22.43 0 0 1-22.41 22.43z"/><path class="cls-13" d="M390.52 443.7h-71.84v-2h71.84a10.42 10.42 0 0 0 10.41-10.41V389a12.42 12.42 0 0 1 12.41-12.4h3.34v2h-3.34a10.42 10.42 0 0 0-10.41 10.4v42.27a12.42 12.42 0 0 1-12.41 12.43z"/><path class="cls-13" d="M318.68 454.9a.88.88 0 0 0 1.75 0V440a.88.88 0 1 0-1.75 0z"/></g></g></g></svg>